<?xml version="1.0" encoding="iso-8859-1"?>
<!-- Generator: Adobe Illustrator 29.5.1, SVG Export Plug-In . SVG Version: 9.03 Build 0)  -->
<svg version="1.1" xmlns="http://www.w3.org/2000/svg" xmlns:xlink="http://www.w3.org/1999/xlink" x="0px" y="0px"
	 viewBox="0 0 300 300" style="enable-background:new 0 0 300 300;" xml:space="preserve">
<g id="Ear_1">
	<g>
		<path style="fill:#1C82AF;" d="M133.04,105.92c0.369,1.814-0.793,3.629-2.636,3.997c-1.843,0.397-3.628-0.794-4.025-2.636
			c-7.058-33.676-17.887-35.377-46.8-24.69c-6.549,3.742-15.506-10.459-0.935-16.497c15.109-5.585,30.217-3.601,39.231,3.175
			C126.634,75.845,131.566,89.621,133.04,105.92L133.04,105.92z"/>
		<path style="fill:#1C82AF;" d="M181.569,106.799c-0.596,1.786-2.494,2.75-4.28,2.154c-1.786-0.566-2.749-2.494-2.154-4.28
			c10.716-32.684,2.183-39.6-28.177-44.787c-7.568-0.028-8.22-16.81,7.428-14.769c15.873,2.721,27.949,11.99,32.371,22.365
			C191.065,77.574,188.458,91.945,181.569,106.799L181.569,106.799z"/>
	</g>
</g>
<g id="Layer_1">
</g>
</svg>
