<?xml version="1.0" encoding="iso-8859-1"?>
<!-- Generator: Adobe Illustrator 29.5.1, SVG Export Plug-In . SVG Version: 9.03 Build 0)  -->
<svg version="1.1" xmlns="http://www.w3.org/2000/svg" xmlns:xlink="http://www.w3.org/1999/xlink" x="0px" y="0px"
	 viewBox="0 0 300 300" style="enable-background:new 0 0 300 300;" xml:space="preserve">
<g id="Ear_7">
	<g>
		<path style="fill-rule:evenodd;clip-rule:evenodd;fill:#1C82AF;" d="M112.713,90.982c1.587-1.559,4.592-2.749,8.645-2.409
			c5.188,0.453,11.112,3.401,15.336,7.114c7.653,8.703-7.653,6.35-11.395,18.936c-1.049,3.486-3.657,4.054-7.881,0.341
			c-3.713-4.195-6.662-10.148-7.115-15.336C109.935,95.574,111.125,92.57,112.713,90.982L112.713,90.982z"/>
		<path style="fill-rule:evenodd;clip-rule:evenodd;fill:#9ED8F6;" d="M113.138,99.628c1.445-0.879,4.677,1.758,7.171,5.925
			c2.523,4.139,3.374,8.221,1.9,9.099c-1.446,0.907-4.678-1.757-7.172-5.896C112.514,104.589,111.664,100.507,113.138,99.628
			L113.138,99.628z"/>
		<path style="fill-rule:evenodd;clip-rule:evenodd;fill:#1C82AF;" d="M191.572,90.982c-1.588-1.559-4.592-2.749-8.645-2.409
			c-5.188,0.453-11.141,3.401-15.336,7.114c-7.653,8.703,7.653,6.35,11.395,18.936c1.021,3.486,3.656,4.054,7.881,0.341
			c3.713-4.195,6.661-10.148,7.114-15.336C194.351,95.574,193.159,92.57,191.572,90.982L191.572,90.982z"/>
		<path style="fill-rule:evenodd;clip-rule:evenodd;fill:#9ED8F6;" d="M191.147,99.628c-1.475-0.879-4.678,1.758-7.2,5.925
			c-2.495,4.139-3.345,8.221-1.871,9.099c1.445,0.907,4.677-1.757,7.172-5.896C191.742,104.589,192.593,100.507,191.147,99.628
			L191.147,99.628z"/>
	</g>
</g>
<g id="Layer_1">
</g>
</svg>
