<?xml version="1.0" encoding="iso-8859-1"?>
<!-- Generator: Adobe Illustrator 29.5.1, SVG Export Plug-In . SVG Version: 9.03 Build 0)  -->
<svg version="1.1" xmlns="http://www.w3.org/2000/svg" xmlns:xlink="http://www.w3.org/1999/xlink" x="0px" y="0px"
	 viewBox="0 0 300 300" style="enable-background:new 0 0 300 300;" xml:space="preserve">
<g id="Ear_2">
	<g>
		<path style="fill-rule:evenodd;clip-rule:evenodd;fill:#1C82AF;" d="M133.779,104.248c-14.514,18.057-28.092-32.259,0-42.69
			C130.236,78.254,140.355,95.375,133.779,104.248L133.779,104.248z"/>
		<path style="fill-rule:evenodd;clip-rule:evenodd;fill:#9ED8F6;" d="M123.404,104.446c-7.001-11.396-5.216-27.893,4.45-37.729
			C121.958,78.65,119.889,91.123,123.404,104.446L123.404,104.446z"/>
		<path style="fill-rule:evenodd;clip-rule:evenodd;fill:#1C82AF;" d="M164.506,104.248c14.514,18.057,28.092-32.259,0-42.69
			C168.049,78.254,157.93,95.375,164.506,104.248L164.506,104.248z"/>
		<path style="fill-rule:evenodd;clip-rule:evenodd;fill:#9ED8F6;" d="M174.881,104.446c7.002-11.396,5.217-27.893-4.449-37.729
			C176.326,78.65,178.396,91.123,174.881,104.446L174.881,104.446z"/>
	</g>
</g>
<g id="Layer_1">
</g>
</svg>
