<?xml version="1.0" encoding="iso-8859-1"?>
<!-- Generator: Adobe Illustrator 29.5.1, SVG Export Plug-In . SVG Version: 9.03 Build 0)  -->
<svg version="1.1" xmlns="http://www.w3.org/2000/svg" xmlns:xlink="http://www.w3.org/1999/xlink" x="0px" y="0px"
	 viewBox="0 0 300 300" style="enable-background:new 0 0 300 300;" xml:space="preserve">
<g id="Ear_6">
	<g>
		<path style="fill-rule:evenodd;clip-rule:evenodd;fill:#1C82AF;" d="M120.456,67.868c2.381-0.652,4.11,1.077,5.527,4.167
			c6.633,14.258,8.9,30.501,7.653,30.841c-1.417,0.368-4.592-0.879-8.334-3.401c-7.483-5.103-14.258-14.854-11.083-24.293
			C115.552,71.241,118.076,68.492,120.456,67.868L120.456,67.868z"/>
		<path style="fill-rule:evenodd;clip-rule:evenodd;fill:#9ED8F6;" d="M118.019,71.497c0.821-0.199,0.708,1.361,0.793,4.11
			c0.454,11.508,10.857,23.358,10.545,23.301c-9.07-1.814-16.866-14.684-14.769-22.167c0.397-1.446,0.851-2.693,1.503-3.6
			C116.743,72.205,117.197,71.724,118.019,71.497L118.019,71.497z"/>
		<path style="fill-rule:evenodd;clip-rule:evenodd;fill:#1C82AF;" d="M183.727,67.868c-2.382-0.652-4.11,1.077-5.557,4.167
			c-6.633,14.258-8.872,30.501-7.625,30.841c1.417,0.368,4.592-0.879,8.334-3.401c7.483-5.103,14.258-14.854,11.055-24.293
			C188.602,71.241,186.079,68.492,183.727,67.868L183.727,67.868z"/>
		<path style="fill-rule:evenodd;clip-rule:evenodd;fill:#9ED8F6;" d="M186.164,71.497c-0.822-0.199-0.709,1.361-0.822,4.11
			c-0.425,11.508-10.828,23.358-10.517,23.301c9.043-1.814,16.866-14.684,14.769-22.167c-0.396-1.446-0.851-2.693-1.502-3.6
			C187.411,72.205,186.986,71.724,186.164,71.497L186.164,71.497z"/>
	</g>
</g>
<g id="Layer_1">
</g>
</svg>
