<?xml version="1.0" encoding="iso-8859-1"?>
<!-- Generator: Adobe Illustrator 29.5.1, SVG Export Plug-In . SVG Version: 9.03 Build 0)  -->
<svg version="1.1" xmlns="http://www.w3.org/2000/svg" xmlns:xlink="http://www.w3.org/1999/xlink" x="0px" y="0px"
	 viewBox="0 0 300 300" style="enable-background:new 0 0 300 300;" xml:space="preserve">
<g id="Ear_3">
	<g>
		<path style="fill-rule:evenodd;clip-rule:evenodd;fill:#1C82AF;" d="M117.901,120.011c-28.971-9.071-4.28-29.226-11.112-39.43
			c4.678,6.378,24.435,3.118,28.318,14.314c1.049,3.034,0.766,3.317-1.417,5.188c-5.472,4.677-9.893,11.565-12.699,18.255
			C120.027,120.692,120.452,120.805,117.901,120.011L117.901,120.011z"/>
		<path style="fill-rule:evenodd;clip-rule:evenodd;fill:#9ED8F6;" d="M118.95,118.423c-23.499-9.241-8.079-20.381-9.894-32.428
			C118.95,97.192,123.004,107.171,118.95,118.423L118.95,118.423z"/>
		<path style="fill-rule:evenodd;clip-rule:evenodd;fill:#1C82AF;" d="M187.038,120.011c28.998-9.071,4.28-29.226,11.14-39.43
			c-4.705,6.378-24.435,3.118-28.317,14.314c-1.077,3.034-0.766,3.317,1.417,5.188c5.471,4.677,9.893,11.565,12.671,18.255
			C184.94,120.692,184.516,120.805,187.038,120.011L187.038,120.011z"/>
		<path style="fill-rule:evenodd;clip-rule:evenodd;fill:#9ED8F6;" d="M186.018,118.423c23.499-9.241,8.079-20.381,9.893-32.428
			C186.018,97.192,181.964,107.171,186.018,118.423L186.018,118.423z"/>
	</g>
</g>
<g id="Layer_1">
</g>
</svg>
