<?xml version="1.0" encoding="iso-8859-1"?>
<!-- Generator: Adobe Illustrator 29.5.1, SVG Export Plug-In . SVG Version: 9.03 Build 0)  -->
<svg version="1.1" xmlns="http://www.w3.org/2000/svg" xmlns:xlink="http://www.w3.org/1999/xlink" x="0px" y="0px"
	 viewBox="0 0 300 300" style="enable-background:new 0 0 300 300;" xml:space="preserve">
<g id="Ear_5">
	<path style="fill-rule:evenodd;clip-rule:evenodd;fill:#1C82AF;" d="M185.456,104.215c-3.656-4.054-8.191-7.398-13.577-9.496
		c-0.454-0.199-1.021-0.255-1.56-0.142c-1.36,0.312-2.239,1.645-1.928,3.033c0.964,4.337,2.239,8.617,3.799,12.784
		c1.587,4.195,3.458,8.277,5.641,12.303c0.341,0.652,0.936,1.134,1.701,1.275c2.353,0.51,4.62,0.681,6.859,0.482
		c2.268-0.17,4.48-0.681,6.634-1.531c1.275-0.481,1.927-1.899,1.474-3.175C192.6,114.222,189.566,108.751,185.456,104.215
		L185.456,104.215z M118.813,104.215c3.686-4.054,8.221-7.398,13.578-9.496c0.482-0.199,1.021-0.255,1.56-0.142
		c1.36,0.312,2.239,1.645,1.928,3.033c-0.964,4.337-2.211,8.617-3.799,12.784c-1.559,4.195-3.43,8.277-5.612,12.303
		c-0.341,0.652-0.964,1.134-1.729,1.275c-2.324,0.51-4.62,0.681-6.859,0.482c-2.239-0.17-4.451-0.681-6.634-1.531
		c-1.247-0.481-1.898-1.899-1.474-3.175C111.699,114.222,114.732,108.751,118.813,104.215L118.813,104.215z"/>
</g>
<g id="Layer_1">
</g>
</svg>
