<?xml version="1.0" encoding="iso-8859-1"?>
<!-- Generator: Adobe Illustrator 29.5.1, SVG Export Plug-In . SVG Version: 9.03 Build 0)  -->
<svg version="1.1" xmlns="http://www.w3.org/2000/svg" xmlns:xlink="http://www.w3.org/1999/xlink" x="0px" y="0px"
	 viewBox="0 0 300 300" style="enable-background:new 0 0 300 300;" xml:space="preserve">
<g id="Eye_8">
	<g>
		<path style="fill-rule:evenodd;clip-rule:evenodd;fill:#FFFFFF;" d="M136.953,148.374c6.491,0,11.82-5.329,11.82-11.82
			c0-6.52-5.329-11.82-11.82-11.82c-6.52,0-11.82,5.301-11.82,11.82C125.132,143.044,130.433,148.374,136.953,148.374
			L136.953,148.374z"/>
		<path style="fill-rule:evenodd;clip-rule:evenodd;fill:#FFFFFF;" d="M173.832,148.374c6.52,0,11.82-5.329,11.82-11.82
			c0-6.52-5.301-11.82-11.82-11.82c-6.52,0-11.82,5.301-11.82,11.82C162.012,143.044,167.312,148.374,173.832,148.374
			L173.832,148.374z"/>
		<path style="fill-rule:evenodd;clip-rule:evenodd;" d="M136.953,143.697c3.94,0,7.144-3.203,7.144-7.143
			c0-3.941-3.203-7.172-7.144-7.172c-3.94,0-7.172,3.231-7.172,7.172C129.781,140.494,133.012,143.697,136.953,143.697
			L136.953,143.697z"/>
		<path style="fill-rule:evenodd;clip-rule:evenodd;" d="M173.832,143.697c3.939,0,7.143-3.203,7.143-7.143
			c0-3.941-3.203-7.172-7.143-7.172c-3.941,0-7.145,3.231-7.145,7.172C166.687,140.494,169.891,143.697,173.832,143.697
			L173.832,143.697z"/>
	</g>
</g>
<g id="Layer_1">
</g>
</svg>
