<?xml version="1.0" encoding="iso-8859-1"?>
<!-- Generator: Adobe Illustrator 29.5.1, SVG Export Plug-In . SVG Version: 9.03 Build 0)  -->
<svg version="1.1" xmlns="http://www.w3.org/2000/svg" xmlns:xlink="http://www.w3.org/1999/xlink" x="0px" y="0px"
	 viewBox="0 0 300 300" style="enable-background:new 0 0 300 300;" xml:space="preserve">
<g id="Eye_1">
	<g>
		<path style="fill-rule:evenodd;clip-rule:evenodd;fill:#FEFEFE;" d="M139.844,148.374c7.059,0,12.812-5.755,12.812-12.812
			c0-7.03-5.753-12.785-12.812-12.785c-7.03,0-12.784,5.755-12.784,12.785C127.06,142.619,132.814,148.374,139.844,148.374
			L139.844,148.374z"/>
		<path style="fill-rule:evenodd;clip-rule:evenodd;fill:#FEFEFE;" d="M170.939,148.374c7.031,0,12.785-5.755,12.785-12.812
			c0-7.03-5.754-12.785-12.785-12.785c-7.057,0-12.783,5.755-12.783,12.785C158.156,142.619,163.883,148.374,170.939,148.374
			L170.939,148.374z"/>
		<path style="fill-rule:evenodd;clip-rule:evenodd;fill:#231915;" d="M170.939,138.253c1.475,0,2.666-1.219,2.666-2.692
			c0-1.475-1.191-2.665-2.666-2.665c-1.473,0-2.691,1.191-2.691,2.665C168.248,137.035,169.467,138.253,170.939,138.253
			L170.939,138.253z"/>
		<path style="fill-rule:evenodd;clip-rule:evenodd;fill:#231915;" d="M139.844,138.253c1.474,0,2.692-1.219,2.692-2.692
			c0-1.475-1.219-2.665-2.692-2.665c-1.474,0-2.665,1.191-2.665,2.665C137.179,137.035,138.371,138.253,139.844,138.253
			L139.844,138.253z"/>
	</g>
</g>
<g id="Layer_1">
</g>
</svg>
