<?xml version="1.0" encoding="iso-8859-1"?>
<!-- Generator: Adobe Illustrator 29.5.1, SVG Export Plug-In . SVG Version: 9.03 Build 0)  -->
<svg version="1.1" xmlns="http://www.w3.org/2000/svg" xmlns:xlink="http://www.w3.org/1999/xlink" x="0px" y="0px"
	 viewBox="0 0 300 300" style="enable-background:new 0 0 300 300;" xml:space="preserve">
<g id="Eye_3">
	<g>
		<path style="fill-rule:evenodd;clip-rule:evenodd;fill:#FEFEFE;" d="M139.844,148.374c7.03,0,12.784-5.755,12.784-12.812
			c0-7.03-5.754-12.785-12.784-12.785c-7.059,0-12.784,5.755-12.784,12.785C127.06,142.619,132.785,148.374,139.844,148.374
			L139.844,148.374z"/>
		<path style="fill-rule:evenodd;clip-rule:evenodd;fill:#FEFEFE;" d="M170.911,148.374c7.059,0,12.814-5.755,12.814-12.812
			c0-7.03-5.755-12.785-12.814-12.785c-7.029,0-12.784,5.755-12.784,12.785C158.127,142.619,163.882,148.374,170.911,148.374
			L170.911,148.374z"/>
		<path style="fill-rule:evenodd;clip-rule:evenodd;fill:#231915;" d="M139.844,144.915c5.131,0,9.326-4.195,9.326-9.354
			c0-5.131-4.195-9.326-9.326-9.326c-5.159,0-9.326,4.195-9.326,9.326C130.518,140.719,134.685,144.915,139.844,144.915
			L139.844,144.915z"/>
		<path style="fill-rule:evenodd;clip-rule:evenodd;fill:#FEFEFE;" d="M135.195,135.901c2.239,0,4.082-1.843,4.082-4.11
			c0-2.239-1.843-4.082-4.082-4.082c-2.268,0-4.11,1.843-4.11,4.082C131.085,134.058,132.928,135.901,135.195,135.901
			L135.195,135.901z"/>
		<path style="fill-rule:evenodd;clip-rule:evenodd;fill:#FEFEFE;" d="M141.119,143.1c0.822,0,1.503-0.708,1.503-1.53
			c0-0.851-0.681-1.53-1.503-1.53c-0.851,0-1.53,0.68-1.53,1.53C139.589,142.392,140.269,143.1,141.119,143.1L141.119,143.1z"/>
		<path style="fill-rule:evenodd;clip-rule:evenodd;fill:#231915;" d="M170.911,144.915c5.159,0,9.354-4.195,9.354-9.354
			c0-5.131-4.195-9.326-9.354-9.326c-5.13,0-9.325,4.195-9.325,9.326C161.586,140.719,165.781,144.915,170.911,144.915
			L170.911,144.915z"/>
		<path style="fill-rule:evenodd;clip-rule:evenodd;fill:#FEFEFE;" d="M166.263,135.901c2.268,0,4.11-1.843,4.11-4.11
			c0-2.239-1.843-4.082-4.11-4.082c-2.239,0-4.082,1.843-4.082,4.082C162.181,134.058,164.023,135.901,166.263,135.901
			L166.263,135.901z"/>
		<path style="fill-rule:evenodd;clip-rule:evenodd;fill:#FEFEFE;" d="M172.187,143.1c0.85,0,1.53-0.708,1.53-1.53
			c0-0.851-0.681-1.53-1.53-1.53c-0.851,0-1.531,0.68-1.531,1.53C170.656,142.392,171.337,143.1,172.187,143.1L172.187,143.1z"/>
	</g>
</g>
<g id="Layer_1">
</g>
</svg>
