<?xml version="1.0" encoding="iso-8859-1"?>
<!-- Generator: Adobe Illustrator 29.5.1, SVG Export Plug-In . SVG Version: 9.03 Build 0)  -->
<svg version="1.1" xmlns="http://www.w3.org/2000/svg" xmlns:xlink="http://www.w3.org/1999/xlink" x="0px" y="0px"
	 viewBox="0 0 300 300" style="enable-background:new 0 0 300 300;" xml:space="preserve">
<g id="Eye_9">
	<g>
		<path style="fill-rule:evenodd;clip-rule:evenodd;fill:#FFFFFF;" d="M136.925,129.337c2.579,0,4.961,0.708,6.576,1.955
			c1.758,1.332,2.75,3.232,2.75,4.763c0,1.53-1.049,2.069-2.75,2.069c-4.422-0.057-8.759-0.057-13.182,0
			c-1.7,0-2.749-0.539-2.749-2.069c0-1.53,0.992-3.431,2.749-4.763C131.935,130.044,134.345,129.337,136.925,129.337
			L136.925,129.337z"/>
		<path style="fill-rule:evenodd;clip-rule:evenodd;fill:#FFFFFF;" d="M173.889,129.337c2.579,0,4.96,0.708,6.576,1.955
			c1.757,1.332,2.749,3.232,2.749,4.763c0,1.53-1.049,2.069-2.749,2.069c-4.422-0.057-8.759-0.057-13.181,0
			c-1.701,0-2.75-0.539-2.75-2.069c0-1.53,0.992-3.431,2.75-4.763C168.899,130.044,171.309,129.337,173.889,129.337L173.889,129.337
			z"/>
		<path style="fill-rule:evenodd;clip-rule:evenodd;" d="M136.925,137.216c1.814,0,3.316-1.503,3.316-3.316
			c0-1.843-1.502-3.316-3.316-3.316c-1.843,0-3.316,1.474-3.316,3.316C133.608,135.713,135.082,137.216,136.925,137.216
			L136.925,137.216z"/>
		<path style="fill-rule:evenodd;clip-rule:evenodd;" d="M173.889,137.216c1.813,0,3.316-1.503,3.316-3.316
			c0-1.843-1.503-3.316-3.316-3.316c-1.843,0-3.317,1.474-3.317,3.316C170.571,135.713,172.046,137.216,173.889,137.216
			L173.889,137.216z"/>
	</g>
</g>
<g id="Layer_1">
</g>
</svg>
