<?xml version="1.0" encoding="iso-8859-1"?>
<!-- Generator: Adobe Illustrator 29.5.1, SVG Export Plug-In . SVG Version: 9.03 Build 0)  -->
<svg version="1.1" xmlns="http://www.w3.org/2000/svg" xmlns:xlink="http://www.w3.org/1999/xlink" x="0px" y="0px"
	 viewBox="0 0 300 300" style="enable-background:new 0 0 300 300;" xml:space="preserve">
<g id="Eye_7">
	<g>
		<path style="fill-rule:evenodd;clip-rule:evenodd;fill:#231915;" d="M144.209,147.977c3.231,0,5.867-2.637,5.867-5.868
			c0-3.231-2.636-5.867-5.867-5.867c-3.232,0-5.868,2.636-5.868,5.867C138.341,145.34,140.977,147.977,144.209,147.977
			L144.209,147.977z"/>
		<path style="fill-rule:evenodd;clip-rule:evenodd;fill:#231915;" d="M167.793,148.374c3.232,0,5.867-2.637,5.867-5.867
			c0-3.232-2.635-5.868-5.867-5.868c-3.231,0-5.867,2.636-5.867,5.868C161.926,145.737,164.562,148.374,167.793,148.374
			L167.793,148.374z"/>
		<path style="fill-rule:evenodd;clip-rule:evenodd;fill:#231915;" d="M141.035,131.139c3.231,0,5.867-2.637,5.867-5.869
			c0-3.231-2.636-5.867-5.867-5.867c-3.231,0-5.868,2.636-5.868,5.867C135.166,128.503,137.803,131.139,141.035,131.139
			L141.035,131.139z"/>
		<path style="fill-rule:evenodd;clip-rule:evenodd;fill:#231915;" d="M129.922,142.62c3.231,0,5.868-2.637,5.868-5.868
			c0-3.231-2.637-5.868-5.868-5.868c-3.232,0-5.867,2.637-5.867,5.868C124.055,139.983,126.691,142.62,129.922,142.62
			L129.922,142.62z"/>
		<path style="fill-rule:evenodd;clip-rule:evenodd;fill:#231915;" d="M167.51,130.317c3.232,0,5.867-2.637,5.867-5.867
			c0-3.232-2.635-5.868-5.867-5.868c-3.232,0-5.867,2.636-5.867,5.868C161.643,127.68,164.277,130.317,167.51,130.317
			L167.51,130.317z"/>
		<path style="fill-rule:evenodd;clip-rule:evenodd;fill:#231915;" d="M180.861,141.173c3.23,0,5.867-2.636,5.867-5.867
			s-2.637-5.869-5.867-5.869c-3.232,0-5.867,2.637-5.867,5.869S177.629,141.173,180.861,141.173L180.861,141.173z"/>
		<path style="fill-rule:evenodd;clip-rule:evenodd;fill:#FEFEFE;" d="M132.218,135.759c1.02,0,1.843-0.822,1.843-1.843
			c0-0.992-0.822-1.813-1.843-1.813c-0.992,0-1.814,0.821-1.814,1.813C130.405,134.938,131.226,135.759,132.218,135.759
			L132.218,135.759z"/>
		<path style="fill-rule:evenodd;clip-rule:evenodd;fill:#FEFEFE;" d="M143.529,124.875c0.992,0,1.814-0.822,1.814-1.815
			c0-1.021-0.822-1.843-1.814-1.843c-1.021,0-1.843,0.822-1.843,1.843C141.686,124.052,142.508,124.875,143.529,124.875
			L143.529,124.875z"/>
		<path style="fill-rule:evenodd;clip-rule:evenodd;fill:#FEFEFE;" d="M147.554,142.648c1.021,0,1.843-0.822,1.843-1.843
			c0-0.993-0.822-1.814-1.843-1.814c-0.992,0-1.814,0.822-1.814,1.814C145.74,141.826,146.562,142.648,147.554,142.648
			L147.554,142.648z"/>
		<path style="fill-rule:evenodd;clip-rule:evenodd;fill:#FEFEFE;" d="M169.637,123.826c0.99,0,1.812-0.822,1.812-1.814
			c0-1.021-0.822-1.843-1.812-1.843c-1.021,0-1.844,0.822-1.844,1.843C167.793,123.004,168.615,123.826,169.637,123.826
			L169.637,123.826z"/>
		<path style="fill-rule:evenodd;clip-rule:evenodd;fill:#FEFEFE;" d="M182.959,134.541c0.992,0,1.814-0.822,1.814-1.814
			c0-1.021-0.822-1.843-1.814-1.843c-1.022,0-1.844,0.822-1.844,1.843C181.115,133.718,181.937,134.541,182.959,134.541
			L182.959,134.541z"/>
		<path style="fill-rule:evenodd;clip-rule:evenodd;fill:#FEFEFE;" d="M170.4,142.166c1.021,0,1.844-0.821,1.844-1.843
			c0-0.992-0.822-1.814-1.844-1.814c-0.992,0-1.812,0.821-1.812,1.814C168.588,141.344,169.408,142.166,170.4,142.166L170.4,142.166
			z"/>
	</g>
</g>
<g id="Layer_1">
</g>
</svg>
