<?xml version="1.0" encoding="iso-8859-1"?>
<!-- Generator: Adobe Illustrator 29.5.1, SVG Export Plug-In . SVG Version: 9.03 Build 0)  -->
<svg version="1.1" xmlns="http://www.w3.org/2000/svg" xmlns:xlink="http://www.w3.org/1999/xlink" x="0px" y="0px"
	 viewBox="0 0 300 300" style="enable-background:new 0 0 300 300;" xml:space="preserve">
<g id="Eye_4">
	<g>
		<path style="fill-rule:evenodd;clip-rule:evenodd;fill:#FEFEFE;" d="M139.858,148.374c7.029,0,12.784-5.755,12.784-12.812
			c0-7.03-5.755-12.785-12.784-12.785c-7.059,0-12.812,5.755-12.812,12.785C127.046,142.619,132.8,148.374,139.858,148.374
			L139.858,148.374z"/>
		<path style="fill-rule:evenodd;clip-rule:evenodd;fill:#FEFEFE;" d="M170.926,148.374c7.059,0,12.812-5.755,12.812-12.812
			c0-7.03-5.754-12.785-12.812-12.785c-7.03,0-12.784,5.755-12.784,12.785C158.142,142.619,163.895,148.374,170.926,148.374
			L170.926,148.374z"/>
		<path style="fill-rule:evenodd;clip-rule:evenodd;fill:#231915;" d="M178.522,137.743c1.475,0,2.665-1.219,2.665-2.692
			c0-1.474-1.19-2.665-2.665-2.665c-1.474,0-2.692,1.191-2.692,2.665C175.83,136.524,177.049,137.743,178.522,137.743
			L178.522,137.743z"/>
		<path style="fill-rule:evenodd;clip-rule:evenodd;fill:#231915;" d="M135.407,134.2c1.475,0,2.693-1.191,2.693-2.664
			c0-1.475-1.219-2.665-2.693-2.665c-1.474,0-2.664,1.19-2.664,2.665C132.743,133.009,133.934,134.2,135.407,134.2L135.407,134.2z"
			/>
	</g>
</g>
<g id="Layer_1">
</g>
</svg>
