<?xml version="1.0" encoding="iso-8859-1"?>
<!-- Generator: Adobe Illustrator 29.5.1, SVG Export Plug-In . SVG Version: 9.03 Build 0)  -->
<svg version="1.1" xmlns="http://www.w3.org/2000/svg" xmlns:xlink="http://www.w3.org/1999/xlink" x="0px" y="0px"
	 viewBox="0 0 300 300" style="enable-background:new 0 0 300 300;" xml:space="preserve">
<g id="Eye_11">
	<g>
		<path style="fill-rule:evenodd;clip-rule:evenodd;fill:#CCCCCC;" d="M139.843,148.374c7.058,0,12.812-5.754,12.812-12.812
			c0-7.029-5.755-12.784-12.812-12.784c-7.03,0-12.784,5.755-12.784,12.784C127.059,142.62,132.812,148.374,139.843,148.374
			L139.843,148.374z"/>
		<path style="fill-rule:evenodd;clip-rule:evenodd;fill:#B2B2B2;" d="M139.843,146.786c6.179,0,11.225-5.045,11.225-11.225
			c0-6.151-5.046-11.197-11.225-11.197c-6.151,0-11.197,5.046-11.197,11.197C128.645,141.741,133.691,146.786,139.843,146.786
			L139.843,146.786z"/>
		<path style="fill-rule:evenodd;clip-rule:evenodd;fill:#CCCCCC;" d="M139.36,145.142c5.272,0,9.581-4.309,9.581-9.581
			c0-5.244-4.309-9.553-9.581-9.553c-5.272,0-9.553,4.309-9.553,9.553C129.808,140.833,134.088,145.142,139.36,145.142
			L139.36,145.142z"/>
		<path style="fill-rule:evenodd;clip-rule:evenodd;fill:#B2B2B2;" d="M138.652,143.583c4.422,0,8.021-3.6,8.021-8.021
			c0-4.394-3.6-7.994-8.021-7.994c-4.395,0-7.994,3.601-7.994,7.994C130.658,139.983,134.258,143.583,138.652,143.583
			L138.652,143.583z"/>
		<path style="fill-rule:evenodd;clip-rule:evenodd;fill:#CCCCCC;" d="M137.461,141.088c3.033,0,5.5-2.494,5.5-5.527
			s-2.467-5.499-5.5-5.499c-3.032,0-5.499,2.466-5.499,5.499S134.429,141.088,137.461,141.088L137.461,141.088z"/>
		<path style="fill-rule:evenodd;clip-rule:evenodd;fill:#B2B2B2;" d="M136.81,139.417c2.126,0,3.855-1.729,3.855-3.855
			c0-2.098-1.729-3.826-3.855-3.826c-2.098,0-3.827,1.729-3.827,3.826C132.982,137.687,134.712,139.417,136.81,139.417
			L136.81,139.417z"/>
		<path style="fill-rule:evenodd;clip-rule:evenodd;fill:#231915;" d="M136.072,138.254c1.475,0,2.665-1.219,2.665-2.693
			c0-1.474-1.19-2.665-2.665-2.665c-1.474,0-2.692,1.191-2.692,2.665C133.38,137.036,134.599,138.254,136.072,138.254
			L136.072,138.254z"/>
		<path style="fill-rule:evenodd;clip-rule:evenodd;fill:#CCCCCC;" d="M164.532,124.506c-6.123,3.514-8.221,11.338-4.677,17.461
			c3.543,6.123,11.366,8.22,17.489,4.678c6.095-3.516,8.192-11.339,4.677-17.462C178.478,123.06,170.655,120.962,164.532,124.506
			L164.532,124.506z"/>
		<path style="fill-rule:evenodd;clip-rule:evenodd;fill:#B2B2B2;" d="M165.326,125.867c-5.357,3.09-7.172,9.949-4.082,15.307
			c3.09,5.358,9.949,7.2,15.307,4.11c5.357-3.09,7.172-9.949,4.082-15.307C177.543,124.62,170.684,122.777,165.326,125.867
			L165.326,125.867z"/>
		<path style="fill-rule:evenodd;clip-rule:evenodd;fill:#CCCCCC;" d="M166.573,127.057c-4.563,2.637-6.151,8.476-3.515,13.067
			c2.664,4.564,8.504,6.123,13.096,3.487c4.564-2.637,6.123-8.477,3.486-13.068C177.005,125.979,171.137,124.393,166.573,127.057
			L166.573,127.057z"/>
		<path style="fill-rule:evenodd;clip-rule:evenodd;fill:#B2B2B2;" d="M167.962,128.049c-3.826,2.211-5.131,7.086-2.919,10.941
			c2.211,3.827,7.114,5.131,10.941,2.92c3.826-2.211,5.131-7.115,2.92-10.941C176.693,127.142,171.789,125.838,167.962,128.049
			L167.962,128.049z"/>
		<path style="fill-rule:evenodd;clip-rule:evenodd;fill:#CCCCCC;" d="M170.258,129.608c-2.636,1.531-3.543,4.904-2.012,7.512
			c1.502,2.637,4.875,3.544,7.512,2.041c2.636-1.53,3.543-4.903,2.012-7.54C176.268,128.985,172.894,128.078,170.258,129.608
			L170.258,129.608z"/>
		<path style="fill-rule:evenodd;clip-rule:evenodd;fill:#B2B2B2;" d="M171.647,130.743c-1.843,1.049-2.467,3.401-1.418,5.244
			c1.077,1.813,3.431,2.466,5.244,1.389c1.843-1.049,2.467-3.402,1.418-5.244C175.843,130.289,173.49,129.665,171.647,130.743
			L171.647,130.743z"/>
		<path style="fill-rule:evenodd;clip-rule:evenodd;fill:#231915;" d="M172.894,131.366c-1.304,0.737-1.729,2.381-0.992,3.656
			c0.737,1.276,2.381,1.701,3.656,0.965c1.276-0.737,1.729-2.354,0.992-3.657C175.814,131.054,174.17,130.628,172.894,131.366
			L172.894,131.366z"/>
	</g>
</g>
<g id="Layer_1">
</g>
</svg>
