<?xml version="1.0" encoding="iso-8859-1"?>
<!-- Generator: Adobe Illustrator 29.5.1, SVG Export Plug-In . SVG Version: 9.03 Build 0)  -->
<svg version="1.1" xmlns="http://www.w3.org/2000/svg" xmlns:xlink="http://www.w3.org/1999/xlink" x="0px" y="0px"
	 viewBox="0 0 300 300" style="enable-background:new 0 0 300 300;" xml:space="preserve">
<g id="Eye_2">
	<g>
		<path style="fill-rule:evenodd;clip-rule:evenodd;fill:#FEFEFE;" d="M170.939,148.374c7.031,0,12.785-2.438,12.785-5.441
			c0-2.977-5.754-5.415-12.785-5.415c-7.057,0-12.783,2.438-12.783,5.415C158.156,145.936,163.883,148.374,170.939,148.374
			L170.939,148.374z"/>
		<path style="fill-rule:evenodd;clip-rule:evenodd;fill:#FEFEFE;" d="M139.844,148.374c7.059,0,12.812-2.438,12.812-5.441
			c0-2.977-5.753-5.415-12.812-5.415c-7.03,0-12.784,2.438-12.784,5.415C127.06,145.936,132.814,148.374,139.844,148.374
			L139.844,148.374z"/>
		<path style="fill-rule:evenodd;clip-rule:evenodd;fill:#231915;" d="M174.738,145.625c1.502,0,2.693-1.219,2.693-2.692
			c0-1.475-1.191-2.665-2.693-2.665c-1.475,0-2.664,1.19-2.664,2.665C172.074,144.406,173.264,145.625,174.738,145.625
			L174.738,145.625z"/>
		<path style="fill-rule:evenodd;clip-rule:evenodd;fill:#231915;" d="M136.045,145.625c1.475,0,2.665-1.219,2.665-2.692
			c0-1.475-1.19-2.665-2.665-2.665c-1.474,0-2.692,1.19-2.692,2.665C133.353,144.406,134.572,145.625,136.045,145.625
			L136.045,145.625z"/>
	</g>
</g>
<g id="Layer_1">
</g>
</svg>
