<?xml version="1.0" encoding="iso-8859-1"?>
<!-- Generator: Adobe Illustrator 29.5.1, SVG Export Plug-In . SVG Version: 9.03 Build 0)  -->
<svg version="1.1" xmlns="http://www.w3.org/2000/svg" xmlns:xlink="http://www.w3.org/1999/xlink" x="0px" y="0px"
	 viewBox="0 0 300 300" style="enable-background:new 0 0 300 300;" xml:space="preserve">
<g id="Hand_5">
	<g>
		<path style="fill-rule:evenodd;clip-rule:evenodd;fill:#1C82AF;" d="M124.62,174.152c0.396-0.539,2.211-0.34,2.919,1.36
			c2.154,5.046,4.423,7.966,9.015,10.233c0.34-0.822,1.815-1.814,2.607-2.041c2.778-0.879,3.288,1.134,1.22,2.494
			c-0.284,0.198-1.305,0.511-2.069,0.794c0.17,0.283,0.255,0.539,0.283,0.822c1.672,0.566,3.826,1.559,3.826,3.146
			c0,1.275-3.175-0.398-4.507-1.332l-0.057,0.057c0.851,1.049,1.503,3.287,0.227,3.996c-0.992,0.567-1.729-1.928-2.239-3.061
			c-0.113,0-0.255,0-0.396,0c-0.283,0.878-0.907,2.381-1.446,1.672c-0.368-0.51-0.368-1.332-0.255-2.069
			C128.475,187.957,122.238,177.271,124.62,174.152L124.62,174.152z"/>
		<path style="fill-rule:evenodd;clip-rule:evenodd;fill:#1C82AF;" d="M184.714,174.152c-0.396-0.539-2.211-0.34-2.919,1.36
			c-2.154,5.046-4.423,7.966-9.015,10.233c-0.34-0.822-1.814-1.814-2.607-2.041c-2.778-0.879-3.288,1.134-1.22,2.494
			c0.284,0.198,1.305,0.511,2.069,0.794c-0.17,0.283-0.255,0.539-0.283,0.822c-1.672,0.566-3.826,1.559-3.826,3.146
			c0,1.275,3.175-0.398,4.507-1.332l0.057,0.057c-0.851,1.049-1.503,3.287-0.227,3.996c0.992,0.567,1.728-1.928,2.239-3.061
			c0.113,0,0.255,0,0.396,0c0.283,0.878,0.907,2.381,1.446,1.672c0.368-0.51,0.368-1.332,0.255-2.069
			C180.859,187.957,187.096,177.271,184.714,174.152L184.714,174.152z"/>
	</g>
</g>
<g id="Layer_1">
</g>
</svg>
