<?xml version="1.0" encoding="iso-8859-1"?>
<!-- Generator: Adobe Illustrator 29.5.1, SVG Export Plug-In . SVG Version: 9.03 Build 0)  -->
<svg version="1.1" xmlns="http://www.w3.org/2000/svg" xmlns:xlink="http://www.w3.org/1999/xlink" x="0px" y="0px"
	 viewBox="0 0 300 300" style="enable-background:new 0 0 300 300;" xml:space="preserve">
<g id="Hand_6">
	<g>
		<path style="fill:#1C82AF;" d="M124.859,173.838c1.87,0.113,3.175,0.425,3.062,2.296c-0.114,1.871-1.503,1.928-3.374,1.814
			c-5.584-0.341-10.402-0.851-14.145-3.827c-4.025-3.231-6.974-7.682-8.872-12.812c-2.269-6.151,4.592-13.578,9.468-2.041
			C113.152,165.05,118.027,173.412,124.859,173.838L124.859,173.838z"/>
		<path style="fill:#1C82AF;" d="M185.974,173.838c-1.87,0.113-3.175,0.425-3.061,2.296c0.114,1.871,1.531,1.928,3.402,1.814
			c5.556-0.341,10.375-0.851,14.116-3.827c4.054-3.231,6.974-7.682,8.9-12.812c2.268-6.151-4.62-13.578-9.468-2.041
			C197.681,165.05,192.806,173.412,185.974,173.838L185.974,173.838z"/>
	</g>
</g>
<g id="Layer_1">
</g>
</svg>
