<?xml version="1.0" encoding="iso-8859-1"?>
<!-- Generator: Adobe Illustrator 29.5.1, SVG Export Plug-In . SVG Version: 9.03 Build 0)  -->
<svg version="1.1" xmlns="http://www.w3.org/2000/svg" xmlns:xlink="http://www.w3.org/1999/xlink" x="0px" y="0px"
	 viewBox="0 0 300 300" style="enable-background:new 0 0 300 300;" xml:space="preserve">
<g id="Hand_10">
	<g>
		<path style="fill-rule:evenodd;clip-rule:evenodd;fill:#1C82AF;" d="M127.864,180.387c1.843,0,3.487,2.522,4.763,6.576
			c1.304,4.082,2.353,9.694,2.749,15.874c0.538,6.208,0.228,11.849-1.049,15.902c-1.275,4.082-3.685,6.576-6.463,6.576
			c-2.778,0-5.159-2.494-6.463-6.576c-1.275-4.054-1.56-9.694-1.049-15.902c0.425-6.18,1.474-11.792,2.749-15.874
			C124.406,182.909,126.021,180.387,127.864,180.387L127.864,180.387z"/>
		<path style="fill-rule:evenodd;clip-rule:evenodd;fill:#1C82AF;" d="M180.899,180.387c1.843,0,3.459,2.522,4.762,6.576
			c1.276,4.082,2.354,9.694,2.75,15.874c0.539,6.208,0.227,11.849-1.049,15.902c-1.304,4.082-3.685,6.576-6.463,6.576
			c-2.777,0-5.188-2.494-6.463-6.576c-1.275-4.054-1.588-9.694-1.049-15.902c0.396-6.18,1.445-11.792,2.75-15.874
			C177.413,182.909,179.058,180.387,180.899,180.387L180.899,180.387z"/>
	</g>
</g>
<g id="Layer_1">
</g>
</svg>
