<?xml version="1.0" encoding="iso-8859-1"?>
<!-- Generator: Adobe Illustrator 29.5.1, SVG Export Plug-In . SVG Version: 9.03 Build 0)  -->
<svg version="1.1" xmlns="http://www.w3.org/2000/svg" xmlns:xlink="http://www.w3.org/1999/xlink" x="0px" y="0px"
	 viewBox="0 0 300 300" style="enable-background:new 0 0 300 300;" xml:space="preserve">
<g id="Hand_4">
	<g>
		<path style="fill:#1C82AF;" d="M128.043,168.681c1.673,0.907,0.822,2.296-0.085,3.968c-2.777,5.16-2.947,10.801-2.438,14.967
			c0.453,3.771,2.92,5.67,8.334,8.137c20.863,8.93,7.738,26.164-1.134,22.562c-1.475-1.189-1.73-3.344-0.539-4.818
			c11.65-14.484-12.982-5.158-15.25-23.641C116.421,185.689,123.536,166.271,128.043,168.681L128.043,168.681z"/>
		<path style="fill:#9ED8F6;" d="M131.587,214.574c0.142-0.369,0.34-0.738,0.595-1.078c11.367-14.145-11.764-5.611-15.052-22.336
			C123.196,204.682,150.522,200.287,131.587,214.574L131.587,214.574z"/>
		<path style="fill:#1C82AF;" d="M183.433,168.681c-1.673,0.907-0.794,2.296,0.085,3.968c2.806,5.16,2.948,10.801,2.438,14.967
			c-0.453,3.771-2.92,5.67-8.306,8.137c-20.891,8.93-7.738,26.164,1.134,22.562c1.475-1.189,1.701-3.344,0.511-4.818
			c-11.65-14.484,12.982-5.158,15.25-23.641C195.083,185.689,187.939,166.271,183.433,168.681L183.433,168.681z"/>
		<path style="fill:#9ED8F6;" d="M179.889,214.574c-0.113-0.369-0.312-0.738-0.595-1.078c-11.367-14.145,11.792-5.611,15.052-22.336
			C188.308,204.682,160.981,200.287,179.889,214.574L179.889,214.574z"/>
	</g>
</g>
<g id="Layer_1">
</g>
</svg>
