<?xml version="1.0" encoding="iso-8859-1"?>
<!-- Generator: Adobe Illustrator 29.5.1, SVG Export Plug-In . SVG Version: 9.03 Build 0)  -->
<svg version="1.1" xmlns="http://www.w3.org/2000/svg" xmlns:xlink="http://www.w3.org/1999/xlink" x="0px" y="0px"
	 viewBox="0 0 300 300" style="enable-background:new 0 0 300 300;" xml:space="preserve">
<g id="Hand_2">
	<g>
		<path style="fill:#1C82AF;" d="M116.374,208.825c0.199,0.907-0.368,1.814-1.275,2.013c-0.907,0.227-1.814-0.369-2.013-1.275
			l-0.68-3.005l-0.709,2.778c-0.227,0.906-1.162,1.474-2.069,1.246c-0.907-0.227-1.445-1.162-1.219-2.068l2.438-9.666l0,0
			l0.028-0.086v-0.027l0,0v-0.029h0.028c1.475-4.393,3.486-8.759,6.463-13.011c3.005-4.28,6.974-8.447,12.388-12.473
			c0.766-0.566,1.814-0.396,2.381,0.369c0.567,0.737,0.397,1.813-0.34,2.353c-5.103,3.799-8.844,7.71-11.65,11.707
			c-2.409,3.43-4.139,6.973-5.471,10.517l5.414,1.644c0.907,0.284,1.417,1.219,1.134,2.127c-0.255,0.878-1.219,1.389-2.098,1.133
			l-4.337-1.332L116.374,208.825z"/>
		<path style="fill:#1C82AF;" d="M195.291,208.825c-0.227,0.907,0.368,1.814,1.275,2.013c0.907,0.227,1.814-0.369,2.013-1.275
			l0.681-3.005l0.708,2.778c0.227,0.906,1.162,1.474,2.069,1.246c0.907-0.227,1.446-1.162,1.219-2.068l-2.438-9.666l0,0
			l-0.028-0.086v-0.027l0,0l-0.028-0.029l0,0c-1.474-4.393-3.486-8.759-6.463-13.011c-3.005-4.28-6.974-8.447-12.388-12.473
			c-0.765-0.566-1.813-0.396-2.381,0.369c-0.566,0.737-0.396,1.813,0.34,2.353c5.103,3.799,8.845,7.71,11.65,11.707
			c2.41,3.43,4.139,6.973,5.471,10.517l-5.414,1.644c-0.906,0.284-1.417,1.219-1.134,2.127c0.256,0.878,1.22,1.389,2.098,1.133
			l4.337-1.332L195.291,208.825z"/>
	</g>
</g>
<g id="Layer_1">
</g>
</svg>
