<?xml version="1.0" encoding="iso-8859-1"?>
<!-- Generator: Adobe Illustrator 29.5.1, SVG Export Plug-In . SVG Version: 9.03 Build 0)  -->
<svg version="1.1" xmlns="http://www.w3.org/2000/svg" xmlns:xlink="http://www.w3.org/1999/xlink" x="0px" y="0px"
	 viewBox="0 0 300 300" style="enable-background:new 0 0 300 300;" xml:space="preserve">
<g id="Hand_8">
	<g>
		<path style="fill-rule:evenodd;clip-rule:evenodd;fill:#1C82AF;" d="M122.304,176.347c1.304-2.807-1.984-9.213-7.852-15.081
			c-6.378-6.406-13.437-9.693-15.732-7.398c-1.304,1.305-0.822,4.168,1.049,7.541c-1.021,0.142-1.729,0.538-2.126,1.19
			c-0.879,1.559,0.538,4.195,3.43,6.916c-0.624,0.312-1.021,0.737-1.162,1.248c-0.596,2.239,3.912,5.385,10.062,7.029
			c6.18,1.645,11.65,1.19,12.246-1.049c0.028-0.085,0.028-0.198,0.057-0.311L122.304,176.347z"/>
		<path style="fill-rule:evenodd;clip-rule:evenodd;fill:#1C82AF;" d="M183.985,176.347c-1.304-2.807,1.984-9.213,7.853-15.081
			c6.378-6.406,13.436-9.693,15.732-7.398c1.304,1.305,0.793,4.168-1.049,7.541c0.992,0.142,1.729,0.538,2.098,1.19
			c0.906,1.559-0.511,4.195-3.402,6.916c0.624,0.312,1.021,0.737,1.162,1.248c0.596,2.239-3.911,5.385-10.062,7.029
			c-6.18,1.645-11.65,1.19-12.246-1.049c-0.028-0.085-0.057-0.198-0.057-0.311L183.985,176.347z"/>
	</g>
</g>
<g id="Layer_1">
</g>
</svg>
