<?xml version="1.0" encoding="iso-8859-1"?>
<!-- Generator: Adobe Illustrator 29.5.1, SVG Export Plug-In . SVG Version: 9.03 Build 0)  -->
<svg version="1.1" xmlns="http://www.w3.org/2000/svg" xmlns:xlink="http://www.w3.org/1999/xlink" x="0px" y="0px"
	 viewBox="0 0 300 300" style="enable-background:new 0 0 300 300;" xml:space="preserve">
<g id="Hand_13">
	<g>
		<path style="fill:#1C82AF;" d="M125.219,178.132c1.446-1.162,3.571-0.964,4.763,0.511c1.162,1.445,0.963,3.571-0.511,4.762
			c-2.722,2.211-4.819,5.046-6.18,8.476c-1.02,2.607-1.673,5.557-1.899,8.93c5.584,0.368,2.807-2.382,7.314-2.382
			c2.154,0,3.713,1.758,3.883,3.884c0.426,5.727-8.957,2.948-4.082,8.447c1.418,1.588,3.884,1.729,3.884,3.884
			c0,2.126-1.758,3.883-3.884,3.883c-3.656,0-5.612-7.597-5.612-0.964c0,2.127-0.992,3.884-3.147,3.884
			c-2.154,0-4.479-1.814-3.884-3.884c1.645-5.924-0.766-3.939-3.6-2.834c-1.984,0.766-3.884-1.73-3.884-3.884
			s1.758-3.884,3.884-3.884c2.154,0,1.105-0.708,2.268-2.607c-0.057-5.697,0.766-10.686,2.467-14.967
			C118.813,184.851,121.562,181.108,125.219,178.132L125.219,178.132z"/>
		<path style="fill:#1C82AF;" d="M184.718,178.132c-1.445-1.162-3.572-0.964-4.762,0.511c-1.191,1.445-0.965,3.571,0.482,4.762
			c2.748,2.211,4.818,5.046,6.178,8.476c1.049,2.607,1.674,5.557,1.928,8.93c-5.611,0.368-2.805-2.382-7.312-2.382
			c-2.154,0-3.742,1.758-3.883,3.884c-0.455,5.727,8.928,2.948,4.082,8.447c-1.418,1.588-3.885,1.729-3.885,3.884
			c0,2.126,1.758,3.883,3.885,3.883c3.627,0,5.611-7.597,5.611-0.964c0,2.127,0.992,3.884,3.146,3.884
			c2.127,0,4.451-1.814,3.885-3.884c-1.674-5.924,0.764-3.939,3.57-2.834c2.014,0.766,3.885-1.73,3.885-3.884
			s-1.73-3.884-3.885-3.884c-2.125,0-1.076-0.708-2.238-2.607c0.057-5.697-0.795-10.686-2.467-14.967
			C191.124,184.851,188.374,181.108,184.718,178.132L184.718,178.132z"/>
	</g>
</g>
<g id="Layer_1">
</g>
</svg>
