<?xml version="1.0" encoding="iso-8859-1"?>
<!-- Generator: Adobe Illustrator 29.5.1, SVG Export Plug-In . SVG Version: 9.03 Build 0)  -->
<svg version="1.1" xmlns="http://www.w3.org/2000/svg" xmlns:xlink="http://www.w3.org/1999/xlink" x="0px" y="0px"
	 viewBox="0 0 300 300" style="enable-background:new 0 0 300 300;" xml:space="preserve">
<g id="Hand_14">
	<g>
		<path style="fill-rule:evenodd;clip-rule:evenodd;fill:#E5E5E5;" d="M96.401,220.957c0.426-0.736,3.486,0.17,6.859,2.041
			c3.402,1.871,5.783,3.997,5.358,4.734c-0.397,0.766-3.487-0.143-6.86-2.013C98.385,223.849,95.976,221.723,96.401,220.957
			L96.401,220.957z M97.251,212.34c-0.651,0.596,0.907,3.373,3.515,6.265c2.58,2.863,5.188,4.733,5.812,4.139
			c0.651-0.567-0.907-3.345-3.515-6.236C100.483,213.644,97.875,211.773,97.251,212.34L97.251,212.34z M102.893,207.578
			c-0.709,0.481,0.51,3.458,2.721,6.604c2.211,3.175,4.592,5.329,5.301,4.847c0.709-0.51-0.51-3.486-2.75-6.633
			C105.954,209.222,103.573,207.067,102.893,207.578L102.893,207.578z"/>
		<path style="fill-rule:evenodd;clip-rule:evenodd;fill:#1C82AF;" d="M123.387,173.052c4.082,14.003,15.25,62.759-7.682,62.759
			c-7.484,0-13.578-6.066-13.578-13.549c0-15.194,12.699-11.991,14.229-20.892C118.879,186.715,120.665,163.697,123.387,173.052
			L123.387,173.052z"/>
		<path style="fill-rule:evenodd;clip-rule:evenodd;fill:#E5E5E5;" d="M159.33,220.957c0.426-0.736,3.516,0.17,6.889,2.041
			c3.373,1.871,5.781,3.997,5.357,4.734c-0.426,0.766-3.486-0.143-6.859-2.013C161.314,223.849,158.934,221.723,159.33,220.957
			L159.33,220.957z M160.18,212.34c-0.623,0.596,0.936,3.373,3.516,6.265c2.58,2.863,5.188,4.733,5.84,4.139
			c0.652-0.567-0.936-3.345-3.516-6.236C163.439,213.644,160.832,211.773,160.18,212.34L160.18,212.34z M165.822,207.578
			c-0.709,0.481,0.51,3.458,2.748,6.604c2.211,3.175,4.592,5.329,5.273,4.847c0.709-0.51-0.51-3.486-2.721-6.633
			C168.91,209.222,166.529,207.067,165.822,207.578L165.822,207.578z"/>
		<path style="fill-rule:evenodd;clip-rule:evenodd;fill:#1C82AF;" d="M186.344,173.052c4.082,14.003,15.223,62.759-7.709,62.759
			c-7.484,0-13.551-6.066-13.551-13.549c0-15.194,12.699-11.991,14.23-20.892C181.809,186.715,183.623,163.697,186.344,173.052
			L186.344,173.052z"/>
	</g>
</g>
<g id="Layer_1">
</g>
</svg>
