<?xml version="1.0" encoding="iso-8859-1"?>
<!-- Generator: Adobe Illustrator 29.5.1, SVG Export Plug-In . SVG Version: 9.03 Build 0)  -->
<svg version="1.1" xmlns="http://www.w3.org/2000/svg" xmlns:xlink="http://www.w3.org/1999/xlink" x="0px" y="0px"
	 viewBox="0 0 300 300" style="enable-background:new 0 0 300 300;" xml:space="preserve">
<g id="Hand_3">
	<g>
		<path style="fill:#1C82AF;" d="M110.953,174.234c-0.453-0.596-0.794-1.248-0.936-1.928c-0.227-0.936-0.142-1.898,0.283-2.807
			c0.029-0.027,0.057-0.057,0.086-0.113c0.34-0.68,0.935-1.303,1.729-1.758c2.92-1.699,6.576-1.559,9.893-1.445
			c0.681,0,1.361,0.029,2.212,0.029c0.964,0,1.7,0.766,1.7,1.7c0,0.936-0.736,1.7-1.7,1.7c-3.062-0.85-18.709-1.076-9.894,3.09
			c3.373-0.254,6.406,3.912,7.2,15.875c0,0.936-0.766,1.701-1.7,1.701c-0.936,0-1.701-0.766-1.701-1.701
			c0-1.984,0.822-4.422,0.311-6.719c-3.373-10.941-9.099,2.24-4.082,4.904c0.794,0.51,0.992,1.559,0.482,2.354
			c-0.539,0.764-1.588,0.992-2.353,0.453c-2.269-3.203-2.07-5.697-1.814-8.957c-2.807,3.77-3.884,6.773,0.34,10.459
			c0.426,0.822,0.085,1.842-0.737,2.268c-0.85,0.426-1.87,0.086-2.296-0.766c-0.992-2.012-1.644-6.604-0.766-9.184
			c-0.878,1.389-1.672,5.471-0.595,7.256c0.227,0.908-0.312,1.844-1.219,2.07c-0.907,0.227-1.843-0.312-2.069-1.219
			C103.555,184.865,107.041,177.41,110.953,174.234L110.953,174.234z"/>
		<path style="fill:#1C82AF;" d="M199.848,174.234c0.453-0.596,0.766-1.248,0.936-1.928c0.198-0.936,0.142-1.898-0.283-2.807
			c-0.028-0.027-0.057-0.057-0.086-0.113c-0.368-0.68-0.935-1.303-1.757-1.758c-2.892-1.699-6.548-1.559-9.864-1.445
			c-0.681,0-1.361,0.029-2.24,0.029c-0.935,0-1.7,0.766-1.7,1.7c0,0.936,0.766,1.7,1.7,1.7c3.062-0.85,18.737-1.076,9.922,3.09
			c-3.373-0.254-6.406,3.912-7.2,15.875c0,0.936,0.766,1.701,1.701,1.701c0.935,0,1.7-0.766,1.7-1.701
			c0-1.984-0.85-4.422-0.34-6.719c3.401-10.941,9.127,2.24,4.11,4.904c-0.794,0.51-0.992,1.559-0.482,2.354
			c0.539,0.764,1.588,0.992,2.354,0.453c2.268-3.203,2.069-5.697,1.785-8.957c2.835,3.77,3.912,6.773-0.311,10.459
			c-0.425,0.822-0.085,1.842,0.737,2.268c0.851,0.426,1.87,0.086,2.268-0.766c1.021-2.012,1.672-6.604,0.794-9.184
			c0.878,1.389,1.672,5.471,0.595,7.256c-0.227,0.908,0.311,1.844,1.219,2.07c0.907,0.227,1.843-0.312,2.069-1.219
			C207.246,184.865,203.76,177.41,199.848,174.234L199.848,174.234z"/>
	</g>
</g>
<g id="Layer_1">
</g>
</svg>
