<?xml version="1.0" encoding="iso-8859-1"?>
<!-- Generator: Adobe Illustrator 29.5.1, SVG Export Plug-In . SVG Version: 9.03 Build 0)  -->
<svg version="1.1" xmlns="http://www.w3.org/2000/svg" xmlns:xlink="http://www.w3.org/1999/xlink" x="0px" y="0px"
	 viewBox="0 0 300 300" style="enable-background:new 0 0 300 300;" xml:space="preserve">
<g id="Hand_1">
	<g>
		<path style="fill:#1C82AF;" d="M113.229,221.666c0.397-0.851,1.389-1.219,2.238-0.822c0.852,0.369,1.219,1.389,0.852,2.239
			c-0.227,0.454,2.068,2.608,3.996,4.224c-0.227-0.736-0.51-1.502-0.793-2.239c-0.822-2.296-1.561-4.309-0.709-5.442
			c0.566-0.737,1.615-0.907,2.381-0.34c0.736,0.566,0.906,1.615,0.34,2.381c-0.17,0.226,1.021,3.401,2.041,4.62l0.057-0.227
			c0.992-3.741,1.135-9.298,1.135-10.517l0.396-43.483c0-0.936,0.766-1.673,1.701-1.673c0.936,0,1.672,0.766,1.672,1.701
			l-0.396,43.483c0,1.304-0.143,7.257-1.219,11.367c-1.162,4.394-4.537,6.661-9.043,5.669c-1.275-0.283-2.607-0.793-3.686-1.389
			h-0.027l0,0c-1.191-0.624-2.184-1.389-2.75-2.126c-0.029-0.057-0.057-0.085-0.057-0.142c-0.566-0.766-0.738-1.616-0.396-2.467
			c0.367-0.85,1.332-1.275,2.211-0.936c0.68,0.284,1.076,0.936,1.076,1.616c0.283,0.311,0.822,0.709,1.531,1.049v0.028
			c0.34,0.17,0.68,0.34,1.076,0.482C114.476,226.457,112.407,223.451,113.229,221.666L113.229,221.666z"/>
		<path style="fill:#1C82AF;" d="M170.433,221.666c0.396-0.851,1.389-1.219,2.238-0.822c0.852,0.369,1.219,1.389,0.852,2.239
			c-0.227,0.454,2.068,2.608,3.996,4.224c-0.227-0.736-0.51-1.502-0.793-2.239c-0.822-2.296-1.561-4.309-0.709-5.442
			c0.566-0.737,1.615-0.907,2.381-0.34c0.736,0.566,0.906,1.615,0.34,2.381c-0.17,0.226,1.021,3.401,2.041,4.62l0.057-0.227
			c0.992-3.741,1.105-9.298,1.135-10.517l0.396-43.483c0-0.936,0.766-1.673,1.701-1.673c0.936,0,1.672,0.766,1.672,1.701
			l-0.396,43.483c0,1.304-0.143,7.257-1.248,11.367c-1.162,4.394-4.535,6.661-9.014,5.669c-1.305-0.283-2.607-0.793-3.713-1.389l0,0
			l0,0c-1.191-0.624-2.184-1.389-2.75-2.126c-0.029-0.057-0.057-0.085-0.086-0.142c-0.537-0.766-0.709-1.616-0.367-2.467
			c0.34-0.85,1.332-1.275,2.211-0.936c0.68,0.284,1.076,0.936,1.049,1.616c0.311,0.311,0.85,0.709,1.529,1.049v0.028
			c0.342,0.17,0.709,0.34,1.105,0.482C171.679,226.457,169.61,223.451,170.433,221.666L170.433,221.666z"/>
	</g>
</g>
<g id="Layer_1">
</g>
</svg>
