<?xml version="1.0" encoding="iso-8859-1"?>
<!-- Generator: Adobe Illustrator 29.5.1, SVG Export Plug-In . SVG Version: 9.03 Build 0)  -->
<svg version="1.1" xmlns="http://www.w3.org/2000/svg" xmlns:xlink="http://www.w3.org/1999/xlink" x="0px" y="0px"
	 viewBox="0 0 300 300" style="enable-background:new 0 0 300 300;" xml:space="preserve">
<g id="Hand_7">
	<g>
		<path style="fill:#1C82AF;" d="M128.249,178.775c0.227-0.68,0.964-1.049,1.615-0.821c0.681,0.227,1.02,0.963,0.794,1.615
			c-0.17,0.539-0.255,1.162-0.283,1.843c-0.057,1.587,0.311,3.43,1.162,5.046c0.822,1.53,2.098,2.834,3.854,3.458
			c0.539,0.17,1.134,0.283,1.786,0.34l0.227-0.085c1.758-0.737,3.799-1.615,5.727,0.085c0.566,0.511,1.02,1.248,1.332,2.041
			c0.34,0.822,0.538,1.758,0.538,2.494c0,0.709-0.566,1.276-1.247,1.276c-0.368,0-0.68-0.142-0.907-0.368
			c0.143,0.623,0.227,1.304,0.199,1.955c0,0.709-0.567,1.248-1.276,1.248c-0.708,0-1.275-0.596-1.247-1.276
			c0-0.878-0.17-1.7-0.51-2.466c0.198,1.672-0.085,3.401-1.758,4.45c-0.595,0.368-1.36,0.198-1.758-0.396
			c-0.368-0.596-0.17-1.39,0.426-1.758c1.36-0.851,0.255-3.515-0.312-4.705c-0.737-0.085-1.418-0.228-2.041-0.426
			c-2.438-0.85-4.167-2.607-5.272-4.705c-1.049-1.984-1.531-4.309-1.475-6.265C127.852,180.392,127.993,179.513,128.249,178.775
			L128.249,178.775z M142.422,194.395c-0.028-0.34-0.142-0.766-0.312-1.162c-0.198-0.453-0.426-0.851-0.681-1.077
			c-0.198-0.17-0.453-0.255-0.737-0.283c0.341,0.311,0.652,0.681,0.936,1.049C141.94,193.374,142.224,193.885,142.422,194.395
			L142.422,194.395z"/>
		<path style="fill:#1C82AF;" d="M182.277,178.775c-0.227-0.68-0.936-1.049-1.616-0.821c-0.651,0.227-1.021,0.963-0.794,1.615
			c0.171,0.539,0.284,1.162,0.284,1.843c0.057,1.587-0.312,3.43-1.162,5.046c-0.822,1.53-2.069,2.834-3.855,3.458
			c-0.539,0.17-1.134,0.283-1.786,0.34l-0.198-0.085c-1.758-0.737-3.827-1.615-5.726,0.085c-0.567,0.511-1.049,1.248-1.361,2.041
			c-0.34,0.822-0.538,1.758-0.538,2.494c0,0.709,0.566,1.276,1.275,1.276c0.34,0,0.652-0.142,0.879-0.368
			c-0.142,0.623-0.198,1.304-0.198,1.955c0,0.709,0.595,1.248,1.304,1.248c0.681,0,1.247-0.596,1.247-1.276
			c-0.028-0.878,0.17-1.7,0.511-2.466c-0.228,1.672,0.057,3.401,1.728,4.45c0.596,0.368,1.39,0.198,1.758-0.396
			c0.368-0.596,0.198-1.39-0.396-1.758c-1.361-0.851-0.284-3.515,0.312-4.705c0.708-0.085,1.389-0.228,2.013-0.426
			c2.466-0.85,4.195-2.607,5.272-4.705c1.077-1.984,1.53-4.309,1.474-6.265C182.674,180.392,182.532,179.513,182.277,178.775
			L182.277,178.775z M168.103,194.395c0.057-0.34,0.17-0.766,0.313-1.162c0.198-0.453,0.425-0.851,0.68-1.077
			c0.198-0.17,0.482-0.255,0.766-0.283c-0.34,0.311-0.652,0.681-0.936,1.049C168.586,193.374,168.331,193.885,168.103,194.395
			L168.103,194.395z"/>
	</g>
</g>
<g id="Layer_1">
</g>
</svg>
