<?xml version="1.0" encoding="iso-8859-1"?>
<!-- Generator: Adobe Illustrator 29.5.1, SVG Export Plug-In . SVG Version: 9.03 Build 0)  -->
<svg version="1.1" xmlns="http://www.w3.org/2000/svg" xmlns:xlink="http://www.w3.org/1999/xlink" x="0px" y="0px"
	 viewBox="0 0 300 300" style="enable-background:new 0 0 300 300;" xml:space="preserve">
<g id="Hand_11">
	<g>
		<path style="fill-rule:evenodd;clip-rule:evenodd;fill:#E5E5E5;" d="M102.678,215.533c0.51-0.227,0.85,0.482,1.049,1.785
			c0.453,3.289,1.842,6.52,4.223,9.043c2.637,2.834-1.076,2.014-2.578,1.219c-3.146-1.672-4.961-5.584-4.225-9.043
			C101.486,216.895,102.168,215.76,102.678,215.533L102.678,215.533z M111.437,210.432c-0.539-0.057-1.701,0.594-2.836,1.812
			c-2.381,2.637-2.75,6.945-0.85,9.951c0.906,1.445,3.685,4.023,2.834,0.254c-0.793-3.4-0.367-6.859,0.852-9.949
			C111.947,211.281,112.004,210.488,111.437,210.432L111.437,210.432z M120.904,213.152c-0.453-0.34-1.785-0.34-3.373,0.197
			c-3.373,1.105-5.811,4.65-5.641,8.221c0.057,1.701,1.219,5.301,2.324,1.588c0.992-3.316,3.061-6.123,5.67-8.221
			C120.904,214.115,121.357,213.463,120.904,213.152L120.904,213.152z"/>
		<path style="fill:#1C82AF;" d="M132.102,174.686c1.105,24.236-0.057,40.139-2.523,49.664c-1.246,4.732-2.834,8.078-4.705,10.203
			c-2.41,2.723-5.217,3.686-8.221,3.119c-1.475-0.283-2.947-0.965-4.395-1.984c-16.609-12.387,7.684-23.188,5.643-4.705
			c2.805,0.537,4.705-6.775,5.102-8.334c2.523-9.723,5.101-31.521,5.5-47.055C128.586,172.248,132.072,173.553,132.102,174.686
			L132.102,174.686z"/>
		<path style="fill-rule:evenodd;clip-rule:evenodd;fill:#E5E5E5;" d="M153.105,215.533c0.482-0.227,0.852,0.482,1.022,1.785
			c0.48,3.289,1.871,6.52,4.223,9.043c2.637,2.834-1.049,2.014-2.551,1.219c-3.146-1.672-4.988-5.584-4.223-9.043
			C151.916,216.895,152.596,215.76,153.105,215.533L153.105,215.533z M161.865,210.432c-0.566-0.057-1.729,0.594-2.834,1.812
			c-2.383,2.637-2.75,6.945-0.852,9.951c0.908,1.445,3.686,4.023,2.836,0.254c-0.795-3.4-0.398-6.859,0.85-9.949
			C162.348,211.281,162.404,210.488,161.865,210.432L161.865,210.432z M171.305,213.152c-0.453-0.34-1.785-0.34-3.346,0.197
			c-3.373,1.105-5.811,4.65-5.668,8.221c0.084,1.701,1.246,5.301,2.352,1.588c0.992-3.316,3.062-6.123,5.641-8.221
			C171.332,214.115,171.758,213.463,171.305,213.152L171.305,213.152z"/>
		<path style="fill:#1C82AF;" d="M182.529,174.686c1.105,24.236-0.057,40.139-2.551,49.664c-1.219,4.732-2.834,8.078-4.705,10.203
			c-2.381,2.723-5.188,3.686-8.193,3.119c-1.502-0.283-2.947-0.965-4.393-1.984c-16.611-12.387,7.682-23.188,5.641-4.705
			c2.807,0.537,4.705-6.775,5.102-8.334c2.523-9.723,5.104-31.521,5.5-47.055C179.016,172.248,182.473,173.553,182.529,174.686
			L182.529,174.686z"/>
	</g>
</g>
<g id="Layer_1">
</g>
</svg>
