<?xml version="1.0" encoding="iso-8859-1"?>
<!-- Generator: Adobe Illustrator 29.5.1, SVG Export Plug-In . SVG Version: 9.03 Build 0)  -->
<svg version="1.1" xmlns="http://www.w3.org/2000/svg" xmlns:xlink="http://www.w3.org/1999/xlink" x="0px" y="0px"
	 viewBox="0 0 300 300" style="enable-background:new 0 0 300 300;" xml:space="preserve">
<g id="Hand_12">
	<g>
		<path style="fill:#1C82AF;" d="M98.246,101.453c1.588,0.992,2.07,3.09,1.078,4.678c-0.992,1.588-3.09,2.069-4.678,1.049
			c-3.629-2.296-6.832-2.777-9.24-1.984c-1.361,0.453-2.552,1.332-3.431,2.523c-0.964,1.304-1.616,2.976-1.87,4.903
			c-0.625,4.706,1.076,10.743,6.122,16.555l0.028,0.028v0.028l0.057,0.057l0,0l0.057,0.057v0.028
			c0.057,0.057,0.086,0.085,0.113,0.142c2.494,3.458,4.564,5.612,6.86,6.265c2.381,0.709,5.527,0.028,10.29-2.183
			c1.7-0.794,3.713-0.057,4.506,1.644c0.766,1.701,0.029,3.714-1.672,4.508c-6.35,2.947-10.941,3.741-14.995,2.551
			c-2.466-0.709-4.536-2.069-6.548-4.082c-2.807,9.609-2.778,17.773-0.652,24.095c1.106,3.231,2.75,5.953,4.818,8.164
			c2.07,2.183,4.621,3.855,7.513,4.989c5.868,2.268,13.267,2.211,21.373-0.539c1.786-0.596,3.714,0.368,4.309,2.126
			c0.595,1.786-0.34,3.714-2.126,4.309c-9.666,3.288-18.68,3.231-25.994,0.425c-3.854-1.502-7.229-3.741-9.978-6.633
			c-2.778-2.92-4.933-6.491-6.321-10.658c-2.693-7.88-2.693-17.943,0.992-29.594c-5.584-0.142-10.035-1.19-13.408-2.891
			c-3.458-1.729-5.867-4.111-7.256-6.832c-1.446-2.835-1.786-5.953-1.105-9.07c0.68-3.232,2.466-6.406,5.215-9.213
			c1.332-1.332,3.486-1.332,4.791,0c1.332,1.304,1.332,3.458,0.028,4.79c-1.814,1.843-2.977,3.855-3.401,5.84
			c-0.34,1.587-0.17,3.175,0.539,4.563c0.736,1.475,2.125,2.807,4.223,3.855c2.184,1.077,5.018,1.814,8.617,2.098
			c-3.316-5.727-4.365-11.48-3.713-16.328c0.396-3.061,1.502-5.811,3.146-8.021c1.729-2.324,4.025-4.054,6.775-4.933
			C87.56,97.344,92.747,97.967,98.246,101.453L98.246,101.453z"/>
		<path style="fill:#1C82AF;" d="M202.42,101.453c-1.588,0.992-2.069,3.09-1.077,4.678c0.991,1.588,3.089,2.069,4.677,1.049
			c3.656-2.296,6.832-2.777,9.241-1.984c1.389,0.453,2.552,1.332,3.43,2.523c0.964,1.304,1.616,2.976,1.871,4.903
			c0.651,4.706-1.049,10.743-6.123,16.555v0.028l-0.028,0.028l-0.057,0.057l0,0l-0.057,0.057v0.028
			c-0.028,0.057-0.085,0.085-0.113,0.142c-2.494,3.458-4.535,5.612-6.859,6.265c-2.382,0.709-5.528,0.028-10.291-2.183
			c-1.7-0.794-3.713-0.057-4.506,1.644c-0.766,1.701-0.029,3.714,1.672,4.508c6.35,2.947,10.941,3.741,14.995,2.551
			c2.466-0.709,4.536-2.069,6.548-4.082c2.807,9.609,2.807,17.773,0.652,24.095c-1.105,3.231-2.75,5.953-4.818,8.164
			c-2.07,2.183-4.621,3.855-7.512,4.989c-5.868,2.268-13.267,2.211-21.374-0.539c-1.786-0.596-3.714,0.368-4.309,2.126
			c-0.595,1.786,0.341,3.714,2.126,4.309c9.666,3.288,18.68,3.231,25.994,0.425c3.855-1.502,7.228-3.741,9.977-6.633
			c2.778-2.92,4.933-6.491,6.321-10.658c2.693-7.88,2.693-17.943-0.992-29.594c5.584-0.142,10.035-1.19,13.408-2.891
			c3.458-1.729,5.867-4.111,7.256-6.832c1.446-2.835,1.787-5.953,1.105-9.07c-0.68-3.232-2.465-6.406-5.215-9.213
			c-1.332-1.332-3.486-1.332-4.791,0c-1.332,1.304-1.332,3.458-0.028,4.79c1.843,1.843,2.977,3.855,3.401,5.84
			c0.34,1.587,0.17,3.175-0.538,4.563c-0.737,1.475-2.126,2.807-4.224,3.855c-2.154,1.077-5.018,1.814-8.589,2.098
			c3.288-5.727,4.337-11.48,3.685-16.328c-0.396-3.061-1.502-5.811-3.146-8.021c-1.729-2.324-4.025-4.054-6.774-4.933
			C213.106,97.344,207.919,97.967,202.42,101.453L202.42,101.453z"/>
	</g>
</g>
<g id="Layer_1">
</g>
</svg>
