<?xml version="1.0" encoding="iso-8859-1"?>
<!-- Generator: Adobe Illustrator 29.5.1, SVG Export Plug-In . SVG Version: 9.03 Build 0)  -->
<svg version="1.1" xmlns="http://www.w3.org/2000/svg" xmlns:xlink="http://www.w3.org/1999/xlink" x="0px" y="0px"
	 viewBox="0 0 300 300" style="enable-background:new 0 0 300 300;" xml:space="preserve">
<g id="Horn_5">
	<path style="fill-rule:evenodd;clip-rule:evenodd;fill:#FFF000;" d="M164.403,85.231c1.53,1.049,2.438,2.92,2.438,5.386
		c0,2.467-0.851,4.848-2.438,6.435c-1.616,1.616-3.997,2.466-6.463,2.466c-2.438,0-4.365-0.907-5.442-2.466
		c-1.928-2.749-2.637-9.241,0-11.821C155.077,82.737,161.653,83.361,164.403,85.231L164.403,85.231z M104.337,176.876
		c1.645,0,2.977,0.367,3.827,1.133c0.879,0.766,1.389,2.041,1.36,3.656c0.028,1.617-0.453,3.176-1.332,4.252
		c-0.879,1.021-2.211,1.645-3.855,1.645c-1.615,0-3.146-0.596-4.224-1.645c-1.049-1.049-1.644-2.635-1.644-4.252
		c0-1.615,0.623-2.891,1.644-3.656C101.19,177.243,102.722,176.876,104.337,176.876L104.337,176.876z M100.624,172.991
		c0.425,0.426,0.68,0.879,0.708,1.305c0,0.426-0.17,0.879-0.623,1.275c-0.397,0.426-0.936,0.709-1.445,0.766
		c-0.482,0.027-0.992-0.143-1.418-0.566c-0.396-0.426-0.651-0.992-0.651-1.531c0-0.539,0.255-1.105,0.651-1.531
		c0.426-0.424,0.936-0.596,1.389-0.51C99.717,172.284,100.198,172.567,100.624,172.991L100.624,172.991z M143.228,67.969
		c0.596-0.113,1.247,0.142,1.786,0.709c0.538,0.595,0.851,1.332,0.851,2.069c-0.029,0.737-0.397,1.474-0.992,2.013
		c-0.567,0.539-1.22,0.737-1.814,0.624c-1.077-0.227-2.665-1.587-2.637-2.806C140.478,69.442,142.18,68.139,143.228,67.969
		L143.228,67.969z M152.129,72.022c1.191-0.199,2.438,0.312,3.544,1.445c1.077,1.162,1.729,2.665,1.672,4.139
		c-0.057,1.446-0.793,2.92-1.956,3.997c-1.134,1.077-2.438,1.502-3.628,1.247c-2.154-0.454-5.357-3.175-5.244-5.584
		C146.63,74.97,150.003,72.362,152.129,72.022L152.129,72.022z"/>
</g>
<g id="Layer_1">
</g>
</svg>
