<?xml version="1.0" encoding="iso-8859-1"?>
<!-- Generator: Adobe Illustrator 29.5.1, SVG Export Plug-In . SVG Version: 9.03 Build 0)  -->
<svg version="1.1" xmlns="http://www.w3.org/2000/svg" xmlns:xlink="http://www.w3.org/1999/xlink" x="0px" y="0px"
	 viewBox="0 0 300 300" style="enable-background:new 0 0 300 300;" xml:space="preserve">
<g id="Horn_4">
	<g>
		<path style="fill-rule:evenodd;clip-rule:evenodd;fill:#FFF000;" d="M151.397,81.629c0.255,0,0.51,0,0.736,0
			c0.539,2.211,0.879,4.479,1.077,6.774c0.341,3.459,1.02,7.059,1.02,10.63c0.142,2.183,1.9,2.183,2.269-0.028
			c0-3.571,0.453-7.229,0.084-10.941c-0.227-2.438-0.594-4.848-1.162-7.257c0.766-0.312,1.447-0.766,2.041-1.275
			c0.143-0.114,0.256-0.227,0.369-0.34c0.453-0.454,0.85-0.964,1.191-1.531c0.822-1.446,1.275-3.146,1.275-4.904
			c0-2.466-0.908-4.365-2.467-5.414c-2.722-1.842-9.326-2.494-11.878,0c-1.672,1.616-2.012,4.791-1.559,7.597
			c0.142,0.822,0.34,1.588,0.595,2.296c0.256,0.765,0.596,1.417,0.964,1.956C147.031,80.75,148.931,81.629,151.397,81.629
			L151.397,81.629z"/>
		<path style="fill-rule:evenodd;clip-rule:evenodd;fill:#FFF000;" d="M135.296,88.971c0.227-0.114,0.426-0.255,0.652-0.369
			c1.559,1.645,2.977,3.458,4.309,5.329c2.041,2.835,4.422,5.613,6.208,8.703c1.219,1.842,2.721,0.936,1.956-1.162
			c-1.814-3.118-3.231-6.492-5.386-9.524c-1.446-1.984-2.977-3.912-4.65-5.698c0.483-0.652,0.879-1.389,1.134-2.126
			c0.057-0.17,0.085-0.312,0.142-0.482c0.171-0.624,0.256-1.275,0.256-1.927c0-1.645-0.482-3.373-1.361-4.876
			c-1.219-2.126-2.947-3.316-4.818-3.458c-3.316-0.227-9.326,2.494-10.29,5.953c-0.624,2.24,0.652,5.131,2.466,7.342
			c0.511,0.652,1.077,1.219,1.645,1.701c0.596,0.51,1.219,0.936,1.814,1.219C131.072,90.388,133.17,90.218,135.296,88.971
			L135.296,88.971z"/>
		<path style="fill-rule:evenodd;clip-rule:evenodd;fill:#FFF000;" d="M171.779,87.156c0.17,0.17,0.367,0.34,0.537,0.51
			c-1.189,1.927-2.551,3.77-4.025,5.556c-2.211,2.692-4.279,5.726-6.803,8.248c-1.445,1.644-0.227,2.863,1.617,1.587
			c2.551-2.551,5.441-4.791,7.795-7.682c1.559-1.899,3.033-3.855,4.309-5.953c0.766,0.283,1.559,0.482,2.351,0.539
			c0.17,0,0.342,0,0.512,0c0.65,0,1.275-0.085,1.928-0.227c1.586-0.425,3.117-1.332,4.365-2.579
			c1.729-1.729,2.438-3.713,2.068-5.556c-0.623-3.26-4.818-8.362-8.391-8.391c-2.324-0.028-4.791,1.956-6.463,4.252
			c-0.482,0.68-0.906,1.36-1.219,2.041c-0.34,0.737-0.596,1.445-0.709,2.069C169.34,83.443,170.049,85.427,171.779,87.156
			L171.779,87.156z"/>
	</g>
</g>
<g id="Layer_1">
</g>
</svg>
