<?xml version="1.0" encoding="iso-8859-1"?>
<!-- Generator: Adobe Illustrator 29.5.1, SVG Export Plug-In . SVG Version: 9.03 Build 0)  -->
<svg version="1.1" xmlns="http://www.w3.org/2000/svg" xmlns:xlink="http://www.w3.org/1999/xlink" x="0px" y="0px"
	 viewBox="0 0 300 300" style="enable-background:new 0 0 300 300;" xml:space="preserve">
<g id="Horn_2">
	<path style="fill:#FFF000;" d="M144.697,84.11c-1.843-2.75-4.224-5.357-7.059-7.795c-2.551-2.211-2.835-6.095-0.624-8.646
		c2.212-2.551,6.095-2.834,8.646-0.623c3.656,3.146,6.718,6.52,9.155,10.148v-0.057c-0.651-3.345,1.531-6.548,4.876-7.2
		c3.316-0.625,6.548,1.559,7.172,4.875c1.134,5.84,1.134,11.225,0.085,16.158c-1.077,5.045-3.231,9.553-6.435,13.579
		c-0.482,0.623-1.077,1.162-1.814,1.587c-2.948,1.7-6.689,0.708-8.391-2.24c-1.389-2.409-3.543-4.563-6.463-6.406
		c-3.232-2.013-7.427-3.686-12.586-4.989c-3.288-0.822-5.272-4.139-4.45-7.427c0.822-3.288,4.139-5.301,7.427-4.479
		C138.093,81.559,141.579,82.75,144.697,84.11L144.697,84.11z"/>
</g>
<g id="Layer_1">
</g>
</svg>
