<?xml version="1.0" encoding="iso-8859-1"?>
<!-- Generator: Adobe Illustrator 29.5.1, SVG Export Plug-In . SVG Version: 9.03 Build 0)  -->
<svg version="1.1" xmlns="http://www.w3.org/2000/svg" xmlns:xlink="http://www.w3.org/1999/xlink" x="0px" y="0px"
	 viewBox="0 0 300 300" style="enable-background:new 0 0 300 300;" xml:space="preserve">
<g id="Horn_6">
	<path style="fill-rule:evenodd;clip-rule:evenodd;fill:#FFF000;" d="M156.723,79.549c0.736,0.17,1.219,1.531,1.359,3.94
		c0.227,3.43,0.086,9.694-0.283,14.655c-0.34,5.017-12.075,2.324-10.176-2.324c1.814-4.649,4.449-10.347,6.15-13.323
		C154.965,80.399,155.984,79.379,156.723,79.549L156.723,79.549z M166.246,91.256c0.793,0.312,1.078,1.899,0.85,4.564
		c-0.34,3.77-1.502,10.602-2.748,15.959c-1.219,5.442-13.607,0.538-10.744-4.252c2.777-4.763,6.576-10.545,8.93-13.521
		C164.205,91.908,165.48,90.973,166.246,91.256L166.246,91.256z M139.516,83.829c0.737-0.142,1.729,0.936,2.807,3.118
		c0.681,1.361,1.53,3.289,2.409,5.415c-2.607,0.425-4.988,1.077-7.2,1.927c0.086-2.551,0.228-4.904,0.426-6.576
		C138.24,85.304,138.779,83.971,139.516,83.829L139.516,83.829z M112.247,169.125c0.113-0.738,1.445-1.275,3.854-1.559l0.482-0.059
		c0.34,1.844,0.708,3.686,1.105,5.529c-0.879-0.398-1.673-0.766-2.354-1.105C113.182,170.826,112.105,169.861,112.247,169.125
		L112.247,169.125z M107.513,181.795c0.567-0.48,1.956-0.057,3.997,1.248c0.283,0.17,0.566,0.369,0.851,0.566
		c-1.39,2.154-2.098,4.252-2.268,6.236c-0.794-1.502-1.475-2.834-1.956-3.912C107.173,183.723,106.946,182.277,107.513,181.795
		L107.513,181.795z M110.716,175.191c0.426-0.596,1.871-0.539,4.167,0.197c1.021,0.312,2.268,0.766,3.629,1.305l0.057,0.254
		c-1.758,1.418-3.203,2.836-4.366,4.195c-0.708-0.764-1.304-1.473-1.813-2.098C110.857,177.146,110.291,175.814,110.716,175.191
		L110.716,175.191z"/>
</g>
<g id="Layer_1">
</g>
</svg>
