<?xml version="1.0" encoding="iso-8859-1"?>
<!-- Generator: Adobe Illustrator 29.5.1, SVG Export Plug-In . SVG Version: 9.03 Build 0)  -->
<svg version="1.1" xmlns="http://www.w3.org/2000/svg" xmlns:xlink="http://www.w3.org/1999/xlink" x="0px" y="0px"
	 viewBox="0 0 300 300" style="enable-background:new 0 0 300 300;" xml:space="preserve">
<g id="Horn_10">
	<g>
		<path style="fill-rule:evenodd;clip-rule:evenodd;fill:#FFFF00;" d="M198.537,95.13c4.225,0,7.654-3.43,7.654-7.653
			c0-4.195-3.43-7.626-7.654-7.626c-4.195,0-7.625,3.43-7.625,7.626C190.912,91.7,194.342,95.13,198.537,95.13L198.537,95.13z"/>
		<path style="fill:#CA4829;" d="M157.152,98.843c0.057,0.935-0.652,1.729-1.588,1.786c-0.936,0.057-1.729-0.652-1.787-1.587
			c-0.736-11.084,2.383-19.304,7.398-24.662c3.119-3.345,6.945-5.584,11.027-6.718c4.082-1.134,8.391-1.19,12.445-0.17
			c5.471,1.389,10.516,4.677,13.975,9.836c2.551,0.085,4.846,1.134,6.547,2.835l0,0c1.758,1.729,2.836,4.139,2.836,6.803
			c0,0.936-19.248,4.195-19.248,0c0-2.664,1.078-5.074,2.807-6.803l0,0c0.936-0.936,2.068-1.701,3.316-2.183
			c-2.891-3.714-6.832-6.123-11.055-7.172c-3.516-0.879-7.229-0.851-10.715,0.113c-3.488,0.992-6.775,2.892-9.469,5.783
			C159.25,81.41,156.5,88.752,157.152,98.843L157.152,98.843z"/>
	</g>
</g>
<g id="Layer_1">
</g>
</svg>
