<?xml version="1.0" encoding="iso-8859-1"?>
<!-- Generator: Adobe Illustrator 29.5.1, SVG Export Plug-In . SVG Version: 9.03 Build 0)  -->
<svg version="1.1" xmlns="http://www.w3.org/2000/svg" xmlns:xlink="http://www.w3.org/1999/xlink" x="0px" y="0px"
	 viewBox="0 0 300 300" style="enable-background:new 0 0 300 300;" xml:space="preserve">
<g id="Horn_9">
	<g>
		<path style="fill:#231915;" d="M153.948,98.754c0.086,0.936-0.596,1.758-1.502,1.871c-0.936,0.085-1.787-0.567-1.871-1.503
			c-1.105-10.176-3.969-18.481-8.76-24.746c-27.863-36.425-6.83-14.542,2.693-2.069C149.696,79.081,152.757,87.954,153.948,98.754
			L153.948,98.754z"/>
		<path style="fill:#231915;" d="M160.325,99.094c-0.311,0.907-1.275,1.361-2.154,1.049c-0.877-0.312-1.359-1.275-1.049-2.154
			c2.807-7.993,4.168-16.214,3.715-24.774c-2.24-41.669,1.898-27.666,3.373-0.17C164.692,82.058,163.274,90.731,160.325,99.094
			L160.325,99.094z"/>
	</g>
</g>
<g id="Layer_1">
</g>
</svg>
