<?xml version="1.0" encoding="iso-8859-1"?>
<!-- Generator: Adobe Illustrator 29.5.1, SVG Export Plug-In . SVG Version: 9.03 Build 0)  -->
<svg version="1.1" xmlns="http://www.w3.org/2000/svg" xmlns:xlink="http://www.w3.org/1999/xlink" x="0px" y="0px"
	 viewBox="0 0 300 300" style="enable-background:new 0 0 300 300;" xml:space="preserve">
<g id="Horn_8">
	<path style="fill-rule:evenodd;clip-rule:evenodd;fill:#FFF000;" d="M94.212,90.508c1.275-4.791,14.797-5.357,30.162-1.247
		c15.363,4.139,26.787,11.367,25.512,16.186c-1.305,4.791-14.797,5.357-30.189,1.247C104.333,102.555,92.909,95.327,94.212,90.508
		L94.212,90.508z M122.077,55.33c1.984-1.475,7.199-1.502,13.379,0.624c13.324,4.592,23.754,18.737,24.18,32.825
		c0.199,6.52-1.359,11.48-3.373,12.954c-3.6,2.664-8.191-17.887-31.068-38.211C121.255,60.036,120.063,56.804,122.077,55.33
		L122.077,55.33z M196.827,90.735c-0.852-4.819-9.609-5.386-19.561-1.247c-9.977,4.11-17.375,11.338-16.525,16.157
		c0.822,4.819,9.582,5.357,19.531,1.247C190.251,102.782,197.649,95.525,196.827,90.735L196.827,90.735z"/>
</g>
<g id="Layer_1">
</g>
</svg>
