<?xml version="1.0" encoding="iso-8859-1"?>
<!-- Generator: Adobe Illustrator 29.5.1, SVG Export Plug-In . SVG Version: 9.03 Build 0)  -->
<svg version="1.1" xmlns="http://www.w3.org/2000/svg" xmlns:xlink="http://www.w3.org/1999/xlink" x="0px" y="0px"
	 viewBox="0 0 300 300" style="enable-background:new 0 0 300 300;" xml:space="preserve">
<g id="Horn_7">
	<g>
		<path style="fill-rule:evenodd;clip-rule:evenodd;fill:#FFFFFF;" d="M127.025,76.466c0.879-0.51,1.758,1.162,2.977,3.94
			c1.504,3.401,3.572,6.859,6.01,9.694c2.807,3.288,6.492,5.584,9.496,8.674c1.135,1.134,1.645,2.268,1.332,3.401
			c-0.283,1.134-1.389,2.296-3.09,3.26c-1.699,0.992-3.543,1.559-5.271,1.559c-1.615,0-3.119-0.567-4.252-1.701
			c-4.904-4.818-7.568-16.242-8.164-22.62C125.779,79.33,126.119,76.977,127.025,76.466L127.025,76.466z"/>
		<path style="fill-rule:evenodd;clip-rule:evenodd;fill:#FFFFFF;" d="M183.774,76.466c-0.879-0.51-1.785,1.162-2.977,3.94
			c-1.502,3.401-3.57,6.859-6.008,9.694c-2.836,3.288-6.521,5.584-9.525,8.674c-1.135,1.134-1.615,2.268-1.332,3.401
			c0.312,1.134,1.418,2.296,3.09,3.26c1.701,0.992,3.543,1.559,5.271,1.559c1.617,0,3.119-0.567,4.281-1.701
			c4.875-4.818,7.568-16.242,8.135-22.62C185.022,79.33,184.653,76.977,183.774,76.466L183.774,76.466z"/>
	</g>
</g>
<g id="Layer_1">
</g>
</svg>
