<?xml version="1.0" encoding="iso-8859-1"?>
<!-- Generator: Adobe Illustrator 29.5.1, SVG Export Plug-In . SVG Version: 9.03 Build 0)  -->
<svg version="1.1" xmlns="http://www.w3.org/2000/svg" xmlns:xlink="http://www.w3.org/1999/xlink" x="0px" y="0px"
	 viewBox="0 0 300 300" style="enable-background:new 0 0 300 300;" xml:space="preserve">
<g id="Horn_12">
	<g>
		<path style="fill:#996633;" d="M103.645,90.12c-0.028-0.085-0.057-0.142-0.085-0.198l-0.198-0.368
			c-2.523-4.961-3.713-10.658-3.316-17.291L88.594,57.749c-0.567-0.709-0.454-1.786,0.283-2.353
			c0.737-0.595,1.786-0.454,2.382,0.255l9.354,11.849c0.822-4.904,2.438-10.262,4.989-16.157c0.368-0.851,1.36-1.248,2.239-0.879
			c0.851,0.368,1.247,1.36,0.879,2.211c-6.236,14.428-6.689,25.342-3.062,33.761l11.48-10.233c0.681-0.623,1.757-0.566,2.381,0.142
			c0.624,0.709,0.567,1.786-0.142,2.41l-12.133,10.829c4.649,7.852,13.21,13.493,23.925,17.943c0.879,0.34,1.276,1.332,0.936,2.211
			c-0.368,0.851-1.36,1.275-2.211,0.907c-8.079-3.346-15.024-7.371-20.183-12.501l-17.404,0.482
			c-0.936,0.028-1.701-0.708-1.73-1.645c-0.027-0.935,0.709-1.729,1.645-1.729l14.542-0.396
			C105.573,93.352,104.524,91.764,103.645,90.12L103.645,90.12z"/>
		<path style="fill:#996633;" d="M207.11,90.12c0.057-0.085,0.085-0.142,0.113-0.198l0.198-0.368
			c2.495-4.961,3.714-10.658,3.288-17.291l11.48-14.513c0.566-0.709,0.453-1.786-0.283-2.353c-0.737-0.595-1.814-0.454-2.381,0.255
			L210.171,67.5c-0.821-4.904-2.465-10.262-5.017-16.157c-0.368-0.851-1.36-1.248-2.211-0.879c-0.851,0.368-1.247,1.36-0.879,2.211
			c6.236,14.428,6.69,25.342,3.062,33.761l-11.481-10.233c-0.709-0.623-1.785-0.566-2.409,0.142
			c-0.624,0.709-0.567,1.786,0.142,2.41l12.16,10.829c-4.648,7.852-13.209,13.493-23.952,17.943
			c-0.851,0.34-1.276,1.332-0.907,2.211c0.34,0.851,1.332,1.275,2.211,0.907c8.078-3.346,15.023-7.371,20.183-12.501l17.376,0.482
			c0.936,0.028,1.73-0.708,1.758-1.645c0-0.935-0.736-1.729-1.672-1.729l-14.514-0.396C205.183,93.352,206.231,91.764,207.11,90.12
			L207.11,90.12z"/>
	</g>
</g>
<g id="Layer_1">
</g>
</svg>
