<?xml version="1.0" encoding="iso-8859-1"?>
<!-- Generator: Adobe Illustrator 29.5.1, SVG Export Plug-In . SVG Version: 9.03 Build 0)  -->
<svg version="1.1" xmlns="http://www.w3.org/2000/svg" xmlns:xlink="http://www.w3.org/1999/xlink" x="0px" y="0px"
	 viewBox="0 0 300 300" style="enable-background:new 0 0 300 300;" xml:space="preserve">
<g id="Horn_3">
	<g>
		<path style="fill-rule:evenodd;clip-rule:evenodd;fill:#FFF000;" d="M159.908,83.438c23.529-27.553,39.771,17.263,55.361,3.94
			C182.982,116.093,174.564,85.535,159.908,83.438L159.908,83.438z"/>
		<path style="fill-rule:evenodd;clip-rule:evenodd;fill:#FFF000;" d="M159.908,83.438c-10.799-12.614-18.226,7.909-25.37,1.814
			C149.336,98.405,153.191,84.401,159.908,83.438L159.908,83.438z"/>
		<path style="fill:#FFF000;" d="M158.519,81.34c0-0.935,0.426-1.729,1.361-1.729c0.936,0,1.133,0.538,1.133,1.474
			c0,4.252-0.283,8.532-1.162,12.529c-0.82,5.953-0.34,11.509-2.977,11.509c-3.854,0-0.764-10.233-0.34-12.218
			C157.357,89.107,158.519,85.28,158.519,81.34L158.519,81.34z"/>
	</g>
</g>
<g id="Layer_1">
</g>
</svg>
