<?xml version="1.0" encoding="iso-8859-1"?>
<!-- Generator: Adobe Illustrator 29.5.1, SVG Export Plug-In . SVG Version: 9.03 Build 0)  -->
<svg version="1.1" xmlns="http://www.w3.org/2000/svg" xmlns:xlink="http://www.w3.org/1999/xlink" x="0px" y="0px"
	 viewBox="0 0 300 300" style="enable-background:new 0 0 300 300;" xml:space="preserve">
<g id="Leg_9">
	<path style="fill:#1C82AF;" d="M126.103,198.199c0.397-0.851,1.389-1.247,2.239-0.851c0.879,0.368,1.247,1.389,0.851,2.239
		c-8.561,11.679-1.446,21.118,4.28,29.905c0.538,0.766,0.368,1.814-0.369,2.382c-1.133,0.822-10.715,1.219-11.168,0.566
		c-0.51-0.766-0.311-1.842,0.453-2.353c1.105-0.766,2.92-1.247,4.763-1.474C129.874,228.331,117.401,211.068,126.103,198.199
		L126.103,198.199z M171.175,198.199c-0.369-0.851-1.39-1.247-2.24-0.851c-0.85,0.368-1.219,1.389-0.85,2.239
		c8.589,11.679,1.445,21.118-4.252,29.905c-0.539,0.766-0.398,1.814,0.368,2.382c1.134,0.822,10.715,1.219,11.14,0.566
		c0.539-0.766,0.341-1.842-0.453-2.353c-1.105-0.766-2.892-1.247-4.762-1.474C167.433,228.331,179.905,211.068,171.175,198.199
		L171.175,198.199z"/>
</g>
<g id="Layer_1">
</g>
</svg>
