<?xml version="1.0" encoding="iso-8859-1"?>
<!-- Generator: Adobe Illustrator 29.5.1, SVG Export Plug-In . SVG Version: 9.03 Build 0)  -->
<svg version="1.1" xmlns="http://www.w3.org/2000/svg" xmlns:xlink="http://www.w3.org/1999/xlink" x="0px" y="0px"
	 viewBox="0 0 300 300" style="enable-background:new 0 0 300 300;" xml:space="preserve">
<g id="Leg_11">
	<g>
		<path style="fill-rule:evenodd;clip-rule:evenodd;fill:#E5E5E5;" d="M140.683,222.317c0.51,0.284,0.028,2.126-1.077,4.11
			c-1.134,2.013-2.438,3.373-2.977,3.09c-0.51-0.283-0.028-2.126,1.105-4.139C138.84,223.395,140.144,222.034,140.683,222.317
			L140.683,222.317z M141.901,231.927c0.595,0,1.077-1.87,1.077-4.139c0-2.268-0.482-4.138-1.077-4.138
			c-0.596,0-1.077,1.87-1.077,4.138C140.824,230.057,141.306,231.927,141.901,231.927L141.901,231.927z M144.424,221.836
			c-0.566,0.17-0.538,2.068,0.057,4.28c0.624,2.183,1.56,3.854,2.154,3.684c0.567-0.142,0.539-2.069-0.085-4.252
			C145.955,223.338,144.991,221.693,144.424,221.836L144.424,221.836z"/>
		<path style="fill-rule:evenodd;clip-rule:evenodd;fill:#1C82AF;" d="M147.684,199.328c0.709,0,1.305,1.503,1.729,3.94
			c0.992,5.556,1.871,14.06-1.219,19.077c-1.531,2.494-4.082,3.94-6.406,3.94s-3.544-1.53-3.231-3.94
			c0.766-6.208,4.988-4.479,7.086-19.077C146.012,200.775,146.976,199.328,147.684,199.328L147.684,199.328z"/>
		<path style="fill-rule:evenodd;clip-rule:evenodd;fill:#E5E5E5;" d="M156.868,222.317c0.511,0.284,0.028,2.126-1.077,4.11
			c-1.106,2.013-2.438,3.373-2.948,3.09c-0.51-0.283-0.028-2.126,1.077-4.139C155.025,223.395,156.358,222.034,156.868,222.317
			L156.868,222.317z M158.115,231.927c0.596,0,1.077-1.87,1.077-4.139c0-2.268-0.481-4.138-1.077-4.138
			c-0.595,0-1.077,1.87-1.077,4.138C157.038,230.057,157.52,231.927,158.115,231.927L158.115,231.927z M160.61,221.836
			c-0.567,0.17-0.539,2.068,0.085,4.28c0.595,2.183,1.559,3.854,2.126,3.684c0.566-0.142,0.538-2.069-0.057-4.252
			C162.141,223.338,161.177,221.693,160.61,221.836L160.61,221.836z"/>
		<path style="fill-rule:evenodd;clip-rule:evenodd;fill:#1C82AF;" d="M163.87,199.328c0.708,0,1.304,1.503,1.757,3.94
			c0.964,5.556,1.843,14.06-1.219,19.077c-1.559,2.494-4.082,3.94-6.406,3.94c-2.324,0-3.543-1.53-3.26-3.94
			c0.794-6.208,5.018-4.479,7.115-19.077C162.226,200.775,163.161,199.328,163.87,199.328L163.87,199.328z"/>
	</g>
</g>
<g id="Layer_1">
</g>
</svg>
