<?xml version="1.0" encoding="iso-8859-1"?>
<!-- Generator: Adobe Illustrator 29.5.1, SVG Export Plug-In . SVG Version: 9.03 Build 0)  -->
<svg version="1.1" xmlns="http://www.w3.org/2000/svg" xmlns:xlink="http://www.w3.org/1999/xlink" x="0px" y="0px"
	 viewBox="0 0 300 300" style="enable-background:new 0 0 300 300;" xml:space="preserve">
<g id="Leg_13">
	<path style="fill-rule:evenodd;clip-rule:evenodd;fill:#1C82AF;" d="M128.093,193.707c1.077,1.105,2.041,4.79,1.729,9.41
		c-0.68,9.809-8.787,17.916-18.595,18.596c-4.649,0.312-8.306-0.623-9.411-1.729c-1.077-1.078,0.737-2.07,3.826-3.855
		c7.484-4.309,14.287-11.112,18.596-18.596C125.995,194.443,127.016,192.629,128.093,193.707L128.093,193.707z M172.256,194.643
		c1.475-0.397,5.131,0.623,9.015,3.23c8.136,5.5,11.111,16.555,6.803,25.371c-2.041,4.195-4.705,6.888-6.207,7.285
		c-1.475,0.396-1.418-1.673-1.418-5.244c0-8.618-2.494-17.916-6.803-25.371C171.859,196.824,170.754,195.039,172.256,194.643
		L172.256,194.643z M155.844,199.744c1.53,0,4.819,1.928,7.88,5.443c6.435,7.398,6.435,18.85-0.028,26.276
		c-3.032,3.515-6.321,5.415-7.852,5.415c-1.56,0-0.964-1.984-0.028-5.415c2.239-8.333,2.239-17.972,0-26.276
		C154.88,201.729,154.284,199.744,155.844,199.744L155.844,199.744z M143.088,200.736c1.332,0.794,3.203,4.082,4.11,8.646
		c1.871,9.666-3.855,19.559-13.153,22.762c-4.394,1.531-8.191,1.559-9.524,0.794c-1.332-0.794,0.17-2.212,2.693-4.734
		c6.095-6.095,10.913-14.429,13.124-22.762C141.273,202.012,141.756,199.971,143.088,200.736L143.088,200.736z"/>
</g>
<g id="Layer_1">
</g>
</svg>
