<?xml version="1.0" encoding="iso-8859-1"?>
<!-- Generator: Adobe Illustrator 29.5.1, SVG Export Plug-In . SVG Version: 9.03 Build 0)  -->
<svg version="1.1" xmlns="http://www.w3.org/2000/svg" xmlns:xlink="http://www.w3.org/1999/xlink" x="0px" y="0px"
	 viewBox="0 0 300 300" style="enable-background:new 0 0 300 300;" xml:space="preserve">
<g id="Leg_6">
	<g>
		<path style="fill:#1C82AF;" d="M165.448,200.732c0.114-0.936,0.936-1.616,1.871-1.531c0.936,0.113,1.616,0.936,1.503,1.871
			c-0.426,4.167-0.822,8.277-0.539,11.083c1.02,2.637,7.966-3.855,8.815,3.714c0.596,3.884-13.662,5.952-12.472-2.75
			C164.286,210.001,164.995,205.098,165.448,200.732L165.448,200.732z"/>
		<path style="fill:#1C82AF;" d="M148.696,200.732c0.085-0.936,0.936-1.616,1.871-1.531c0.906,0.113,1.587,0.936,1.502,1.871
			c-0.453,4.167-0.851,8.277-0.539,11.083c0.992,2.637,7.966-3.855,8.788,3.714c0.595,3.884-13.635,5.952-12.444-2.75
			C147.534,210.001,148.242,205.098,148.696,200.732L148.696,200.732z"/>
		<path style="fill:#1C82AF;" d="M131.943,200.732c0.085-0.936,0.907-1.616,1.843-1.531c0.936,0.113,1.615,0.936,1.53,1.871
			c-0.453,4.167-0.851,8.277-0.566,11.083c1.02,2.637,7.965-3.855,8.815,3.714c0.595,3.884-13.663,5.952-12.473-2.75
			C130.753,210.001,131.461,205.098,131.943,200.732L131.943,200.732z"/>
		<path style="fill:#1C82AF;" d="M115.162,200.732c0.113-0.936,0.936-1.616,1.871-1.531c0.936,0.113,1.615,0.936,1.502,1.871
			c-0.425,4.167-0.851,8.277-0.538,11.083c1.021,2.637,7.965-3.855,8.815,3.714c0.567,3.884-13.663,5.952-12.473-2.75
			C114,210.001,114.709,205.098,115.162,200.732L115.162,200.732z"/>
	</g>
</g>
<g id="Layer_1">
</g>
</svg>
