<?xml version="1.0" encoding="iso-8859-1"?>
<!-- Generator: Adobe Illustrator 29.5.1, SVG Export Plug-In . SVG Version: 9.03 Build 0)  -->
<svg version="1.1" xmlns="http://www.w3.org/2000/svg" xmlns:xlink="http://www.w3.org/1999/xlink" x="0px" y="0px"
	 viewBox="0 0 300 300" style="enable-background:new 0 0 300 300;" xml:space="preserve">
<g id="Leg_10">
	<g>
		<path style="fill-rule:evenodd;clip-rule:evenodd;fill:#E5E5E5;" d="M122.4,217.989c5.556-0.453,10.29,1.758,14.429,5.981
			c3.458-3.742,8.135-5.896,14.428-5.981l-14.06-11.849L122.4,217.989z M158.542,217.28c5.244-1.898,10.375-0.963,15.477,2.041
			c2.381-4.507,6.321-7.795,12.387-9.496l-16.667-7.823L158.542,217.28z"/>
		<path style="fill-rule:evenodd;clip-rule:evenodd;fill:#1C82AF;" d="M167.499,209.061c-1.785,2.494-4.053,4.847-5.839,6.576
			c-1.389,1.332-2.494,2.013-3.118,1.644c-0.624-0.34-0.596-1.672-0.142-3.515c4.422-17.972,14.797-19.134,26.362-7.058
			c1.304,1.389,2.013,2.494,1.644,3.117c-0.368,0.624-1.672,0.567-3.515,0.114c-2.438-0.596-5.584-1.475-8.362-2.75
			c0.539,3.005,0.567,6.265,0.511,8.759c-0.028,1.928-0.341,3.203-1.021,3.373c-0.681,0.199-1.588-0.765-2.58-2.409
			C170.136,214.786,168.548,211.923,167.499,209.061L167.499,209.061z M133.172,212.377c-2.353,1.956-5.131,3.628-7.342,4.819
			c-1.673,0.936-2.92,1.304-3.43,0.793c-0.511-0.51-0.142-1.758,0.794-3.43c8.9-16.214,19.219-14.655,27.269,0
			c0.936,1.672,1.305,2.92,0.794,3.43c-0.51,0.511-1.758,0.143-3.43-0.793c-2.211-1.191-4.989-2.863-7.342-4.819
			c-0.283,3.033-1.077,6.208-1.786,8.617c-0.538,1.814-1.162,2.977-1.87,2.977c-0.709,0-1.333-1.162-1.871-2.977
			C134.249,218.585,133.455,215.41,133.172,212.377L133.172,212.377z"/>
	</g>
</g>
<g id="Layer_1">
</g>
</svg>
