<?xml version="1.0" encoding="iso-8859-1"?>
<!-- Generator: Adobe Illustrator 29.5.1, SVG Export Plug-In . SVG Version: 9.03 Build 0)  -->
<svg version="1.1" xmlns="http://www.w3.org/2000/svg" xmlns:xlink="http://www.w3.org/1999/xlink" x="0px" y="0px"
	 viewBox="0 0 300 300" style="enable-background:new 0 0 300 300;" xml:space="preserve">
<g id="Leg_1">
	<path style="fill:#1C82AF;" d="M132.923,199.248c-1.134-0.821-1.418-2.381-0.624-3.543c8.958-12.812,4.961,30.926,4.139,34.158
		c1.474,0.312,2.92,0.765,4.28,1.304c2.58,1.049,4.876,2.494,6.236,3.911c0.964,0.992,0.936,2.608-0.085,3.601
		c-2.324,2.239-16.64-5.074-16.101-7.285c0.113-0.368,0.312-1.19,0.566-2.098C133.433,221.217,138.167,202.905,132.923,199.248
		L132.923,199.248z M156.224,199.248c-1.134-0.821-1.418-2.381-0.624-3.543c8.958-12.812,4.961,30.926,4.139,34.158
		c1.474,0.312,2.92,0.765,4.28,1.304c2.58,1.049,4.876,2.494,6.236,3.911c0.964,0.992,0.936,2.608-0.085,3.601
		c-2.353,2.239-16.64-5.074-16.101-7.285c0.113-0.368,0.312-1.19,0.566-2.098C156.705,221.217,161.468,202.905,156.224,199.248
		L156.224,199.248z"/>
</g>
<g id="Layer_1">
</g>
</svg>
