<?xml version="1.0" encoding="iso-8859-1"?>
<!-- Generator: Adobe Illustrator 29.5.1, SVG Export Plug-In . SVG Version: 9.03 Build 0)  -->
<svg version="1.1" xmlns="http://www.w3.org/2000/svg" xmlns:xlink="http://www.w3.org/1999/xlink" x="0px" y="0px"
	 viewBox="0 0 300 300" style="enable-background:new 0 0 300 300;" xml:space="preserve">
<g id="Leg_4">
	<path style="fill:#1C82AF;" d="M169.336,193.395c-0.425-1.843,0.709-3.657,2.522-4.11c1.843-0.425,3.657,0.709,4.11,2.523
		c0.709,2.976,0.681,5.839,0.652,8.617c-0.028,3.854-0.085,7.568,2.522,10.63c0.624,0.736,1.305,1.304,1.899,1.842
		c2.324,2.013,4.139,3.601,4.139,8.051c0,1.899-1.502,3.401-3.401,3.401c-1.871,0-3.401-1.502-3.401-3.401
		c0-1.389-0.766-2.069-1.758-2.92c-0.822-0.708-1.701-1.502-2.637-2.579c-4.224-4.989-4.194-9.949-4.138-15.053
		C169.875,198.043,169.875,195.662,169.336,193.395L169.336,193.395z M127.411,191.835c1.446-1.19,3.601-0.936,4.763,0.511
		c1.191,1.474,0.936,3.6-0.511,4.763c-2.296,1.842-2.409,5.045-2.551,8.107c-0.142,3.94-0.283,7.739-3.458,10.856
		c-2.296,2.268-4.819,3.402-7.512,3.969c-2.495,0.51-4.876,0.539-7.398,0.539c-1.871,0-3.401-1.531-3.401-3.402
		c0-1.898,1.53-3.401,3.401-3.401c2.183,0,4.28,0,6.009-0.368c1.503-0.34,2.892-0.964,4.167-2.183
		c1.22-1.219,1.333-3.714,1.446-6.293C122.536,200.368,122.734,195.605,127.411,191.835L127.411,191.835z M140.196,198.271
		c0.227-1.871,1.955-3.146,3.798-2.92c1.871,0.255,3.175,1.956,2.92,3.826c-0.511,3.601-1.531,6.549-2.523,9.411
		c-1.276,3.657-2.523,7.2-2.069,11.622c0.255,2.354,0.085,4.876-0.341,7.313c-0.481,2.722-1.304,5.414-2.239,7.767
		c-0.227,0.596-1.587,3.176-2.977,5.046c-0.595,0.794-1.247,1.531-1.899,2.041c-1.36,1.105-2.862,1.531-4.478,0.879
		c-0.312-0.142-0.623-0.312-0.907-0.538c-1.502-1.105-1.785-3.232-0.68-4.734c0.566-0.737,1.36-1.19,2.239-1.304
		c0.085-0.142,0.198-0.255,0.312-0.397c1.02-1.36,1.956-3.117,2.098-3.543c0.766-1.871,1.446-4.11,1.843-6.378
		c0.34-1.899,0.453-3.798,0.283-5.442c-0.595-5.953,0.879-10.177,2.409-14.57C138.863,203.798,139.799,201.189,140.196,198.271
		L140.196,198.271z M154.766,197.023c1.162-1.474,3.288-1.729,4.763-0.566c2.381,1.842,1.729,5.216,1.162,8.191
		c-0.17,0.879-0.311,1.701-0.311,2.07c0,2.834,1.813,6.491,3.628,10.204c3.656,7.427,7.398,15.023,1.588,21.997
		c-1.191,1.445-3.346,1.645-4.763,0.453c-1.445-1.219-1.644-3.345-0.453-4.79c3.004-3.601,0.255-9.185-2.439-14.655
		c-2.211-4.45-4.365-8.844-4.365-13.209C153.575,204.818,153.915,198.071,154.766,197.023L154.766,197.023z"/>
</g>
<g id="Layer_1">
</g>
</svg>
