<?xml version="1.0" encoding="iso-8859-1"?>
<!-- Generator: Adobe Illustrator 29.5.1, SVG Export Plug-In . SVG Version: 9.03 Build 0)  -->
<svg version="1.1" xmlns="http://www.w3.org/2000/svg" xmlns:xlink="http://www.w3.org/1999/xlink" x="0px" y="0px"
	 viewBox="0 0 300 300" style="enable-background:new 0 0 300 300;" xml:space="preserve">
<g id="Leg_7">
	<g>
		<path style="fill:#1C82AF;" d="M131.495,224.598c-0.595,0.737-1.672,0.822-2.381,0.227c-0.737-0.596-0.822-1.645-0.227-2.382
			l4.961-6.038v-15.76c0-0.936,0.765-1.701,1.7-1.701c0.936,0,1.701,0.766,1.701,1.701v15.816l5.046,6.209
			c0.595,0.708,0.481,1.785-0.256,2.381c-0.736,0.595-1.785,0.481-2.381-0.256l-2.409-2.977v4.338c0,0.936-0.766,1.7-1.701,1.7
			c-0.936,0-1.7-0.765-1.7-1.7v-4.422L131.495,224.598z"/>
		<path style="fill:#1C82AF;" d="M154.088,224.598c-0.596,0.737-1.673,0.822-2.382,0.227c-0.736-0.596-0.821-1.645-0.227-2.382
			l4.961-6.038v-15.76c0-0.936,0.766-1.701,1.701-1.701c0.935,0,1.7,0.766,1.7,1.701v15.816l5.046,6.209
			c0.595,0.708,0.481,1.785-0.255,2.381c-0.737,0.595-1.786,0.481-2.382-0.256l-2.409-2.977v4.338c0,0.936-0.766,1.7-1.7,1.7
			c-0.936,0-1.701-0.765-1.701-1.7v-4.422L154.088,224.598z"/>
	</g>
</g>
<g id="Layer_1">
</g>
</svg>
