<?xml version="1.0" encoding="iso-8859-1"?>
<!-- Generator: Adobe Illustrator 29.5.1, SVG Export Plug-In . SVG Version: 9.03 Build 0)  -->
<svg version="1.1" xmlns="http://www.w3.org/2000/svg" xmlns:xlink="http://www.w3.org/1999/xlink" x="0px" y="0px"
	 viewBox="0 0 300 300" style="enable-background:new 0 0 300 300;" xml:space="preserve">
<g id="Leg_3">
	<g>
		<path style="fill-rule:evenodd;clip-rule:evenodd;fill:#1C82AF;" d="M128.519,229.095c3.487-10.402,1.333-18.227-0.85-29.196
			c-1.39-2.863,2.409-1.758,3.741-0.794c2.495,1.814,4.507,19.162,1.843,27.779c6.491,1.049,3.316,4.054,1.077,2.722
			c2.806,3.741-0.397,5.754-3.26,1.417C129.483,234.452,126.309,233.716,128.519,229.095L128.519,229.095z"/>
		<path style="fill-rule:evenodd;clip-rule:evenodd;fill:#1C82AF;" d="M162.791,229.095c3.458-10.402,1.332-18.227-0.879-29.196
			c-1.36-2.863,2.438-1.758,3.769-0.794c2.467,1.814,4.508,19.162,1.843,27.779c6.491,1.049,3.316,4.054,1.077,2.722
			c2.778,3.741-0.396,5.754-3.26,1.417C163.755,234.452,160.58,233.716,162.791,229.095L162.791,229.095z"/>
	</g>
</g>
<g id="Layer_1">
</g>
</svg>
