<?xml version="1.0" encoding="iso-8859-1"?>
<!-- Generator: Adobe Illustrator 29.5.1, SVG Export Plug-In . SVG Version: 9.03 Build 0)  -->
<svg version="1.1" xmlns="http://www.w3.org/2000/svg" xmlns:xlink="http://www.w3.org/1999/xlink" x="0px" y="0px"
	 viewBox="0 0 300 300" style="enable-background:new 0 0 300 300;" xml:space="preserve">
<g id="Leg_5">
	<g>
		<path style="fill:#1C82AF;" d="M155.947,198.992c0.198-1.871,1.871-3.203,3.742-3.006c1.842,0.17,3.203,1.844,3.004,3.713
			c-0.878,8.363-1.672,16.555-1.077,22.139c0.369,3.572,1.333,5.727,3.374,5.188c1.813-0.48,3.656,0.596,4.138,2.41
			c0.482,1.814-0.595,3.656-2.409,4.139c-7.738,2.068-10.97-2.721-11.849-10.998C154.189,216.311,155.012,207.723,155.947,198.992
			L155.947,198.992z"/>
		<path style="fill:#1C82AF;" d="M133.242,198.992c0.17-1.844,1.842-3.203,3.713-3.033c1.871,0.197,3.203,1.871,3.033,3.74
			c-0.907,8.363-1.701,16.555-1.105,22.139c0.396,3.572,1.332,5.727,3.401,5.188c1.786-0.48,3.657,0.596,4.139,2.41
			c0.481,1.814-0.624,3.656-2.438,4.139c-7.739,2.068-10.942-2.721-11.849-10.998C131.484,216.311,132.307,207.723,133.242,198.992
			L133.242,198.992z"/>
	</g>
</g>
<g id="Layer_1">
</g>
</svg>
