<?xml version="1.0" encoding="iso-8859-1"?>
<!-- Generator: Adobe Illustrator 29.5.1, SVG Export Plug-In . SVG Version: 9.03 Build 0)  -->
<svg version="1.1" xmlns="http://www.w3.org/2000/svg" xmlns:xlink="http://www.w3.org/1999/xlink" x="0px" y="0px"
	 viewBox="0 0 300 300" style="enable-background:new 0 0 300 300;" xml:space="preserve">
<g id="Leg_2">
	<path style="fill:#1C82AF;" d="M140.913,200.392c0.935-0.17,1.814,0.426,1.983,1.332c0.199,0.936-0.396,1.814-1.332,2.014
		c-0.312,0.057-0.851,0.736-1.417,1.615c-1.105,1.672-2.013,3.855-2.268,4.848c-1.134,4.223-1.446,7.625-0.171,11.85
		c0.284,0.877-0.651,1.842-1.559,2.125c-5.925,1.785-2.098-12.812-1.559-14.854c0.312-1.191,1.417-3.826,2.692-5.811
		C138.333,201.923,139.552,200.675,140.913,200.392L140.913,200.392z M175.212,193.136c-0.879,0.312-1.332,1.305-1.02,2.182
		c0.34,0.879,1.304,1.334,2.183,0.992c1.56-0.566,3.316-0.283,5.018,0.426c2.268,0.965,3.883,3.289,5.188,4.961
		c0.566,0.736,2.041,0.793,2.777,0.227c3.827-2.92-4.62-7.455-6.633-8.305C180.286,192.569,177.649,192.228,175.212,193.136
		L175.212,193.136z M166.963,198.749c-0.936,0.17-1.53,1.049-1.36,1.982c0.198,0.908,1.077,1.531,2.013,1.334
		c1.417-0.256,3.883,1.105,6.208,2.977c2.721,2.182,4.394,5.555,4.705,7.199c0.198,0.936,1.077,1.531,2.013,1.361
		c6.435-0.709-3.203-10.092-4.592-11.227C172.916,199.968,169.457,198.267,166.963,198.749L166.963,198.749z M155.936,200.817
		c-0.935,0.029-1.644,0.85-1.616,1.785c0.057,0.936,0.851,1.645,1.786,1.588c0.34,0,1.021,0.539,1.786,1.248
		c1.474,1.359,2.862,3.26,3.345,4.139c2.126,3.854,3.26,7.086,3.005,11.48c-0.028,0.936,1.105,1.643,2.041,1.699
		c6.179,0.312-1.021-12.953-2.069-14.797c-0.596-1.076-2.269-3.373-3.997-4.988C158.827,201.667,157.325,200.732,155.936,200.817
		L155.936,200.817z M120.361,197.558c0.936,0.113,1.616,0.936,1.503,1.871c-0.086,0.936-0.936,1.615-1.871,1.502
		c-1.645-0.17-3.288,0.51-4.763,1.615c-1.956,1.475-2.977,4.139-3.826,6.066c-0.369,0.852-1.786,1.275-2.637,0.879
		c-4.45-1.928,2.693-8.361,4.422-9.666C115.315,198.237,117.782,197.275,120.361,197.558L120.361,197.558z M129.716,201.017
		c0.936-0.029,1.758,0.68,1.786,1.615c0.057,0.936-0.652,1.729-1.588,1.785c-1.445,0.086-3.515,2.014-5.358,4.365
		c-2.098,2.779-2.92,6.463-2.835,8.137c0.057,0.936-0.651,1.729-1.615,1.785c-6.406,0.85,0.681-10.545,1.786-11.963
		C124.245,203.651,127.193,201.157,129.716,201.017L129.716,201.017z"/>
</g>
<g id="Layer_1">
</g>
</svg>
