<?xml version="1.0" encoding="iso-8859-1"?>
<!-- Generator: Adobe Illustrator 29.5.1, SVG Export Plug-In . SVG Version: 9.03 Build 0)  -->
<svg version="1.1" xmlns="http://www.w3.org/2000/svg" xmlns:xlink="http://www.w3.org/1999/xlink" x="0px" y="0px"
	 viewBox="0 0 300 300" style="enable-background:new 0 0 300 300;" xml:space="preserve">
<g id="Leg_12">
	<g>
		<path style="fill:#1C82AF;" d="M142.336,205.026c-4.167-2.522-2.551-7.285,0.539-5.414c2.835,1.7,4.961,4.024,6.35,6.661
			c1.417,2.664,2.098,5.669,2.041,8.617v0.057c-0.085,2.948-0.879,5.896-2.409,8.447c-1.049,1.758-2.438,3.345-4.139,4.648l0,0
			c5.697,11.537-15.562,7.768-4.763-2.976C143.924,221.184,155.433,211.688,142.336,205.026L142.336,205.026z"/>
		<path style="fill:#1C82AF;" d="M161.839,205.026c-4.167-2.522-2.58-7.285,0.538-5.414c2.835,1.7,4.933,4.024,6.35,6.661
			c1.418,2.664,2.098,5.669,2.041,8.617l-0.028,0.057c-0.057,2.948-0.851,5.896-2.381,8.447c-1.049,1.758-2.438,3.345-4.167,4.648
			l0,0c5.697,11.537-15.534,7.768-4.733-2.976C163.426,221.184,174.935,211.688,161.839,205.026L161.839,205.026z"/>
	</g>
</g>
<g id="Layer_1">
</g>
</svg>
