<?xml version="1.0" encoding="iso-8859-1"?>
<!-- Generator: Adobe Illustrator 29.5.1, SVG Export Plug-In . SVG Version: 9.03 Build 0)  -->
<svg version="1.1" xmlns="http://www.w3.org/2000/svg" xmlns:xlink="http://www.w3.org/1999/xlink" x="0px" y="0px"
	 viewBox="0 0 300 300" style="enable-background:new 0 0 300 300;" xml:space="preserve">
<g id="Leg_8">
	<g>
		<path style="fill-rule:evenodd;clip-rule:evenodd;fill:#1C82AF;" d="M165.579,196.819L165.579,196.819
			c1.105,0,2.098,0.454,2.836,1.162c0.736,0.737,1.189,1.729,1.275,2.835c0.141,2.891,0.367,5.782,0.766,8.674
			c0.424,2.92,0.992,5.811,1.615,8.702c0.254,1.105-0.256,2.098-1.389,2.807c-1.219,0.737-3.033,1.19-5.104,1.19l0,0
			c-2.068,0-3.883-0.453-5.074-1.19c-1.162-0.709-1.672-1.701-1.416-2.807c0.652-2.892,1.219-5.782,1.615-8.702
			c0.396-2.892,0.652-5.783,0.793-8.674c0.057-1.105,0.512-2.098,1.248-2.835C163.481,197.273,164.474,196.819,165.579,196.819
			L165.579,196.819z M128.163,196.819L128.163,196.819c1.105,0,2.098,0.454,2.834,1.162c0.737,0.737,1.19,1.729,1.248,2.835
			c0.17,2.891,0.396,5.782,0.793,8.674c0.426,2.92,0.992,5.811,1.616,8.702c0.255,1.105-0.255,2.098-1.418,2.807
			c-1.19,0.737-3.004,1.19-5.073,1.19l0,0c-2.069,0-3.884-0.453-5.074-1.19c-1.162-0.709-1.673-1.701-1.418-2.807
			c0.652-2.892,1.22-5.782,1.616-8.702c0.396-2.892,0.624-5.783,0.794-8.674c0.057-1.105,0.51-2.098,1.247-2.835
			C126.065,197.273,127.058,196.819,128.163,196.819L128.163,196.819z"/>
		<path style="fill-rule:evenodd;clip-rule:evenodd;fill:#E5E5E5;" d="M129.297,226.583c0.34-1.219,0.765-3.486,1.02-5.301
			c0.255-1.814-4.167-1.73-3.855,0.085c0.312,1.814,0.822,4.054,1.219,5.244c0.028,0.142,0.085,0.255,0.142,0.369
			c0.228,0.595,0.454,0.906,0.709,0.906c0.227,0,0.453-0.34,0.681-0.992C129.24,226.781,129.269,226.696,129.297,226.583
			L129.297,226.583z M166.714,226.583c0.34-1.219,0.766-3.486,1.02-5.301c0.256-1.814-4.166-1.73-3.855,0.085
			c0.312,1.814,0.822,4.054,1.221,5.244c0.057,0.142,0.084,0.255,0.141,0.369c0.227,0.595,0.453,0.906,0.709,0.906
			c0.227,0,0.453-0.34,0.68-0.992C166.657,226.781,166.685,226.696,166.714,226.583L166.714,226.583z M173.489,223.607
			c-1.078-0.623-2.977-1.899-4.424-3.032c-1.502-1.105,1.701-4.168,2.75-2.665c1.078,1.502,2.297,3.458,2.863,4.564
			c0.057,0.142,0.113,0.256,0.17,0.369c0.256,0.595,0.312,0.992,0.143,1.134c-0.17,0.17-0.596,0.085-1.191-0.228
			C173.686,223.721,173.602,223.663,173.489,223.607L173.489,223.607z M157.671,223.805c1.105-0.623,3.004-1.927,4.451-3.033
			c1.473-1.105-1.701-4.166-2.779-2.664c-1.049,1.502-2.268,3.458-2.834,4.564c-0.086,0.113-0.143,0.255-0.17,0.34
			c-0.283,0.595-0.312,0.992-0.143,1.162c0.17,0.17,0.568,0.085,1.191-0.227C157.472,223.918,157.585,223.861,157.671,223.805
			L157.671,223.805z M136.071,223.607c-1.077-0.623-2.977-1.899-4.422-3.032c-1.502-1.105,1.701-4.168,2.75-2.665
			c1.049,1.502,2.296,3.458,2.862,4.564c0.057,0.142,0.113,0.256,0.17,0.369c0.256,0.595,0.312,0.992,0.142,1.134
			c-0.17,0.17-0.595,0.085-1.19-0.228C136.269,223.721,136.185,223.663,136.071,223.607L136.071,223.607z M120.254,223.805
			c1.105-0.623,3.005-1.927,4.45-3.033c1.475-1.105-1.7-4.166-2.777-2.664c-1.049,1.502-2.268,3.458-2.835,4.564
			c-0.085,0.113-0.142,0.255-0.17,0.34c-0.283,0.595-0.312,0.992-0.142,1.162c0.17,0.17,0.566,0.085,1.19-0.227
			C120.056,223.918,120.169,223.861,120.254,223.805L120.254,223.805z"/>
	</g>
</g>
<g id="Layer_1">
</g>
</svg>
