<?xml version="1.0" encoding="iso-8859-1"?>
<!-- Generator: Adobe Illustrator 29.5.1, SVG Export Plug-In . SVG Version: 9.03 Build 0)  -->
<svg version="1.1" xmlns="http://www.w3.org/2000/svg" xmlns:xlink="http://www.w3.org/1999/xlink" x="0px" y="0px"
	 viewBox="0 0 300 300" style="enable-background:new 0 0 300 300;" xml:space="preserve">
<g id="Mouth_6">
	<g>
		<path style="fill-rule:evenodd;clip-rule:evenodd;fill:#FFFFFF;" d="M142.735,180.54c0.992,0,1.814-2.068,1.814-4.592
			c0-2.551-0.822-4.621-1.814-4.621c-0.992,0-1.814,2.07-1.814,4.621C140.921,178.472,141.743,180.54,142.735,180.54L142.735,180.54
			z"/>
		<path style="fill-rule:evenodd;clip-rule:evenodd;fill:#FFFFFF;" d="M168.077,180.54c0.992,0,1.814-2.068,1.814-4.592
			c0-2.551-0.822-4.621-1.814-4.621c-1.02,0-1.842,2.07-1.842,4.621C166.235,178.472,167.058,180.54,168.077,180.54L168.077,180.54z
			"/>
		<path d="M139.079,161.294c0.482-0.822,1.502-1.105,2.324-0.625c0.793,0.455,1.078,1.504,0.623,2.324
			c-0.283,0.455-0.48,0.965-0.623,1.504c-0.141,0.51-0.227,1.076-0.227,1.615c0,1.729,0.709,3.287,1.842,4.422
			c1.135,1.135,2.693,1.842,4.422,1.842c1.73,0,3.289-0.707,4.424-1.842c1.133-1.135,1.842-2.693,1.842-4.422
			c0-0.936,0.766-1.701,1.701-1.701c0.936,0,1.701,0.766,1.701,1.701c0,1.729,0.707,3.287,1.812,4.422
			c1.135,1.135,2.723,1.842,4.451,1.842s3.289-0.707,4.422-1.842c1.135-1.135,1.814-2.693,1.814-4.422
			c0-0.539-0.057-1.105-0.199-1.615c-0.141-0.539-0.34-1.049-0.623-1.504c-0.482-0.82-0.199-1.869,0.623-2.324
			c0.795-0.48,1.844-0.197,2.324,0.625c0.426,0.736,0.738,1.502,0.965,2.324c0.197,0.822,0.312,1.645,0.312,2.494
			c0,2.664-1.078,5.074-2.807,6.832c-1.758,1.756-4.168,2.834-6.832,2.834c-2.664,0-5.102-1.078-6.832-2.834
			c-0.424-0.426-0.793-0.879-1.133-1.361c-0.34,0.482-0.709,0.936-1.135,1.361c-1.758,1.756-4.166,2.834-6.832,2.834
			c-2.664,0-5.072-1.078-6.83-2.834c-1.758-1.758-2.836-4.168-2.836-6.832c0-0.85,0.113-1.672,0.342-2.494
			C138.343,162.796,138.653,162.03,139.079,161.294L139.079,161.294z"/>
		<path style="fill-rule:evenodd;clip-rule:evenodd;stroke:#231915;stroke-width:0.5102;stroke-miterlimit:10;" d="M155.407,151.06
			c5.188,0,9.41,3.232,9.58,7.285c-0.283-0.057-0.596-0.084-0.906-0.084c-3.43,0-6.236,3.373-6.436,7.652
			c-0.709,0.143-1.473,0.199-2.238,0.199c-0.766,0-1.531-0.057-2.24-0.199c-0.227-4.279-3.033-7.652-6.463-7.652
			c-0.283,0-0.596,0.027-0.879,0.084C145.995,154.292,150.22,151.06,155.407,151.06L155.407,151.06z"/>
	</g>
</g>
<g id="Layer_1">
</g>
</svg>
