<?xml version="1.0" encoding="iso-8859-1"?>
<!-- Generator: Adobe Illustrator 29.5.1, SVG Export Plug-In . SVG Version: 9.03 Build 0)  -->
<svg version="1.1" xmlns="http://www.w3.org/2000/svg" xmlns:xlink="http://www.w3.org/1999/xlink" x="0px" y="0px"
	 viewBox="0 0 300 300" style="enable-background:new 0 0 300 300;" xml:space="preserve">
<g id="Mouth_8">
	<g>
		<path style="fill:#1C82AF;" d="M145.503,174.123c0.312,1.871-0.936,3.601-2.777,3.912c-1.842,0.311-3.6-0.936-3.912-2.778
			c-1.842-11.055,1.728-18.623,7.115-22.62c3.033-2.268,6.663-3.345,10.206-3.26c3.6,0.085,7.143,1.332,10.033,3.741
			c4.934,4.167,7.853,11.707,5.416,22.451c-0.399,1.814-2.213,2.976-4.055,2.551c-1.814-0.396-2.977-2.211-2.551-4.025
			c1.785-7.88-0.029-13.096-3.203-15.789c-1.645-1.389-3.686-2.126-5.754-2.154c-2.098-0.057-4.252,0.596-6.04,1.928
			C146.439,160.687,144.144,166.017,145.503,174.123L145.503,174.123z"/>
		<path style="fill:#176682;" d="M142.583,174.634c0.029,0.227-0.113,0.453-0.34,0.481c-0.254,0.028-0.453-0.113-0.51-0.34
			c-1.615-9.78,1.389-16.385,5.953-19.758c2.521-1.843,5.471-2.75,8.391-2.693c2.947,0.086,5.811,1.106,8.164,3.062
			c4.166,3.516,6.604,10.035,4.449,19.531c-0.057,0.227-0.283,0.368-0.51,0.312c-0.226-0.028-0.369-0.255-0.312-0.51
			c2.07-9.128-0.226-15.336-4.166-18.681c-2.184-1.843-4.904-2.807-7.625-2.863c-2.75-0.057-5.528,0.794-7.881,2.523
			C143.859,158.901,141.025,165.223,142.583,174.634L142.583,174.634z"/>
	</g>
</g>
<g id="Layer_1">
</g>
</svg>
