<?xml version="1.0" encoding="iso-8859-1"?>
<!-- Generator: Adobe Illustrator 29.5.1, SVG Export Plug-In . SVG Version: 9.03 Build 0)  -->
<svg version="1.1" xmlns="http://www.w3.org/2000/svg" xmlns:xlink="http://www.w3.org/1999/xlink" x="0px" y="0px"
	 viewBox="0 0 300 300" style="enable-background:new 0 0 300 300;" xml:space="preserve">
<g id="Mouth_19">
	<path style="fill:#1C82AF;" d="M146.483,165.62c0.284-6.266,20.098-18.454,25.994-11.793c1.275,1.475,1.53,3.43,0.425,5.67
		c-0.736,1.474-2.154,3.117-4.422,4.818c4.11-0.113,7.342,0.766,9.581,2.098c2.608,1.56,4.025,3.827,4.11,6.151
		c0.397,11.622-28.403,9.099-30.388,3.685c4.054,1.305,18,3.771,24.747-0.312c1.559-0.936,2.268-2.126,2.239-3.288
		c-0.028-1.162-0.879-2.381-2.438-3.316c-3.374-2.041-9.724-2.607-18.709,0.736l-0.652,0.256c-0.878,0.34-1.842-0.113-2.183-0.992
		c-0.34-0.879,0.113-1.843,0.964-2.183c8.589-3.288,12.869-6.605,14.117-9.156c0.425-0.851,0.425-1.502,0.057-1.927
		c-0.511-0.567-1.56-0.879-3.062-0.908C159.665,155.159,151.444,160.376,146.483,165.62L146.483,165.62z"/>
</g>
<g id="Layer_1">
</g>
</svg>
