<?xml version="1.0" encoding="iso-8859-1"?>
<!-- Generator: Adobe Illustrator 29.5.1, SVG Export Plug-In . SVG Version: 9.03 Build 0)  -->
<svg version="1.1" xmlns="http://www.w3.org/2000/svg" xmlns:xlink="http://www.w3.org/1999/xlink" x="0px" y="0px"
	 viewBox="0 0 300 300" style="enable-background:new 0 0 300 300;" xml:space="preserve">
<g id="Mouth_14">
	<g>
		<path style="fill-rule:evenodd;clip-rule:evenodd;fill:#231915;" d="M155.394,163.374c9.098,0.707,13.748-8.675,19.303-9.496
			c4.818-0.738,7.994,4.081,7.994,8.871c0,4.764-2.863,9.355-7.994,12.785c-4.762,3.146-11.764,4.479-19.303,4.479
			c-7.542,0-14.544-1.389-19.305-4.535c-5.131-3.373-7.994-7.965-7.994-12.729c0-4.79,3.006-9.496,7.994-9.127
			C141.36,153.991,146.293,162.665,155.394,163.374L155.394,163.374z"/>
		<path style="fill:#1C82AF;" d="M155.591,160.851c4.422,0.34,7.852-2.494,10.857-4.989c2.607-2.126,4.932-4.081,7.852-4.507
			c0.482-0.086,0.906-0.113,1.332-0.113c2.693,0,4.904,1.219,6.549,3.09c1.529,1.701,2.551,3.996,2.891,6.377
			c0.113,0.682,0.17,1.361,0.17,2.041c0,2.863-0.85,5.67-2.465,8.25c-1.561,2.465-3.799,4.732-6.691,6.66
			c-2.522,1.674-5.611,2.893-9.041,3.686c-3.602,0.822-7.568,1.219-11.65,1.219c-4.082,0-8.051-0.396-11.624-1.246
			c-3.43-0.795-6.52-2.014-9.1-3.715c-2.863-1.898-5.102-4.139-6.66-6.633c-1.617-2.578-2.467-5.357-2.467-8.221
			c0-0.311,0.029-0.65,0.029-1.02c0.197-2.637,1.162-5.244,2.777-7.201c1.729-2.125,4.195-3.486,7.199-3.486
			c0.199,0,0.453,0,0.709,0.029c3.061,0.227,5.584,2.182,8.42,4.393C147.709,157.789,151.198,160.511,155.591,160.851
			L155.591,160.851z M169.679,159.773c-3.77,3.119-8.049,6.662-14.484,6.152l0,0c-5.897-0.482-10.036-3.686-13.606-6.463
			c-2.211-1.701-4.168-3.203-5.67-3.316c-0.086,0-0.227,0-0.369,0c-1.359,0-2.465,0.623-3.26,1.615
			c-0.936,1.134-1.502,2.693-1.615,4.338c-0.029,0.17-0.029,0.396-0.029,0.65c0,1.9,0.568,3.771,1.674,5.527
			c1.162,1.871,2.92,3.602,5.158,5.074c2.041,1.361,4.592,2.354,7.455,3.006c3.176,0.766,6.747,1.105,10.462,1.105
			c3.74,0,7.342-0.34,10.516-1.078c2.834-0.652,5.357-1.643,7.371-2.977c2.268-1.502,3.996-3.23,5.158-5.102
			c1.105-1.758,1.701-3.656,1.701-5.557c0-0.453-0.029-0.85-0.113-1.275c-0.199-1.445-0.795-2.807-1.645-3.799
			c-0.709-0.793-1.645-1.332-2.75-1.332c-0.17,0-0.369,0.029-0.566,0.057C173.534,156.626,171.692,158.13,169.679,159.773
			L169.679,159.773z"/>
	</g>
</g>
<g id="Layer_1">
</g>
</svg>
