<?xml version="1.0" encoding="iso-8859-1"?>
<!-- Generator: Adobe Illustrator 29.5.1, SVG Export Plug-In . SVG Version: 9.03 Build 0)  -->
<svg version="1.1" xmlns="http://www.w3.org/2000/svg" xmlns:xlink="http://www.w3.org/1999/xlink" x="0px" y="0px"
	 viewBox="0 0 300 300" style="enable-background:new 0 0 300 300;" xml:space="preserve">
<g id="Mouth_9">
	<g>
		<path style="fill-rule:evenodd;clip-rule:evenodd;fill:#231915;" d="M155.712,191.155c6.264,0,11.367-10.062,11.367-22.395
			c0-12.331-5.104-22.393-11.367-22.393c-6.236,0-11.367,10.062-11.367,22.393C144.345,181.093,149.476,191.155,155.712,191.155
			L155.712,191.155z"/>
		<path style="fill-rule:evenodd;clip-rule:evenodd;fill:#FEFEFE;" d="M157.243,146.566c2.721,0.709,5.131,3.345,6.887,7.172v6.405
			c0,1.984-1.615,3.6-3.6,3.6l0,0c-1.984,0-3.6-1.615-3.6-3.6V148.04C156.931,147.53,157.044,147.02,157.243,146.566
			L157.243,146.566z M147.292,153.738c1.758-3.828,4.195-6.463,6.918-7.172c0.197,0.454,0.31,0.964,0.31,1.474v12.104
			c0,1.984-1.615,3.6-3.627,3.6l0,0c-1.984,0-3.602-1.615-3.602-3.6V153.738z"/>
		<path style="fill:#1C82AF;" d="M155.712,143.816c4.195,0,7.824,3.061,10.318,7.965c2.211,4.395,3.6,10.403,3.6,16.98
			s-1.389,12.586-3.6,16.98c-2.494,4.932-6.123,7.965-10.318,7.965c-4.166,0-7.795-3.033-10.289-7.965
			c-2.24-4.395-3.602-10.404-3.602-16.98s1.361-12.585,3.602-16.98C147.917,146.878,151.546,143.816,155.712,143.816
			L155.712,143.816z M161.495,154.078c-1.617-3.175-3.686-5.16-5.783-5.16c-2.098,0-4.139,1.984-5.754,5.16
			c-1.871,3.714-3.062,8.899-3.062,14.683s1.191,10.971,3.062,14.684c1.615,3.203,3.656,5.16,5.754,5.16
			c2.098,0,4.166-1.957,5.783-5.16c1.871-3.713,3.033-8.9,3.033-14.684S163.366,157.792,161.495,154.078L161.495,154.078z"/>
	</g>
</g>
<g id="Layer_1">
</g>
</svg>
