<?xml version="1.0" encoding="iso-8859-1"?>
<!-- Generator: Adobe Illustrator 29.5.1, SVG Export Plug-In . SVG Version: 9.03 Build 0)  -->
<svg version="1.1" xmlns="http://www.w3.org/2000/svg" xmlns:xlink="http://www.w3.org/1999/xlink" x="0px" y="0px"
	 viewBox="0 0 300 300" style="enable-background:new 0 0 300 300;" xml:space="preserve">
<g id="Mouth_5">
	<g>
		<path style="fill-rule:evenodd;clip-rule:evenodd;fill:#FFFFFF;" d="M146.9,169.701c3.031,0,5.527-2.494,5.527-5.527
			c0-3.062-2.496-5.527-5.527-5.527c-3.033,0-5.529,2.466-5.529,5.527C141.371,167.207,143.867,169.701,146.9,169.701L146.9,169.701
			z"/>
		<path style="fill-rule:evenodd;clip-rule:evenodd;fill:#FFFFFF;" d="M160.732,173.103c3.062,0,5.527-2.494,5.527-5.527
			c0-3.061-2.465-5.556-5.527-5.556c-3.033,0-5.527,2.494-5.527,5.556C155.205,170.608,157.699,173.103,160.732,173.103
			L160.732,173.103z"/>
		<path style="fill-rule:evenodd;clip-rule:evenodd;fill:#FFFFFF;" d="M181.566,170.41c3.033,0,5.529-2.494,5.529-5.527
			c0-3.062-2.496-5.528-5.529-5.528c-3.061,0-5.527,2.467-5.527,5.528C176.039,167.916,178.506,170.41,181.566,170.41
			L181.566,170.41z"/>
		<path style="fill-rule:evenodd;clip-rule:evenodd;fill:#FFFFFF;" d="M194.238,160.177c3.061,0,5.527-2.494,5.527-5.527
			c0-3.033-2.467-5.527-5.527-5.527c-3.033,0-5.527,2.494-5.527,5.527C188.711,157.683,191.205,160.177,194.238,160.177
			L194.238,160.177z"/>
		<path style="fill-rule:evenodd;clip-rule:evenodd;fill:#FFFFFF;" d="M180.234,186.086c3.033,0,5.527-2.495,5.527-5.527
			c0-3.062-2.494-5.528-5.527-5.528c-3.061,0-5.527,2.466-5.527,5.528C174.707,183.591,177.174,186.086,180.234,186.086
			L180.234,186.086z"/>
		<path style="fill-rule:evenodd;clip-rule:evenodd;fill:#FFFFFF;" d="M165.92,185.802c3.061,0,5.527-2.494,5.527-5.527
			c0-3.062-2.467-5.527-5.527-5.527c-3.033,0-5.527,2.466-5.527,5.527C160.393,183.308,162.887,185.802,165.92,185.802
			L165.92,185.802z"/>
		<path style="fill-rule:evenodd;clip-rule:evenodd;fill:#FFFFFF;" d="M150.84,181.153c3.033,0,5.527-2.495,5.527-5.527
			c0-3.062-2.494-5.528-5.527-5.528c-3.062,0-5.527,2.467-5.527,5.528C145.312,178.658,147.777,181.153,150.84,181.153
			L150.84,181.153z"/>
		<path style="fill:#FF0000;" d="M193.955,145.862c1.162-1.474,3.287-1.729,4.762-0.567c1.475,1.134,1.729,3.288,0.566,4.762
			c-8.73,11.112-20.125,16.554-32.172,17.433c-10.375,0.794-21.203-1.814-31.211-7.087c6.492,14.74,23.131,21.771,49.918,21.062
			c1.871-0.057,3.432,1.418,3.459,3.288c0.057,1.871-1.418,3.431-3.287,3.487c-35.18,0.906-54.908-10.658-59.16-34.725l0,0
			c-0.17-0.851,0-1.758,0.539-2.523c1.076-1.559,3.203-1.927,4.734-0.85c10.742,7.483,22.988,11.451,34.496,10.573
			C176.805,159.979,186.5,155.33,193.955,145.862L193.955,145.862z"/>
	</g>
</g>
<g id="Layer_1">
</g>
</svg>
