<?xml version="1.0" encoding="iso-8859-1"?>
<!-- Generator: Adobe Illustrator 29.5.1, SVG Export Plug-In . SVG Version: 9.03 Build 0)  -->
<svg version="1.1" xmlns="http://www.w3.org/2000/svg" xmlns:xlink="http://www.w3.org/1999/xlink" x="0px" y="0px"
	 viewBox="0 0 300 300" style="enable-background:new 0 0 300 300;" xml:space="preserve">
<g id="Mouth_2">
	<g>
		<path style="fill:#008CD6;" d="M123.044,172.241c-0.822,1.673-0.113,3.714,1.588,4.507c1.672,0.822,3.713,0.114,4.535-1.559
			c1.305-2.721,2.891-5.046,4.734-7.059c5.074-5.471,11.961-8.418,19.275-9.184c7.455-0.794,15.363,0.68,22.195,3.996
			c3.373,1.616,6.463,3.686,9.127,6.151c1.389,1.247,3.543,1.163,4.818-0.198c1.248-1.389,1.162-3.543-0.197-4.818
			c-3.176-2.892-6.832-5.357-10.801-7.257c-7.938-3.827-17.121-5.528-25.852-4.621c-8.873,0.936-17.291,4.564-23.557,11.339
			C126.644,166.005,124.659,168.896,123.044,172.241L123.044,172.241z"/>
		<path style="fill:#0089BF;" d="M125.737,173.518c-0.113,0.198-0.029,0.453,0.17,0.566c0.227,0.113,0.482,0,0.566-0.198
			c1.445-2.977,3.232-5.556,5.244-7.739c5.584-6.065,13.152-9.297,21.146-10.147c8.021-0.851,16.469,0.708,23.811,4.252
			c3.602,1.757,6.975,3.997,9.836,6.661c0.172,0.142,0.455,0.142,0.625-0.028c0.141-0.17,0.141-0.453-0.029-0.595
			c-2.947-2.722-6.377-5.018-10.062-6.804c-7.484-3.6-16.102-5.188-24.264-4.337c-8.193,0.879-15.959,4.195-21.686,10.403
			C129.024,167.819,127.183,170.455,125.737,173.518L125.737,173.518z"/>
		<path style="fill-rule:evenodd;clip-rule:evenodd;fill:#FEFEFE;" d="M131.009,165.665c-1.871,2.041-3.543,4.422-4.932,7.115
			c-1.559-0.681-2.664-2.239-2.664-4.054c0-2.438,1.984-4.422,4.422-4.422C129.081,164.305,130.186,164.843,131.009,165.665
			L131.009,165.665z M179.511,160.789c0.48-1.898,2.211-3.288,4.252-3.288c2.438,0,4.422,1.956,4.422,4.394
			c0,1.503-0.766,2.835-1.928,3.629C184.186,163.737,181.919,162.15,179.511,160.789L179.511,160.789z M170.724,157.02
			c0.283-2.183,2.125-3.884,4.393-3.884c2.438,0,4.395,1.984,4.395,4.393c0,1.049-0.34,1.984-0.936,2.75
			c-0.512-0.283-1.021-0.539-1.531-0.794C175.003,158.521,172.905,157.672,170.724,157.02L170.724,157.02z M158.731,154.695
			c0-2.438,1.984-4.422,4.422-4.422c2.439,0,4.424,1.984,4.424,4.422c0,0.481-0.086,0.963-0.256,1.389
			c-2.807-0.652-5.697-1.02-8.561-1.134C158.731,154.865,158.731,154.78,158.731,154.695L158.731,154.695z M144.417,154.809
			c0-2.438,1.984-4.422,4.422-4.422s4.395,1.984,4.395,4.422c0,0.113,0,0.198,0,0.312c-0.143,0-0.312,0.028-0.453,0.028
			c-2.693,0.283-5.33,0.851-7.881,1.673C144.587,156.226,144.417,155.545,144.417,154.809L144.417,154.809z M131.974,164.645
			c-0.879-0.822-1.445-1.984-1.445-3.288c0-2.438,1.955-4.394,4.393-4.394c1.758,0,3.26,0.992,3.969,2.466
			C136.395,160.818,134.071,162.547,131.974,164.645L131.974,164.645z"/>
	</g>
</g>
<g id="Layer_1">
</g>
</svg>
