<?xml version="1.0" encoding="iso-8859-1"?>
<!-- Generator: Adobe Illustrator 29.5.1, SVG Export Plug-In . SVG Version: 9.03 Build 0)  -->
<svg version="1.1" xmlns="http://www.w3.org/2000/svg" xmlns:xlink="http://www.w3.org/1999/xlink" x="0px" y="0px"
	 viewBox="0 0 300 300" style="enable-background:new 0 0 300 300;" xml:space="preserve">
<g id="Mouth_20">
	<g>
		<g>
			<path style="fill:#1C82AF;" d="M165.864,154.975c1.304,0.539,1.899,2.041,1.332,3.346c-0.538,1.275-2.041,1.87-3.345,1.332
				c-5.358-1.19-11.254-1.247-16.781,1.445c-1.105,0.851-2.693,0.652-3.543-0.453c-0.879-1.106-0.681-2.693,0.425-3.572
				c3.175-2.466,6.633-3.883,10.347-4.223C157.955,152.509,161.839,153.218,165.864,154.975L165.864,154.975z"/>
			<path style="fill-rule:evenodd;clip-rule:evenodd;fill:#FFFFFF;" d="M145.426,153.02c1.503-0.426,3.374,1.587,4.139,4.478
				c0.766,2.863,0.17,5.527-1.36,5.953c-1.502,0.396-3.373-1.616-4.139-4.48C143.3,156.08,143.895,153.416,145.426,153.02
				L145.426,153.02z"/>
			<path style="fill-rule:evenodd;clip-rule:evenodd;fill:#FFFFFF;" d="M165.297,152.934c1.219,0.341,1.701,2.495,1.077,4.819
				c-0.623,2.352-2.126,3.969-3.345,3.628c-1.247-0.312-1.729-2.494-1.105-4.818C162.548,154.238,164.05,152.622,165.297,152.934
				L165.297,152.934z"/>
			<path style="fill:#1B7493;" d="M166.261,158.547c1.304,0.566,1.9,2.069,1.332,3.345c-0.538,1.304-2.041,1.9-3.345,1.332
				c-5.357-1.162-11.253-1.219-16.781,1.446c-1.105,0.879-2.692,0.68-3.571-0.426c-0.851-1.105-0.652-2.693,0.453-3.571
				c3.175-2.466,6.634-3.884,10.347-4.224C158.352,156.109,162.207,156.817,166.261,158.547L166.261,158.547z"/>
		</g>
	</g>
</g>
<g id="Layer_1">
</g>
</svg>
