<?xml version="1.0" encoding="iso-8859-1"?>
<!-- Generator: Adobe Illustrator 29.5.1, SVG Export Plug-In . SVG Version: 9.03 Build 0)  -->
<svg version="1.1" xmlns="http://www.w3.org/2000/svg" xmlns:xlink="http://www.w3.org/1999/xlink" x="0px" y="0px"
	 viewBox="0 0 300 300" style="enable-background:new 0 0 300 300;" xml:space="preserve">
<g id="Mouth_17">
	<g>
		<path style="fill-rule:evenodd;clip-rule:evenodd;fill:#231915;" d="M155.393,158.65c7.568,0,14.429-2.92,19.191-5.018
			c5.101-2.238,7.965-2.579,7.965,1.389c0,3.941-2.721,10.092-7.965,14.684c-4.621,4.055-11.707,6.066-19.191,6.492
			c-7.512-0.426-14.598-2.467-19.219-6.52c-5.215-4.564-7.965-10.715-7.965-14.656c0-3.968,2.891-3.627,7.965-1.389
			C140.935,155.73,147.795,158.65,155.393,158.65L155.393,158.65z"/>
		<path style="fill-rule:evenodd;clip-rule:evenodd;fill:#FEFEFE;" d="M135.777,153.463v9.525c0,1.303-1.077,2.381-2.381,2.381l0,0
			c-0.596,0-1.162-0.227-1.588-0.596c-0.227-0.369-0.482-0.736-0.68-1.105c-0.086-0.199-0.113-0.426-0.113-0.68v-10.999
			C132.234,152.074,133.821,152.613,135.777,153.463L135.777,153.463z M155.393,158.65c0.793,0,1.588-0.027,2.381-0.084v4.422
			c0,1.303-1.076,2.381-2.381,2.381l0,0c-1.305,0-2.381-1.078-2.381-2.381v-4.422C153.805,158.623,154.6,158.65,155.393,158.65
			L155.393,158.65z M158.512,158.48c1.644-0.17,3.23-0.453,4.762-0.793v5.301c0,1.303-1.078,2.381-2.381,2.381l0,0
			c-1.305,0-2.381-1.078-2.381-2.381V158.48z M164.01,157.488c1.673-0.426,3.26-0.936,4.763-1.475v6.975
			c0,1.303-1.077,2.381-2.382,2.381l0,0c-1.303,0-2.381-1.078-2.381-2.381V157.488z M169.51,155.73
			c1.758-0.651,3.345-1.332,4.762-1.955v9.213c0,1.303-1.077,2.381-2.381,2.381l0,0c-1.305,0-2.381-1.078-2.381-2.381V155.73z
			 M175.009,153.436c1.956-0.822,3.543-1.361,4.763-1.446v10.999c0,0.227-0.029,0.453-0.086,0.68
			c-0.226,0.369-0.481,0.736-0.736,1.105c-0.426,0.369-0.965,0.596-1.56,0.596l0,0c-1.304,0-2.381-1.078-2.381-2.381V153.436z
			 M177.674,166.475c-0.795,0.992-1.673,1.928-2.665,2.834v-0.48c0-1.305,1.077-2.383,2.381-2.383l0,0
			C177.503,166.445,177.588,166.475,177.674,166.475L177.674,166.475z M174.271,169.961c-1.389,1.162-3.004,2.154-4.762,2.977
			v-4.109c0-1.305,1.076-2.383,2.381-2.383l0,0c1.304,0,2.381,1.078,2.381,2.383V169.961z M168.772,173.277
			c-1.503,0.652-3.09,1.191-4.763,1.615v-6.064c0-1.305,1.078-2.383,2.381-2.383l0,0c1.305,0,2.382,1.078,2.382,2.383V173.277z
			 M163.273,175.092c-1.531,0.34-3.118,0.623-4.762,0.822v-7.086c0-1.305,1.076-2.383,2.381-2.383l0,0
			c1.303,0,2.381,1.078,2.381,2.383V175.092z M157.773,175.998c-0.793,0.086-1.588,0.143-2.381,0.199
			c-0.793-0.057-1.588-0.113-2.381-0.199v-7.17c0-1.305,1.076-2.383,2.381-2.383l0,0c1.305,0,2.381,1.078,2.381,2.383V175.998z
			 M152.275,175.914c-1.645-0.199-3.233-0.482-4.763-0.822v-6.264c0-1.305,1.077-2.383,2.381-2.383l0,0
			c1.304,0,2.382,1.078,2.382,2.383V175.914z M146.775,174.893c-1.672-0.424-3.26-0.963-4.762-1.615v-4.449
			c0-1.305,1.076-2.383,2.381-2.383l0,0c1.304,0,2.381,1.078,2.381,2.383V174.893z M141.276,172.938
			c-1.757-0.822-3.373-1.785-4.763-2.947v-1.162c0-1.305,1.078-2.383,2.381-2.383l0,0c1.305,0,2.382,1.078,2.382,2.383V172.938z
			 M135.777,169.309c-0.992-0.879-1.9-1.842-2.693-2.834c0.113,0,0.199-0.029,0.313-0.029l0,0c1.304,0,2.381,1.078,2.381,2.383
			V169.309z M136.513,153.775c1.418,0.623,3.006,1.304,4.763,1.984v7.229c0,1.303-1.077,2.381-2.382,2.381l0,0
			c-1.303,0-2.381-1.078-2.381-2.381V153.775z M142.013,156.014c1.502,0.539,3.09,1.049,4.762,1.475v5.5
			c0,1.303-1.077,2.381-2.381,2.381l0,0c-1.305,0-2.381-1.078-2.381-2.381V156.014z M147.512,157.688
			c1.53,0.367,3.118,0.623,4.763,0.793v4.508c0,1.303-1.078,2.381-2.382,2.381l0,0c-1.304,0-2.381-1.078-2.381-2.381V157.688z"/>
		<path style="fill:#1C82AF;" d="M155.393,156.1c3.516,0,6.86-0.68,9.922-1.588c3.061-0.936,5.896-2.182,8.248-3.203
			c2.92-1.304,5.301-2.012,7.172-1.842c2.863,0.283,4.365,1.955,4.365,5.555c0,2.496-0.85,5.643-2.579,8.789
			c-1.446,2.664-3.544,5.414-6.265,7.795c-2.467,2.182-5.556,3.826-8.957,4.961c-3.629,1.246-7.654,1.928-11.764,2.182
			c-0.113,0-0.199,0-0.285,0c-4.137-0.254-8.163-0.963-11.763-2.182c-3.43-1.162-6.491-2.779-8.985-4.961
			c-2.693-2.381-4.791-5.131-6.266-7.824c-1.7-3.146-2.551-6.293-2.551-8.76c0-3.6,1.502-5.271,4.365-5.555
			c1.871-0.17,4.252,0.538,7.143,1.842c2.353,1.021,5.216,2.268,8.277,3.203C148.504,155.42,151.877,156.1,155.393,156.1
			L155.393,156.1z M166.788,159.359c-3.458,1.049-7.313,1.814-11.395,1.814c-4.082,0-7.937-0.766-11.395-1.814
			c-24.662-12.558-10.658,12.643,11.395,14.287c3.629-0.227,7.143-0.822,10.262-1.9c2.834-0.936,5.329-2.267,7.257-3.967
			c2.211-1.928,3.941-4.195,5.13-6.408C184.363,149.75,171.777,157.857,166.788,159.359L166.788,159.359z"/>
	</g>
</g>
<g id="Layer_1">
</g>
</svg>
