<?xml version="1.0" encoding="iso-8859-1"?>
<!-- Generator: Adobe Illustrator 29.5.1, SVG Export Plug-In . SVG Version: 9.03 Build 0)  -->
<svg version="1.1" xmlns="http://www.w3.org/2000/svg" xmlns:xlink="http://www.w3.org/1999/xlink" x="0px" y="0px"
	 viewBox="0 0 300 300" style="enable-background:new 0 0 300 300;" xml:space="preserve">
<g id="Mouth_15">
	<g>
		<path style="fill-rule:evenodd;clip-rule:evenodd;fill:#1C82AF;" d="M161.061,153.392h-5.669h-5.67
			c-4.336,0-7.881,3.544-7.881,7.88l0,0c0,4.338,3.545,7.852,7.881,7.852h5.67h5.669c4.338,0,7.881-3.514,7.881-7.852l0,0
			C168.942,156.936,165.399,153.392,161.061,153.392L161.061,153.392z"/>
		<path style="fill-rule:evenodd;clip-rule:evenodd;fill:#FEFEFE;" d="M155.25,165.523v-4.252h-4.847v4.252
			c0,1.332,1.078,2.438,2.41,2.438S155.25,166.855,155.25,165.523L155.25,165.523z M155.533,161.271v4.252
			c0,1.332,1.106,2.438,2.438,2.438c1.334,0,2.439-1.105,2.439-2.438v-4.252H155.533z"/>
	</g>
</g>
<g id="Layer_1">
</g>
</svg>
