<?xml version="1.0" encoding="iso-8859-1"?>
<!-- Generator: Adobe Illustrator 29.5.1, SVG Export Plug-In . SVG Version: 9.03 Build 0)  -->
<svg version="1.1" xmlns="http://www.w3.org/2000/svg" xmlns:xlink="http://www.w3.org/1999/xlink" x="0px" y="0px"
	 viewBox="0 0 300 300" style="enable-background:new 0 0 300 300;" xml:space="preserve">
<g id="Mouth_12">
	<g>
		<path style="fill-rule:evenodd;clip-rule:evenodd;fill:#231915;" d="M157.561,152.959c5.414,0,9.354,0.283,11.678,1.814
			c6.406,4.225,2.779,20.779,0.029,26.137c-2.184,4.195-6.293,6.83-11.707,7.029c-5.414-0.227-10.801-2.693-14.23-7.029
			c-3.6-4.537-5.357-10.658-5.357-16.073c0-5.414,2.041-8.617,5.357-10.063C147.044,153.186,152.118,152.959,157.561,152.959
			L157.561,152.959z"/>
		<path style="fill:#1C82AF;" d="M157.561,150.408c2.777,0,5.215,0.085,7.342,0.368c2.324,0.312,4.223,0.878,5.754,1.9
			c3.459,2.267,4.705,6.859,4.705,11.905c0,6.52-2.098,14.088-3.855,17.49c-1.303,2.551-3.23,4.619-5.641,6.064
			c-2.324,1.418-5.102,2.24-8.191,2.354c-0.086,0-0.17,0-0.256,0c-3.09-0.141-6.18-0.906-8.957-2.295
			c-2.721-1.361-5.188-3.289-7.115-5.727c-1.928-2.41-3.373-5.244-4.365-8.164c-1.049-3.146-1.559-6.406-1.559-9.468
			c0-3.032,0.596-5.556,1.672-7.568c1.219-2.268,3.004-3.855,5.244-4.818c2.098-0.908,4.535-1.418,7.199-1.702
			C152.091,150.464,154.811,150.408,157.561,150.408L157.561,150.408z M146.647,156.36c-1.02,4.082-1.701,8.135-1.645,12.189
			c0.057,4.166,0.936,8.391,2.184,12.727c1.076,0.936,2.238,1.73,3.514,2.354c1.022-4.395,1.758-8.873,1.844-13.436
			c0.113-4.82-0.539-9.667-1.502-14.486c-0.342,0.029-0.652,0.057-0.965,0.086C148.858,155.935,147.726,156.105,146.647,156.36
			L146.647,156.36z M142.651,174.814c0.424-2.125,0.736-4.252,0.793-6.434c0.086-3.26-0.369-6.549-1.105-9.836
			c-0.283,0.34-0.539,0.707-0.766,1.133c-0.68,1.248-1.049,2.948-1.049,5.159c0,2.552,0.426,5.272,1.275,7.853
			C142.056,173.398,142.339,174.105,142.651,174.814L142.651,174.814z M155.69,155.511c-0.992,4.96-1.645,9.893-1.588,14.824
			c0.086,4.932,0.879,9.865,2.014,14.939c0.48,0.057,0.963,0.113,1.445,0.141c0.793-0.057,1.529-0.141,2.238-0.283
			c0.709-4.904,1.248-9.865,1.305-14.938c0.057-4.877-0.34-9.78-0.908-14.656c-0.82-0.027-1.699-0.027-2.635-0.027
			C156.936,155.511,156.313,155.511,155.69,155.511L155.69,155.511z M162.946,155.681c-0.566,4.903-0.936,9.779-0.906,14.654
			c0.027,4.479,0.426,8.986,1.02,13.578l0.199-0.143c1.588-0.963,2.863-2.324,3.742-4.023c1.502-2.92,3.287-9.439,3.287-15.166
			c0-3.486-0.652-6.492-2.438-7.682c-0.822-0.539-2.041-0.879-3.629-1.078C163.825,155.765,163.399,155.708,162.946,155.681
			L162.946,155.681z"/>
	</g>
</g>
<g id="Layer_1">
</g>
</svg>
