<?xml version="1.0" encoding="iso-8859-1"?>
<!-- Generator: Adobe Illustrator 29.5.1, SVG Export Plug-In . SVG Version: 9.03 Build 0)  -->
<svg version="1.1" xmlns="http://www.w3.org/2000/svg" xmlns:xlink="http://www.w3.org/1999/xlink" x="0px" y="0px"
	 viewBox="0 0 300 300" style="enable-background:new 0 0 300 300;" xml:space="preserve">
<g id="Mouth_16">
	<g>
		<path style="fill-rule:evenodd;clip-rule:evenodd;fill:#FEFEFE;" d="M154.202,171.035l-1.162,9.639
			c-0.51,4.109-4.28,7.086-8.419,6.576l0,0c-4.11-0.512-7.087-4.281-6.577-8.42l1.56-12.699
			C143.431,168.795,148.532,170.582,154.202,171.035L154.202,171.035z"/>
		<path style="fill-rule:evenodd;clip-rule:evenodd;fill:#FEFEFE;" d="M172.372,167.379v12.926c0,4.166-3.401,7.568-7.568,7.568l0,0
			c-4.139,0-7.54-3.402-7.54-7.568v-9.184C162.989,171.092,168.233,169.674,172.372,167.379L172.372,167.379z"/>
		<path style="fill:#1C82AF;" d="M183.71,146.601c0-1.418,1.135-2.552,2.553-2.552c1.389,0,2.551,1.134,2.551,2.552
			c0,17.235-18.199,26.872-33.421,26.872c-15.222,0-33.421-9.637-33.421-26.872c0-1.418,1.162-2.552,2.552-2.552
			c1.417,0,2.552,1.134,2.552,2.552C129.03,171.348,185.524,170.156,183.71,146.601L183.71,146.601z"/>
	</g>
</g>
<g id="Layer_1">
</g>
</svg>
