<?xml version="1.0" encoding="iso-8859-1"?>
<!-- Generator: Adobe Illustrator 29.5.1, SVG Export Plug-In . SVG Version: 9.03 Build 0)  -->
<svg version="1.1" xmlns="http://www.w3.org/2000/svg" xmlns:xlink="http://www.w3.org/1999/xlink" x="0px" y="0px"
	 viewBox="0 0 300 300" style="enable-background:new 0 0 300 300;" xml:space="preserve">
<g id="Mouth_13">
	<g>
		<path style="fill-rule:evenodd;clip-rule:evenodd;fill:#231915;" d="M137.632,157.644c5.668,1.361,11.367,2.154,17.064,2.127
			c5.697-0.029,11.395-0.852,17.064-2.211c1.871-0.453,3.826-0.143,5.441,1.076c1.645,1.248,2.723,3.656,2.666,5.727
			c-0.113,2.523-1.078,5.074-2.637,7.002c-7.428,9.127-38.381,4.848-44.277-3.656c-1.133-1.645-2.012-3.629-2.012-5.67
			c0-1.843,0.764-3.176,1.984-3.94C134.145,157.36,135.761,157.22,137.632,157.644L137.632,157.644z"/>
		<path style="fill:#1C82AF;" d="M138.255,155.093c2.721,0.652,5.471,1.162,8.248,1.502c2.693,0.341,5.443,0.539,8.193,0.512
			c2.721,0,5.471-0.199,8.191-0.568c2.75-0.367,5.527-0.906,8.25-1.559c1.303-0.312,2.691-0.369,3.996-0.085
			c1.305,0.255,2.551,0.794,3.656,1.616c1.191,0.879,2.127,2.154,2.779,3.515c0.623,1.417,0.99,2.976,0.934,4.421
			c-0.057,1.531-0.367,3.09-0.934,4.537c-0.539,1.445-1.334,2.834-2.297,4.053c-0.68,0.822-1.531,1.588-2.467,2.24
			c-5.018,3.486-13.748,4.393-22.279,3.543c-8.447-0.852-16.895-3.486-21.373-7.115c-0.965-0.766-1.758-1.615-2.381-2.494
			c-0.738-1.078-1.391-2.24-1.814-3.486c-0.426-1.162-0.682-2.41-0.682-3.658c0-1.332,0.283-2.521,0.795-3.543
			c0.566-1.133,1.416-2.012,2.438-2.664c0.963-0.596,2.041-0.936,3.23-1.049C135.845,154.696,137.007,154.781,138.255,155.093
			L138.255,155.093z M145.823,161.839c-2.947-0.367-5.867-0.906-8.787-1.615c-0.68-0.142-1.275-0.198-1.758-0.17
			c-0.396,0.057-0.709,0.142-0.963,0.312c-0.227,0.141-0.396,0.311-0.512,0.537c-0.141,0.284-0.227,0.652-0.227,1.135
			c0,0.623,0.143,1.275,0.369,1.898c0.283,0.822,0.709,1.588,1.162,2.268c0.34,0.455,0.793,0.936,1.389,1.389
			c3.686,3.006,11.027,5.188,18.539,5.953c7.426,0.766,14.854,0.086,18.766-2.607c0.539-0.369,0.992-0.793,1.359-1.248
			c0.596-0.736,1.107-1.615,1.447-2.578c0.367-0.908,0.566-1.871,0.594-2.836c0.029-0.65-0.141-1.359-0.453-2.012
			c-0.283-0.623-0.68-1.162-1.162-1.531c-0.453-0.34-0.963-0.566-1.475-0.651c-0.566-0.114-1.162-0.114-1.756,0.057
			c-2.92,0.708-5.84,1.276-8.76,1.644c-2.977,0.396-5.953,0.625-8.9,0.652C151.776,162.435,148.8,162.235,145.823,161.839
			L145.823,161.839z"/>
	</g>
</g>
<g id="Layer_1">
</g>
</svg>
