<?xml version="1.0" encoding="iso-8859-1"?>
<!-- Generator: Adobe Illustrator 29.5.1, SVG Export Plug-In . SVG Version: 9.03 Build 0)  -->
<svg version="1.1" xmlns="http://www.w3.org/2000/svg" xmlns:xlink="http://www.w3.org/1999/xlink" x="0px" y="0px"
	 viewBox="0 0 300 300" style="enable-background:new 0 0 300 300;" xml:space="preserve">
<g id="Mouth_7">
	<g>
		<path style="fill:#008CD6;" d="M123.044,160.767c-0.795-1.701-0.086-3.713,1.588-4.535c1.699-0.822,3.713-0.113,4.535,1.588
			c1.303,2.691,2.891,5.016,4.732,7.029c5.074,5.471,11.963,8.418,19.278,9.184c7.481,0.795,15.362-0.68,22.194-3.969
			c3.373-1.615,6.463-3.684,9.154-6.15c1.361-1.275,3.516-1.191,4.791,0.197c1.248,1.361,1.162,3.516-0.197,4.791
			c-3.176,2.92-6.832,5.357-10.801,7.258c-7.938,3.854-17.121,5.527-25.851,4.619c-8.874-0.936-17.292-4.562-23.557-11.338
			C126.644,166.974,124.66,164.083,123.044,160.767L123.044,160.767z"/>
		<path style="fill:#0089BF;" d="M125.738,159.462c-0.113-0.197-0.029-0.453,0.197-0.566c0.199-0.086,0.453,0,0.566,0.199
			c1.418,2.977,3.203,5.555,5.217,7.766c5.584,6.039,13.152,9.299,21.147,10.121c8.02,0.85,16.468-0.709,23.81-4.252
			c3.629-1.758,6.973-3.969,9.836-6.635c0.199-0.17,0.453-0.141,0.625,0.029c0.141,0.17,0.141,0.426-0.029,0.596
			c-2.947,2.721-6.377,4.988-10.062,6.773c-7.484,3.602-16.102,5.188-24.265,4.338c-8.192-0.85-15.959-4.195-21.684-10.402
			C129.025,165.159,127.21,162.525,125.738,159.462L125.738,159.462z"/>
		<path style="fill-rule:evenodd;clip-rule:evenodd;fill:#FEFEFE;" d="M131.009,167.316c-1.871-2.041-3.543-4.424-4.932-7.115
			c-1.561,0.68-2.666,2.238-2.666,4.053c0,2.438,1.984,4.422,4.424,4.422C129.081,168.675,130.216,168.165,131.009,167.316
			L131.009,167.316z M179.509,172.218c0.482,1.9,2.213,3.289,4.252,3.289c2.439,0,4.424-1.984,4.424-4.422
			c0-1.502-0.766-2.836-1.9-3.629C184.216,169.241,181.919,170.858,179.509,172.218L179.509,172.218z M170.722,175.989
			c0.283,2.182,2.127,3.883,4.395,3.883c2.438,0,4.422-1.984,4.422-4.422c0-1.049-0.369-1.984-0.963-2.721
			c-0.512,0.254-1.021,0.51-1.531,0.764C175.003,174.485,172.905,175.308,170.722,175.989L170.722,175.989z M158.731,178.314
			c0,2.438,1.984,4.393,4.422,4.393s4.422-1.955,4.422-4.393c0-0.512-0.084-0.965-0.227-1.418c-2.834,0.652-5.725,1.021-8.588,1.135
			C158.731,178.114,158.731,178.228,158.731,178.314L158.731,178.314z M144.417,178.171c0,2.438,1.984,4.422,4.422,4.422
			c2.438,0,4.395-1.984,4.395-4.422c0-0.084,0-0.197,0-0.283c-0.143-0.029-0.312-0.029-0.455-0.057
			c-2.692-0.283-5.329-0.822-7.879-1.672C144.587,176.782,144.417,177.462,144.417,178.171L144.417,178.171z M131.974,168.335
			c-0.879,0.822-1.447,1.984-1.447,3.289c0,2.438,1.984,4.422,4.422,4.422c1.73,0,3.232-1.021,3.941-2.496
			C136.396,172.161,134.072,170.433,131.974,168.335L131.974,168.335z"/>
	</g>
</g>
<g id="Layer_1">
</g>
</svg>
