<?xml version="1.0" encoding="iso-8859-1"?>
<!-- Generator: Adobe Illustrator 29.5.1, SVG Export Plug-In . SVG Version: 9.03 Build 0)  -->
<svg version="1.1" xmlns="http://www.w3.org/2000/svg" xmlns:xlink="http://www.w3.org/1999/xlink" x="0px" y="0px"
	 viewBox="0 0 300 300" style="enable-background:new 0 0 300 300;" xml:space="preserve">
<g id="Mouth_1">
	<g>
		<path style="fill-rule:evenodd;clip-rule:evenodd;fill:#FFFFFF;" d="M173.233,156.977c-0.793-2.807-2.777-4.791-5.102-4.791
			c-3.033,0-5.5,3.373-5.5,7.541C166.118,158.365,169.747,157.402,173.233,156.977L173.233,156.977z M180.206,151.25
			c-2.521,0-4.648,2.354-5.301,5.557c2.268-0.17,4.479-0.086,6.549,0.256c1.559,0.227,3.004,0.65,4.252,1.246
			C185.507,154.369,183.126,151.25,180.206,151.25L180.206,151.25z"/>
		<path style="fill:#1C82AF;" d="M173.034,170.299h0.029h0.084c2.977,0.227,17.121,0.908,12.02-6.547
			c-0.766-1.135-2.381-1.844-4.508-2.184c-12.414-2.012-28.176,5.5-38.182,11.623c7.768-9.979,25.795-18.766,38.977-16.641
			c3.486,0.568,6.264,1.928,7.908,4.338c1.502,2.182,1.928,5.018,0.963,8.674c-1.643,5.953-9.58,6.123-16.979,5.84
			c-3.686,1.588-5.84,7.143-6.123,10.459c-1.645-3.26-0.936-8.021-0.17-10.686c-1.248,0-2.324,0.057-3.09,0.197
			c-1.389,0.283-2.721-0.596-3.004-1.984c-0.285-1.389,0.623-2.721,1.984-3.004c2.154-0.426,5.271-0.283,8.674-0.143
			L173.034,170.299z"/>
	</g>
</g>
<g id="Layer_1">
</g>
</svg>
