<?xml version="1.0" encoding="iso-8859-1"?>
<!-- Generator: Adobe Illustrator 29.5.1, SVG Export Plug-In . SVG Version: 9.03 Build 0)  -->
<svg version="1.1" xmlns="http://www.w3.org/2000/svg" xmlns:xlink="http://www.w3.org/1999/xlink" x="0px" y="0px"
	 viewBox="0 0 300 300" style="enable-background:new 0 0 300 300;" xml:space="preserve">
<g id="Mouth_10">
	<g>
		<path style="fill-rule:evenodd;clip-rule:evenodd;fill:#1C82AF;" d="M135.563,154.892h39.658c4.336,0,7.879,3.544,7.879,7.88l0,0
			c0,4.338-3.543,7.852-7.879,7.852h-39.658c-4.336,0-7.879-3.514-7.879-7.852l0,0C127.685,158.436,131.227,154.892,135.563,154.892
			L135.563,154.892z"/>
		<path style="fill-rule:evenodd;clip-rule:evenodd;fill:#FEFEFE;" d="M137.237,162.771v4.252c0,1.332-1.105,2.438-2.438,2.438l0,0
			c-1.334,0-2.439-1.105-2.439-2.438v-4.252H137.237z M178.425,162.771v4.252c0,1.332-1.105,2.438-2.438,2.438l0,0
			c-1.334,0-2.41-1.105-2.41-2.438v-4.252H178.425z M173.265,162.771v4.252c0,1.332-1.076,2.438-2.408,2.438l0,0
			c-1.334,0-2.439-1.105-2.439-2.438v-4.252H173.265z M168.134,162.771v4.252c0,1.332-1.105,2.438-2.438,2.438l0,0
			c-1.332,0-2.438-1.105-2.438-2.438v-4.252H168.134z M162.976,162.771v4.252c0,1.332-1.105,2.438-2.438,2.438l0,0
			c-1.332,0-2.41-1.105-2.41-2.438v-4.252H162.976z M157.815,162.771v4.252c0,1.332-1.076,2.438-2.408,2.438l0,0
			c-1.332,0-2.438-1.105-2.438-2.438v-4.252H157.815z M152.686,162.771v4.252c0,1.332-1.107,2.438-2.439,2.438l0,0
			c-1.332,0-2.438-1.105-2.438-2.438v-4.252H152.686z M147.526,162.771v4.252c0,1.332-1.105,2.438-2.438,2.438l0,0
			c-1.332,0-2.41-1.105-2.41-2.438v-4.252H147.526z M142.368,162.771v4.252c0,1.332-1.078,2.438-2.41,2.438l0,0
			c-1.332,0-2.438-1.105-2.438-2.438v-4.252H142.368z"/>
	</g>
</g>
<g id="Layer_1">
</g>
</svg>
