<?xml version="1.0" encoding="iso-8859-1"?>
<!-- Generator: Adobe Illustrator 29.5.1, SVG Export Plug-In . SVG Version: 9.03 Build 0)  -->
<svg version="1.1" xmlns="http://www.w3.org/2000/svg" xmlns:xlink="http://www.w3.org/1999/xlink" x="0px" y="0px"
	 viewBox="0 0 300 300" style="enable-background:new 0 0 300 300;" xml:space="preserve">
<g id="Mouth_3">
	<g>
		<path style="fill:#1C82AF;" d="M174.05,157.419c1.105-1.475,3.23-1.786,4.732-0.652c1.504,1.105,1.787,3.231,0.682,4.734
			c-6.152,8.191-14.826,11.764-23.104,12.132c-3.543,0.142-7.002-0.283-10.148-1.191c-3.23-0.936-6.178-2.352-8.617-4.195
			c-4.082-3.062-6.717-7.229-6.943-12.047c-0.057-1.871,1.389-3.431,3.26-3.516c1.871-0.085,3.43,1.361,3.514,3.232
			c0.113,2.637,1.73,5.046,4.252,6.917c1.758,1.332,3.941,2.381,6.379,3.09c2.521,0.709,5.244,1.049,8.021,0.936
			C162.513,166.575,169.259,163.797,174.05,157.419L174.05,157.419z"/>
		<path style="fill:#176682;" d="M176.401,159.204c0.143-0.17,0.426-0.227,0.596-0.085c0.199,0.142,0.227,0.397,0.086,0.596
			c-5.529,7.398-13.381,10.63-20.836,10.941c-3.23,0.142-6.35-0.255-9.24-1.077c-2.863-0.822-5.471-2.098-7.625-3.684
			c-3.402-2.552-5.584-5.953-5.756-9.808c0-0.228,0.172-0.426,0.398-0.454c0.227,0,0.424,0.17,0.453,0.425
			c0.141,3.572,2.211,6.747,5.414,9.156c2.041,1.531,4.564,2.75,7.342,3.543c2.807,0.822,5.867,1.191,8.957,1.049
			C163.448,169.494,171.044,166.376,176.401,159.204L176.401,159.204z"/>
		<path style="fill-rule:evenodd;clip-rule:evenodd;fill:#FFFFFF;" d="M144.227,176.411c0.539,0.822,1.277,1.417,2.156,1.644
			c1.332,0.368,2.748-0.142,3.996-1.247c0.906-0.794,1.701-1.899,2.324-3.231c0.312-0.651,0.566-1.332,0.766-2.069
			c0.084-0.283,0.141-0.566,0.197-0.851c-2.324-0.085-4.563-0.453-6.66-1.077c-1.162-0.34-2.268-0.736-3.346-1.19
			c-0.027,0.142-0.084,0.284-0.113,0.454c-0.254,0.85-0.367,1.7-0.426,2.522C143.009,173.378,143.407,175.163,144.227,176.411
			L144.227,176.411z M155.88,173.661c0.82,2.154,2.324,3.629,3.996,3.572c1.955-0.029,3.6-2.07,4.139-4.876
			c0.141-0.737,0.227-1.503,0.197-2.324c0-0.284-0.027-0.567-0.057-0.851c-2.607,0.907-5.271,1.36-7.908,1.474
			c-0.34,0.028-0.652,0.028-0.963,0.028C155.341,171.762,155.567,172.754,155.88,173.661L155.88,173.661z"/>
	</g>
</g>
<g id="Layer_1">
</g>
</svg>
