<?xml version="1.0" encoding="iso-8859-1"?>
<!-- Generator: Adobe Illustrator 29.5.1, SVG Export Plug-In . SVG Version: 9.03 Build 0)  -->
<svg version="1.1" xmlns="http://www.w3.org/2000/svg" xmlns:xlink="http://www.w3.org/1999/xlink" x="0px" y="0px"
	 viewBox="0 0 300 300" style="enable-background:new 0 0 300 300;" xml:space="preserve">
<g id="Mouth_18">
	<g>
		<path style="fill-rule:evenodd;clip-rule:evenodd;fill:#1C82AF;" d="M155.393,180.873c10.432,0,18.935-6.859,18.935-15.277
			c0-8.42-8.504-15.279-18.935-15.279c-10.432,0-18.936,6.859-18.936,15.279C136.456,174.014,144.96,180.873,155.393,180.873
			L155.393,180.873z"/>
		<path style="fill-rule:evenodd;clip-rule:evenodd;fill:#231915;" d="M155.393,172.115c9.439,0,17.121-2.92,17.121-6.52
			c0-3.6-7.682-6.52-17.121-6.52c-9.411,0-17.092,2.92-17.092,6.52C138.3,169.195,145.982,172.115,155.393,172.115L155.393,172.115z
			"/>
		<path style="fill-rule:evenodd;clip-rule:evenodd;fill:#FEFEFE;" d="M155.393,159.076c1.162,0,2.297,0.027,3.402,0.113
			c0.057,0.254,0.084,0.51,0.084,0.765c0,1.929-1.559,3.487-3.486,3.487c-1.928,0-3.486-1.559-3.486-3.487
			c0-0.255,0.027-0.511,0.084-0.765C153.096,159.104,154.23,159.076,155.393,159.076L155.393,159.076z M159.588,159.273
			c2.552,0.227,4.876,0.709,6.832,1.332c-0.283,1.617-1.701,2.836-3.402,2.836c-1.927,0-3.486-1.559-3.486-3.487
			C159.531,159.727,159.56,159.473,159.588,159.273L159.588,159.273z M167.269,160.891c1.844,0.68,3.289,1.502,4.195,2.438
			c-0.283,0.084-0.566,0.113-0.85,0.113C169.027,163.441,167.667,162.363,167.269,160.891L167.269,160.891z M171.465,167.863
			c-0.906,0.906-2.352,1.758-4.195,2.438c0.398-1.475,1.758-2.551,3.346-2.551C170.898,167.75,171.182,167.777,171.465,167.863
			L171.465,167.863z M166.42,170.584c-1.956,0.623-4.28,1.105-6.832,1.332c-0.027-0.227-0.057-0.453-0.057-0.68
			c0-1.928,1.56-3.486,3.486-3.486C164.719,167.75,166.137,168.969,166.42,170.584L166.42,170.584z M158.795,172.002
			c-1.105,0.084-2.24,0.113-3.402,0.113c-1.162,0-2.297-0.029-3.402-0.113c-0.057-0.256-0.084-0.51-0.084-0.766
			c0-1.928,1.559-3.486,3.486-3.486c1.928,0,3.486,1.559,3.486,3.486C158.879,171.492,158.852,171.746,158.795,172.002
			L158.795,172.002z M151.197,171.916c-2.551-0.227-4.875-0.709-6.832-1.332c0.311-1.615,1.729-2.834,3.43-2.834
			c1.899,0,3.458,1.559,3.458,3.486C151.254,171.463,151.254,171.689,151.197,171.916L151.197,171.916z M143.515,170.301
			c-1.842-0.68-3.288-1.531-4.166-2.438c0.254-0.086,0.537-0.113,0.821-0.113C141.757,167.75,143.119,168.826,143.515,170.301
			L143.515,170.301z M139.349,163.328c0.878-0.936,2.324-1.758,4.166-2.438c-0.396,1.473-1.758,2.551-3.345,2.551
			C139.886,163.441,139.603,163.412,139.349,163.328L139.349,163.328z M144.366,160.605c1.956-0.623,4.28-1.105,6.832-1.332
			c0.057,0.199,0.057,0.453,0.057,0.681c0,1.929-1.559,3.487-3.458,3.487C146.095,163.441,144.677,162.223,144.366,160.605
			L144.366,160.605z"/>
	</g>
</g>
<g id="Layer_1">
</g>
</svg>
