<?xml version="1.0" encoding="iso-8859-1"?>
<!-- Generator: Adobe Illustrator 29.5.1, SVG Export Plug-In . SVG Version: 9.03 Build 0)  -->
<svg version="1.1" xmlns="http://www.w3.org/2000/svg" xmlns:xlink="http://www.w3.org/1999/xlink" x="0px" y="0px"
	 viewBox="0 0 300 300" style="enable-background:new 0 0 300 300;" xml:space="preserve">
<g id="Skin_6">
	<path style="fill-rule:evenodd;clip-rule:evenodd;fill:#9ED8F6;" d="M151.719,94.662c-2.211,0-4.252,0.142-6.208,0.426l-2.24,3.912
		l-4.109-2.354c-3.373,1.163-6.322,2.864-8.844,4.933l-0.625,1.049l-0.368-0.227c-0.851,0.793-1.673,1.587-2.41,2.466l1.134,0.652
		l-3.316,5.698l-1.7-0.964c-0.567,0.935-1.077,1.928-1.56,2.92l1.588,0.936l-3.288,5.726l-0.737-0.425
		c-1.36,4.337-2.211,8.985-2.665,13.748l5.387,3.118l-3.317,5.697l-2.494-1.445c0,1.304,0,2.579,0.028,3.854l0.794,0.482
		l-0.737,1.332c0.057,1.757,0.17,3.514,0.312,5.215l0.057,0.767l3.261-5.642l5.726,3.288l-3.316,5.727l-5.67-3.289
		c0.143,1.361,0.284,2.721,0.454,4.082l3.571,2.07l-2.636,4.535c0.34,2.041,0.708,4.053,1.105,6.066l5.159,2.975l-3.288,5.67
		l0.17,0.709l-1.105,0.906c-0.397,0.312-0.822,0.652-1.219,1.021l0.481,0.283l-3.316,5.697l-1.645-0.936
		c-0.623,0.936-1.134,1.957-1.474,2.977l1.474,0.852l-1.927,3.287c0.057,0.226,0.085,0.453,0.142,0.652
		c0.283,1.162,0.793,2.24,1.474,3.203l3.175-5.471l5.726,3.287l-3.288,5.727l-5.216-3.004c3.005,3.77,8.561,6.207,12.614,7.426
		c0.198,0.057,0.369,0.113,0.539,0.17l-5.074-2.947l3.316-5.697l5.699,3.287l-3.204,5.557c1.105,0.312,2.239,0.566,3.401,0.793
		l2.693-4.676l5.697,3.287l-1.305,2.268c1.277,0.086,2.523,0.113,3.799,0.113l0.396-0.709l1.164,0.682
		c1.955-0.086,3.883-0.256,5.781-0.512l-5.271-3.06l3.287-5.697l5.725,3.287l-3.116,5.387c1.387-0.226,2.776-0.482,4.108-0.793
		l0.229-0.057l1.643-2.863l2.779,1.586c1.359-0.453,2.664-0.992,3.939-1.559l-5.045-2.92l3.316-5.697l5.697,3.289l-2.721,4.732
		c2.975-1.473,5.725-3.316,8.105-5.471l-0.85-0.48l3.317-5.727l2.07,1.189c0.623-0.877,1.246-1.812,1.812-2.777l-2.211-1.275
		l3.289-5.727l1.645,0.936c0.34-1.049,0.652-2.154,0.936-3.287l-0.908-0.539l1.645-2.834c0.766-3.402,1.475-6.832,2.068-10.262
		l-1.643,2.863l-5.727-3.316l3.316-5.699l4.648,2.666c0.17-1.162,0.369-2.354,0.51-3.545l-3.486-2.012l3.289-5.726l0.992,0.566
		c0.254-3.118,0.369-6.322,0.369-9.552l-2.58,4.45l-5.727-3.288l3.317-5.727l4.961,2.863c-0.027-1.332-0.086-2.637-0.17-3.94
		l-3.147-1.814l2.523-4.308c-0.312-2.184-0.709-4.309-1.191-6.379l-4.961-2.862l2.637-4.564c-1.078-2.75-2.41-5.329-3.996-7.682
		l-2.268-1.304l0.566-0.992c-0.738-0.907-1.502-1.786-2.324-2.608l-1.135,1.927l-5.697-3.288l1.559-2.721
		c-0.936-0.567-1.898-1.105-2.92-1.588l-1.529,2.637l-5.699-3.317l0.822-1.446c-1.133-0.227-2.295-0.453-3.486-0.595l-0.227,0.397
		l-0.879-0.51C154.58,94.718,153.164,94.662,151.719,94.662L151.719,94.662z M155.148,98.234l-5.698-3.289l-3.316,5.726l5.725,3.288
		L155.148,98.234z M177.654,118.841l3.289-5.697l-5.727-3.316l-3.287,5.726L177.654,118.841z M163.766,103.194l-5.727-3.288
		l-3.287,5.727l5.697,3.288L163.766,103.194z M169.037,113.881l3.316-5.698l-5.725-3.316l-3.289,5.726L169.037,113.881z
		 M133.322,116.177l3.316-5.698l-5.727-3.317l-3.288,5.726L133.322,116.177z M139.501,112.124l-3.289,5.726l5.727,3.288l3.289-5.697
		L139.501,112.124z M167.705,136.048l3.316-5.727l-5.725-3.288l-3.289,5.697L167.705,136.048z M173.914,131.994l-3.316,5.698
		l5.725,3.316l3.289-5.725L173.914,131.994z M148.119,117.112l-3.316,5.698l5.727,3.316l3.288-5.726L148.119,117.112z
		 M159.117,131.087l3.316-5.727l-5.727-3.288l-3.289,5.698L159.117,131.087z M150.187,106.851l-5.697-3.316l-3.316,5.726
		l5.727,3.288L150.187,106.851z M141.599,101.89l-5.727-3.316l-3.287,5.726l5.697,3.288L141.599,101.89z M184.572,126.693
		l-5.699-3.287l-3.316,5.697l5.727,3.316L184.572,126.693z M175.982,121.733l-5.727-3.316l-3.287,5.725l5.727,3.288L175.982,121.733
		z M158.775,111.812l-5.697-3.316l-3.315,5.726l5.725,3.288L158.775,111.812z M167.394,116.772l-5.726-3.316l-3.289,5.726
		l5.697,3.289L167.394,116.772z M140.267,124.029l-5.727-3.288l-3.287,5.697l5.725,3.318L140.267,124.029z M131.677,119.068
		l-5.725-3.288l-3.289,5.698l5.698,3.316L131.677,119.068z M174.65,143.9l-5.727-3.316l-3.287,5.726l5.725,3.288L174.65,143.9z
		 M166.06,138.911l-5.725-3.288l-3.289,5.727l5.697,3.287L166.06,138.911z M148.855,128.99l-5.697-3.288l-3.316,5.697l5.727,3.316
		L148.855,128.99z M157.443,133.951l-5.697-3.289l-3.288,5.727l5.698,3.288L157.443,133.951z M183.24,148.86l-5.699-3.317
		l-3.316,5.727l5.727,3.288L183.24,148.86z M135.306,132.618l-5.727-3.288l-3.288,5.727l5.725,3.287L135.306,132.618z
		 M123.4,133.383l3.316-5.726l-5.726-3.289l-3.288,5.727L123.4,133.383z M169.689,152.488l-5.727-3.315l-3.287,5.726l5.727,3.287
		L169.689,152.488z M157.785,153.227l3.316-5.699l-5.727-3.316l-3.289,5.725L157.785,153.227z M143.894,137.607l-5.697-3.316
		l-3.316,5.726l5.727,3.288L143.894,137.607z M149.195,148.266l3.29-5.698l-5.698-3.316l-3.316,5.726L149.195,148.266z
		 M178.279,157.449l-5.699-3.316l-3.316,5.727l5.727,3.287L178.279,157.449z M147.863,170.432l3.288-5.725l-5.696-3.289
		l-3.289,5.697L147.863,170.432z M154.043,166.379l-3.288,5.697l5.696,3.316l3.316-5.726L154.043,166.379z M128.248,151.497
		l-3.288,5.696l5.725,3.318l3.289-5.727L128.248,151.497z M139.275,165.471l3.287-5.725l-5.697-3.289l-3.316,5.697L139.275,165.471z
		 M162.631,171.34l-3.287,5.725l5.725,3.289l3.289-5.727L162.631,171.34z M171.248,176.301l-3.316,5.725l5.727,3.289l3.289-5.727
		L171.248,176.301z M130.345,141.235l-5.726-3.316l-3.288,5.726l5.697,3.289L130.345,141.235z M164.728,161.078l-5.725-3.289
		l-3.289,5.697l5.697,3.318L164.728,161.078z M156.141,156.117l-5.725-3.289l-3.289,5.699l5.698,3.316L156.141,156.117z
		 M138.935,146.196l-5.727-3.316l-3.289,5.726l5.727,3.287L138.935,146.196z M147.523,151.157l-5.697-3.317l-3.316,5.727
		l5.727,3.287L147.523,151.157z M173.318,166.039l-5.697-3.289l-3.316,5.697l5.725,3.316L173.318,166.039z M181.906,171
		l-5.697-3.289l-3.316,5.697l5.726,3.316L181.906,171z M154.809,178.283l-5.727-3.316l-3.287,5.727l5.698,3.289L154.809,178.283z
		 M146.191,173.295l-5.697-3.287l-3.316,5.725l5.727,3.289L146.191,173.295z M129.013,163.373l-5.726-3.287l-3.288,5.697
		l5.726,3.316L129.013,163.373z M137.603,168.334l-5.699-3.287l-3.316,5.725l5.726,3.289L137.603,168.334z M163.396,183.244
		l-5.727-3.316l-3.287,5.727l5.727,3.287L163.396,183.244z M171.986,188.205l-5.697-3.316l-3.318,5.727l5.727,3.287L171.986,188.205
		z M149.847,186.873l-5.725-3.316l-3.289,5.727l5.697,3.287L149.847,186.873z M137.943,187.609l3.287-5.697l-5.697-3.316
		l-3.316,5.727L137.943,187.609z M129.353,182.65l3.289-5.699l-5.727-3.316l-3.288,5.727L129.353,182.65z M158.435,191.834
		l-5.725-3.289l-3.288,5.697l5.696,3.289L158.435,191.834z M141.57,201.188l3.289-5.725l-5.697-3.289l-3.316,5.697L141.57,201.188z
		 M136.269,190.502l-5.697-3.289l-3.316,5.697l5.726,3.316L136.269,190.502z M127.681,185.541l-5.726-3.316l-3.288,5.727
		l5.726,3.287L127.681,185.541z"/>
</g>
<g id="Layer_1">
</g>
</svg>
