<?xml version="1.0" encoding="iso-8859-1"?>
<!-- Generator: Adobe Illustrator 29.5.1, SVG Export Plug-In . SVG Version: 9.03 Build 0)  -->
<svg version="1.1" xmlns="http://www.w3.org/2000/svg" xmlns:xlink="http://www.w3.org/1999/xlink" x="0px" y="0px"
	 viewBox="0 0 300 300" style="enable-background:new 0 0 300 300;" xml:space="preserve">
<g id="Skin_11">
	<path style="fill-rule:evenodd;clip-rule:evenodd;fill:#9ED8F6;" d="M116.838,155.689c0.057,0.566,0.143,1.134,0.199,1.672
		c11.14,3.77,22.422,6.095,33.902,6.86c11.451,0.766,23.074-0.086,34.895-2.722c0.085-0.538,0.17-1.049,0.255-1.587
		c-11.905,2.947-23.669,4.28-35.179,3.515C139.346,162.662,128.035,159.827,116.838,155.689L116.838,155.689z M117.717,162.039
		c0.143,0.794,0.283,1.587,0.396,2.353c10.205,3.6,20.41,6.037,31.21,6.746c11.339,0.766,23.357-0.396,35.376-3.175
		c0.086-0.453,0.171-0.936,0.284-1.417c-9.921,2.664-18.964,3.826-29.905,3.09C143.654,168.898,130.189,166.093,117.717,162.039
		L117.717,162.039z M119.361,170.798c0.198,0.964,0.396,1.956,0.623,2.948c19.275,6.775,41.727,9.893,61.966,6.689
		c0.368-1.19,0.651-2.409,0.879-3.685l0.028-0.029v-0.057c0.142-0.623,0.283-1.247,0.425-1.87
		c-10.885,2.211-21.6,2.892-32.173,2.211C140.394,176.297,129.793,174.171,119.361,170.798L119.361,170.798z M120.665,178.281
		l-0.821,0.681c-0.539,0.425-1.105,0.906-1.673,1.445c17.121,7.908,37.757,12.926,57.345,12.16c1.502-1.785,2.834-3.741,3.94-5.867
		c-9.949,1.021-19.7,0.794-29.225-0.539C140.139,184.744,130.303,182.079,120.665,178.281L120.665,178.281z M116.668,181.909
		c-0.595,0.624-1.162,1.275-1.701,1.956c9.582,6.577,19.163,12.331,30.219,15.138c6.009,1.502,12.443,2.154,19.106,2.239
		c2.012-0.992,3.883-2.155,5.641-3.431c-7.568-0.482-14.939-1.644-22.11-3.458C137.021,191.605,126.646,187.409,116.668,181.909
		L116.668,181.909z M113.721,185.736c-0.454,0.794-0.851,1.643-1.105,2.494c9.864,7.768,20.466,13.748,31.748,17.83
		c2.834-0.113,5.641-0.453,8.334-0.964C139.033,200.987,125.966,194.439,113.721,185.736L113.721,185.736z M112.161,191.264
		c0.028,0.511,0.085,1.02,0.198,1.531c1.445,5.952,9.241,9.581,14.514,11.168c2.693,0.822,5.527,1.39,8.391,1.758
		C127.156,201.752,119.475,196.905,112.161,191.264L112.161,191.264z"/>
</g>
<g id="Layer_1">
</g>
</svg>
