<?xml version="1.0" encoding="iso-8859-1"?>
<!-- Generator: Adobe Illustrator 29.5.1, SVG Export Plug-In . SVG Version: 9.03 Build 0)  -->
<svg version="1.1" xmlns="http://www.w3.org/2000/svg" xmlns:xlink="http://www.w3.org/1999/xlink" x="0px" y="0px"
	 viewBox="0 0 300 300" style="enable-background:new 0 0 300 300;" xml:space="preserve">
<g id="Skin_3">
	<path style="fill-rule:evenodd;clip-rule:evenodd;fill:#9ED8F6;" d="M141.741,95.853c-1.474,0.397-2.892,0.85-4.195,1.389
		c2.069,1.36,4.337,2.607,6.916,3.912c0.851,0.425,1.871,0.085,2.269-0.765c0.425-0.822,0.085-1.843-0.737-2.268
		C144.462,97.355,143.045,96.618,141.741,95.853L141.741,95.853z M132.585,99.906c-1.049,0.681-2.013,1.417-2.947,2.239l0.85,0.482
		c6.038,3.316,13.465,7.455,20.354,7.455c0.935,0,1.7-0.766,1.7-1.701c0-0.935-0.766-1.7-1.7-1.7
		C144.973,106.682,138.17,102.996,132.585,99.906L132.585,99.906z M122.239,111.671c-0.539,0.992-1.021,2.04-1.475,3.118
		c5.188,3.714,10.743,6.775,17.66,6.775c0.936,0,1.7-0.737,1.7-1.701c0-0.936-0.765-1.672-1.7-1.672
		C132.302,118.19,127.143,115.214,122.239,111.671L122.239,111.671z M118.61,120.826c-0.312,1.162-0.623,2.353-0.879,3.543
		c0.822,0.567,1.616,1.105,2.41,1.616c0.595,0.396,2.806,1.219,4.932,2.013c1.701,0.652,2.92,0.028,3.146,0.623
		c0.283,0.907,1.247,1.39,2.126,1.078c0.879-0.284,1.36-1.248,1.077-2.127c-0.312-0.936-2.692-1.814-5.187-2.749
		c-1.928-0.709-3.939-1.474-4.252-1.673c-0.907-0.595-2.013-1.36-3.146-2.154L118.61,120.826z M116.683,130.351
		c-0.17,1.247-0.312,2.466-0.396,3.714c6.208,3.685,12.558,6.831,21.373,6.831c0.935,0,1.701-0.766,1.701-1.701
		c0-0.935-0.766-1.7-1.701-1.7C129.099,137.494,122.919,134.121,116.683,130.351L116.683,130.351z M115.975,140.158
		c-0.028,1.305-0.028,2.608-0.028,3.94c0.651,0.368,1.304,0.766,1.927,1.162c2.212,1.36,4.395,2.693,6.605,3.827
		c0.85,0.396,1.87,0.057,2.268-0.766c0.425-0.851,0.085-1.871-0.737-2.268c-2.069-1.049-4.195-2.353-6.35-3.656
		C118.44,141.633,117.222,140.867,115.975,140.158L115.975,140.158z M116.258,150.533c0.028,0.283,0.057,0.596,0.085,0.879
		c0.085,1.077,0.17,2.154,0.312,3.231c4.365,2.381,9.411,4.45,14.514,5.952c8.73,2.552,17.745,3.402,24.038,1.106
		c0.879-0.341,1.332-1.304,1.021-2.183c-0.312-0.879-1.305-1.333-2.183-1.022c-5.585,2.041-13.805,1.22-21.912-1.162
		C126.405,155.664,120.821,153.255,116.258,150.533L116.258,150.533z M117.052,157.96c0.198,1.446,0.396,2.863,0.623,4.28
		c0.964,0.596,1.899,1.162,2.807,1.758c0.595,0.368,1.162,0.736,1.899,1.19h0.028l0,0v0.028l0.057,0.028
		c2.239,1.389,6.718,4.139,9.694,4.139c0.936,0,1.7-0.766,1.7-1.701c0-0.935-0.765-1.7-1.7-1.7c-2.041,0-5.953-2.41-7.909-3.629
		l-0.057-0.028l-0.028-0.028l0,0c-0.51-0.312-1.19-0.736-1.898-1.162C120.595,160.058,118.865,158.952,117.052,157.96
		L117.052,157.96z M118.809,168.618c0.312,1.446,0.596,2.892,0.907,4.337c7.144,3.799,14.655,7.115,22.763,7.115
		c0.935,0,1.7-0.737,1.7-1.701c0-0.936-0.766-1.7-1.7-1.7C134.229,176.669,126.349,172.729,118.809,168.618L118.809,168.618z
		 M120.481,176.414l0.113,0.566l0.34,1.389l-1.105,0.907c-0.198,0.142-0.396,0.312-0.595,0.482c0.964,0.68,1.785,1.304,2.438,1.672
		c1.729,0.992,4.365,2.353,6.945,3.288c1.955,0.737,3.883,1.248,5.499,1.248c0.936,0,1.7-0.766,1.7-1.701
		c0-0.936-0.765-1.701-1.7-1.701c-1.162,0-2.722-0.425-4.309-1.02c-2.41-0.907-4.876-2.154-6.463-3.062
		C122.749,178.143,121.672,177.32,120.481,176.414L120.481,176.414z M116.428,182.423c-0.794,0.879-1.559,1.786-2.211,2.778
		c1.19,1.615,2.381,3.175,3.713,4.45c2.835,2.778,5.981,4.763,9.439,5.868c3.345,1.076,6.917,1.304,10.716,0.595
		c0.934-0.17,1.53-1.049,1.36-1.984c-0.17-0.907-1.049-1.53-1.984-1.36c-3.231,0.623-6.265,0.425-9.071-0.482
		c-2.919-0.935-5.641-2.664-8.106-5.073C118.95,185.91,117.675,184.209,116.428,182.423L116.428,182.423z M143.895,206.404
		c3.09-0.113,6.123-0.453,9.07-1.049c-0.821-0.17-1.559-0.312-2.183-0.426c-3.004-0.595-5.754-1.7-8.504-2.806
		c-2.04-0.794-4.081-1.616-6.235-2.268c-0.907-0.255-1.843,0.255-2.098,1.162c-0.284,0.907,0.227,1.843,1.134,2.098
		c2.041,0.595,3.996,1.389,5.952,2.154C141.996,205.667,142.932,206.035,143.895,206.404L143.895,206.404z M166.346,200.423
		c1.616-0.907,3.146-1.956,4.593-3.09l-0.454-0.028c-0.737-0.057-1.417-0.085-2.098-0.113c-3.09-0.113-6.491-0.936-9.808-1.758
		c-3.657-0.906-7.257-1.785-10.602-1.785c-0.964,0-1.701,0.766-1.701,1.701c0,0.934,0.737,1.7,1.701,1.7
		c2.977,0,6.35,0.851,9.808,1.673C160.62,199.431,163.511,200.14,166.346,200.423L166.346,200.423z M181.256,182.791
		c0.596-1.644,1.077-3.401,1.446-5.215c-8.703,7.058-18.624,7.001-30.303,6.944h-3.118c-0.936,0-1.701,0.766-1.701,1.701
		c0,0.936,0.766,1.7,1.701,1.7c2.324,0,2.835,0,3.09,0C163.284,187.979,172.724,188.008,181.256,182.791L181.256,182.791z
		 M184.913,167.088c0.227-1.361,0.481-2.693,0.708-4.054c-2.721,1.275-5.471,2.353-8.306,3.203c-7.455,2.296-15.42,3.26-24.52,3.26
		c-0.936,0-1.7,0.766-1.7,1.7c0,0.936,0.765,1.701,1.7,1.701c9.411,0,17.689-1.02,25.512-3.43
		C180.548,168.788,182.73,167.994,184.913,167.088L184.913,167.088z M186.273,158.782c0.17-1.219,0.312-2.466,0.453-3.685
		c-4.025,1.304-8.22,2.125-12.415,2.976c-1.729,0.341-3.431,0.681-5.557,1.162c-0.906,0.198-1.502,1.105-1.275,2.013
		c0.198,0.907,1.106,1.502,2.013,1.275c1.56-0.34,3.515-0.736,5.471-1.105C178.733,160.653,182.503,159.916,186.273,158.782
		L186.273,158.782z M187.407,145.97c0.057-1.162,0.057-2.325,0.085-3.487l-0.766,0.171c-14.456,3.231-30.557,4.988-35.857,3.656
		c-0.907-0.227-1.843,0.311-2.069,1.219c-0.228,0.936,0.34,1.843,1.247,2.069C155.772,151.043,172.525,149.314,187.407,145.97
		L187.407,145.97z M187.351,137.012c-0.057-1.134-0.142-2.296-0.255-3.43c-1.275,0.369-2.608,0.652-3.969,0.907
		c-3.685,0.624-7.54,0.794-10.743,0.794c-0.936,0-1.701,0.766-1.701,1.7c0,0.936,0.766,1.701,1.701,1.701
		c3.345,0,7.37-0.17,11.311-0.851C184.941,137.607,186.16,137.353,187.351,137.012L187.351,137.012z M186.16,126.637
		c-0.227-1.162-0.454-2.324-0.737-3.458c-3.316,1.814-6.774,3.345-10.545,4.195c-8.277,1.871-15.052,1.616-23.216,1.304
		l-1.559-0.057c-0.935-0.028-1.701,0.709-1.729,1.645c-0.057,0.936,0.681,1.729,1.616,1.758l1.559,0.057
		c8.391,0.312,15.393,0.566,24.095-1.418C179.442,129.812,182.872,128.366,186.16,126.637L186.16,126.637z M181.227,111.699
		c-0.538-0.992-1.134-1.984-1.729-2.948c-4.734,2.041-9.724,3.572-13.012,4.394c-5.188,1.275-9.609,1.162-14.428,1.049
		c-1.588-0.028-3.203-0.057-4.479-0.057c-0.935,0-1.7,0.765-1.7,1.7c0,0.936,0.766,1.701,1.7,1.701c1.786,0,3.118,0.028,4.423,0.057
		c5.045,0.113,9.666,0.226,15.307-1.162C170.796,115.582,176.182,113.91,181.227,111.699L181.227,111.699z M176.664,105.009
		c-0.822-0.935-1.701-1.814-2.637-2.664c-4.138,1.446-8.419,2.466-12.273,3.203c-0.907,0.17-1.531,1.049-1.36,1.984
		c0.17,0.907,1.077,1.502,1.983,1.333C166.828,108.042,171.845,106.823,176.664,105.009L176.664,105.009z M168.783,98.659
		c-1.417-0.794-2.919-1.474-4.535-2.013c-3.826,1.19-7.653,1.928-11.225,1.446c-0.936-0.142-1.786,0.51-1.899,1.446
		c-0.142,0.936,0.51,1.786,1.445,1.899C157.927,102.174,163.454,100.672,168.783,98.659L168.783,98.659z"/>
</g>
<g id="Layer_1">
</g>
</svg>
