<?xml version="1.0" encoding="iso-8859-1"?>
<!-- Generator: Adobe Illustrator 29.5.1, SVG Export Plug-In . SVG Version: 9.03 Build 0)  -->
<svg version="1.1" xmlns="http://www.w3.org/2000/svg" xmlns:xlink="http://www.w3.org/1999/xlink" x="0px" y="0px"
	 viewBox="0 0 300 300" style="enable-background:new 0 0 300 300;" xml:space="preserve">
<g id="Skin_8">
	<path style="fill-rule:evenodd;clip-rule:evenodd;fill:#9ED8F6;" d="M116.386,152.288c0.368,3.883,0.907,7.738,1.559,11.594
		c9.468,6.463,19.02,9.439,28.602,10.289C136.03,169.466,126.023,162.039,116.386,152.288L116.386,152.288z M119.419,171.564
		c0.368,1.786,0.766,3.6,1.162,5.386l0.34,1.389l-1.105,0.879c-0.227,0.17-0.425,0.368-0.651,0.539
		c8.844,4.224,17.518,5.839,26.05,5.811C136.483,182.59,127.866,177.857,119.419,171.564L119.419,171.564z M115.762,183.129
		c-1.672,1.956-3.089,4.224-3.515,6.604c10.828,5.046,21.062,6.35,30.954,5.442C134.074,192.937,124.918,188.826,115.762,183.129
		L115.762,183.129z M172.428,195.998c2.238-2.013,4.195-4.309,5.781-6.917c-7.512,2.778-14.91,4.564-22.137,5.273
		C161.314,195.602,166.758,196.225,172.428,195.998L172.428,195.998z M181.355,182.505c0.596-1.729,1.078-3.543,1.447-5.471v-0.057
		v-0.028c0.197-0.851,0.396-1.701,0.566-2.551c-7.767,4.96-15.59,8.646-23.471,10.941C166.9,185.68,174.043,184.914,181.355,182.505
		L181.355,182.505z M184.475,169.183c0.539-2.722,1.019-5.443,1.445-8.164c-6.689,5.556-13.578,9.977-20.693,13.152
		C171.662,173.605,178.096,172.073,184.475,169.183L184.475,169.183z"/>
</g>
<g id="Layer_1">
</g>
</svg>
