<?xml version="1.0" encoding="iso-8859-1"?>
<!-- Generator: Adobe Illustrator 29.5.1, SVG Export Plug-In . SVG Version: 9.03 Build 0)  -->
<svg version="1.1" xmlns="http://www.w3.org/2000/svg" xmlns:xlink="http://www.w3.org/1999/xlink" x="0px" y="0px"
	 viewBox="0 0 300 300" style="enable-background:new 0 0 300 300;" xml:space="preserve">
<g id="Skin_10">
	<path style="fill-rule:evenodd;clip-rule:evenodd;fill:#9ED8F6;" d="M126.326,186.644c2.976,0,5.357,2.41,5.357,5.357
		c0,2.948-2.381,5.357-5.357,5.357c-2.948,0-5.329-2.409-5.329-5.357C120.997,189.054,123.377,186.644,126.326,186.644
		L126.326,186.644z M114.93,183.696c-1.389,1.7-2.494,3.6-2.948,5.612c0.256,0.057,0.511,0.085,0.766,0.085
		c1.814,0,3.26-1.475,3.26-3.26C116.007,185.142,115.582,184.291,114.93,183.696L114.93,183.696z M130.719,205.296
		c4.337,0.879,8.93,1.219,13.437,1.021c-0.539-3.316-3.401-5.84-6.86-5.84C134.206,200.477,131.598,202.489,130.719,205.296
		L130.719,205.296z M161.107,202.745c4.732-1.928,8.9-4.621,12.301-8.051c-0.793-3.486-3.91-6.095-7.625-6.095
		c-4.336,0-7.852,3.515-7.852,7.852C157.932,199.031,159.18,201.299,161.107,202.745L161.107,202.745z M164.594,136.386
		c0.992,0,1.814,0.822,1.814,1.814c0,0.992-0.822,1.814-1.814,1.814c-0.992,0-1.787-0.821-1.787-1.814
		C162.807,137.208,163.602,136.386,164.594,136.386L164.594,136.386z M124.115,142.65c1.219,0,2.211,0.992,2.211,2.211
		c0,1.219-0.992,2.211-2.211,2.211c-1.219,0-2.211-0.992-2.211-2.211C121.904,143.643,122.896,142.65,124.115,142.65L124.115,142.65
		z M176.215,152.316c0.992,0,1.814,0.821,1.814,1.813s-0.822,1.814-1.814,1.814c-0.992,0-1.785-0.822-1.785-1.814
		S175.223,152.316,176.215,152.316L176.215,152.316z M140.839,158.836c3.033,0,5.471,2.438,5.471,5.471s-2.438,5.499-5.471,5.499
		s-5.499-2.466-5.499-5.499S137.806,158.836,140.839,158.836L140.839,158.836z M159.236,167.566c4.053,0,7.312,3.288,7.312,7.313
		c0,4.054-3.26,7.314-7.312,7.314c-4.025,0-7.314-3.26-7.314-7.314C151.922,170.855,155.211,167.566,159.236,167.566
		L159.236,167.566z M178.568,168.9c2.467,0,4.449,1.983,4.449,4.422c0,2.466-1.982,4.45-4.449,4.45c-2.438,0-4.422-1.984-4.422-4.45
		C174.146,170.883,176.131,168.9,178.568,168.9L178.568,168.9z M128.027,172.159c1.813,0,3.26,1.445,3.26,3.26
		c0,1.785-1.446,3.26-3.26,3.26c-1.786,0-3.261-1.475-3.261-3.26C124.766,173.605,126.241,172.159,128.027,172.159L128.027,172.159z
		 M146.706,182.335c2.807,0,5.102,2.296,5.102,5.102c0,2.807-2.295,5.074-5.102,5.074c-2.806,0-5.102-2.268-5.102-5.074
		C141.604,184.631,143.901,182.335,146.706,182.335L146.706,182.335z"/>
</g>
<g id="Layer_1">
</g>
</svg>
