<?xml version="1.0" encoding="iso-8859-1"?>
<!-- Generator: Adobe Illustrator 29.5.1, SVG Export Plug-In . SVG Version: 9.03 Build 0)  -->
<svg version="1.1" xmlns="http://www.w3.org/2000/svg" xmlns:xlink="http://www.w3.org/1999/xlink" x="0px" y="0px"
	 viewBox="0 0 300 300" style="enable-background:new 0 0 300 300;" xml:space="preserve">
<g id="Skin_7">
	<path style="fill:#9ED8F6;" d="M154.579,200.479c-0.17-0.283-0.057-0.652,0.227-0.822c0.283-0.17,0.652-0.057,0.822,0.227
		c0.141,0.227,0.254,0.482,0.312,0.766c0.057,0.255,0.113,0.539,0.113,0.794c0,0.878-0.368,1.672-0.936,2.239l-0.028,0.028
		c-0.566,0.538-1.332,0.879-2.183,0.879c-0.879,0-1.673-0.341-2.239-0.907l0,0l0,0c-0.566-0.567-0.907-1.361-0.907-2.239
		c0-0.255,0.028-0.539,0.085-0.794c0.085-0.283,0.198-0.539,0.34-0.766c0.143-0.283,0.511-0.396,0.794-0.227
		c0.284,0.17,0.398,0.539,0.228,0.822c-0.086,0.142-0.143,0.311-0.199,0.453c-0.028,0.17-0.057,0.34-0.057,0.511
		c0,0.538,0.227,1.021,0.566,1.389l0,0c0.369,0.341,0.852,0.567,1.39,0.567c0.511,0,0.992-0.199,1.332-0.539l0.028-0.028
		c0.369-0.368,0.566-0.851,0.566-1.389c0-0.171,0-0.341-0.057-0.511C154.749,200.79,154.663,200.62,154.579,200.479L154.579,200.479
		z M137.23,203.427c-1.474-1.475,0.425-2.637-0.538-3.175c-1.078-0.624-1.956,2.381-0.312,4.025c1.984,1.983,5.387,0.566,5.387-2.24
		c0-2.636-2.014-1.928-1.475-0.963C141.426,203.029,138.847,205.042,137.23,203.427L137.23,203.427z M156.817,184.35
		c-0.17-0.284-0.057-0.652,0.228-0.822c0.283-0.142,0.651-0.057,0.821,0.227c0.284,0.539,0.511,1.077,0.681,1.645
		c0.142,0.595,0.227,1.19,0.227,1.785c0,1.871-0.766,3.572-2.014,4.819c-1.219,1.247-2.919,2.013-4.818,2.013
		c-1.871,0-3.6-0.766-4.818-2.013c-1.248-1.247-2.014-2.948-2.014-4.819c0-0.595,0.086-1.19,0.228-1.785
		c0.17-0.567,0.396-1.105,0.681-1.645c0.17-0.283,0.538-0.368,0.821-0.227c0.284,0.17,0.398,0.538,0.228,0.822
		c-0.256,0.425-0.426,0.879-0.567,1.36c-0.113,0.481-0.198,0.964-0.198,1.474c0,1.531,0.652,2.948,1.672,3.969
		c1.021,1.02,2.41,1.645,3.969,1.645c1.559,0,2.977-0.624,3.997-1.645c1.021-1.021,1.644-2.438,1.644-3.969
		c0-0.51-0.085-0.992-0.198-1.474C157.243,185.229,157.073,184.775,156.817,184.35L156.817,184.35z M143.183,187.978
		c-0.141-0.283-0.057-0.651,0.228-0.822c0.283-0.17,0.651-0.057,0.821,0.228c0.199,0.34,0.341,0.708,0.454,1.076
		c0.085,0.369,0.142,0.766,0.142,1.135c0,1.247-0.51,2.353-1.304,3.146l0,0l0,0c-0.794,0.821-1.928,1.304-3.146,1.304
		c-1.219,0-2.324-0.482-3.147-1.304c-0.794-0.794-1.304-1.899-1.304-3.146c0-0.369,0.057-0.766,0.17-1.135
		c0.085-0.368,0.256-0.736,0.426-1.076c0.17-0.284,0.538-0.398,0.821-0.228c0.284,0.171,0.397,0.539,0.228,0.822
		c-0.143,0.255-0.256,0.511-0.312,0.794c-0.085,0.255-0.113,0.538-0.113,0.822c0,0.906,0.369,1.729,0.936,2.296
		c0.596,0.595,1.417,0.964,2.296,0.964c0.907,0,1.7-0.369,2.296-0.964l0,0c0.596-0.567,0.964-1.39,0.964-2.296
		c0-0.284-0.057-0.567-0.113-0.822C143.438,188.488,143.325,188.232,143.183,187.978L143.183,187.978z M162.856,194.895
		c-0.171-0.284-0.057-0.652,0.227-0.822c0.283-0.17,0.651-0.057,0.793,0.227c0.199,0.34,0.369,0.709,0.453,1.077
		c0.114,0.368,0.171,0.766,0.171,1.134c0,1.247-0.511,2.353-1.304,3.146l0,0l0,0c-0.822,0.822-1.928,1.304-3.146,1.304
		c-1.248,0-2.354-0.481-3.146-1.304c-0.794-0.794-1.305-1.899-1.305-3.146c0-0.368,0.057-0.766,0.143-1.134
		c0.113-0.368,0.255-0.737,0.453-1.077c0.17-0.283,0.539-0.396,0.822-0.227c0.283,0.17,0.368,0.538,0.227,0.822
		c-0.142,0.255-0.255,0.51-0.34,0.793c-0.057,0.256-0.113,0.539-0.113,0.822c0,0.907,0.368,1.73,0.963,2.296
		c0.596,0.596,1.39,0.964,2.297,0.964c0.879,0,1.701-0.368,2.296-0.964l0,0c0.567-0.566,0.935-1.389,0.935-2.296
		c0-0.283-0.027-0.566-0.113-0.822C163.11,195.404,162.997,195.15,162.856,194.895L162.856,194.895z M149.022,195.603
		c-0.17-0.283-0.085-0.651,0.199-0.821c0.283-0.171,0.651-0.057,0.821,0.227c0.198,0.34,0.341,0.708,0.454,1.077
		c0.084,0.368,0.142,0.765,0.142,1.134c0,1.219-0.482,2.353-1.304,3.146l0,0c-0.794,0.793-1.9,1.304-3.147,1.304
		c-1.219,0-2.324-0.511-3.119-1.304c-0.821-0.794-1.303-1.899-1.303-3.146c0-0.369,0.027-0.766,0.141-1.134
		c0.113-0.369,0.256-0.737,0.454-1.077c0.17-0.283,0.511-0.398,0.821-0.227c0.284,0.17,0.369,0.538,0.199,0.821
		c-0.142,0.255-0.256,0.511-0.312,0.794c-0.084,0.255-0.113,0.539-0.113,0.822c0,0.907,0.369,1.701,0.936,2.296
		c0.596,0.595,1.418,0.964,2.297,0.964c0.906,0,1.729-0.369,2.296-0.964c0.595-0.595,0.964-1.389,0.964-2.296
		c0-0.283-0.057-0.567-0.113-0.822C149.249,196.113,149.165,195.857,149.022,195.603L149.022,195.603z M168.922,185.795
		c-0.17-0.283-0.085-0.652,0.198-0.794c0.283-0.17,0.652-0.085,0.822,0.198c0.255,0.454,0.453,0.907,0.566,1.39
		c0.143,0.482,0.199,0.964,0.199,1.474c0,1.559-0.624,3.005-1.673,4.025c-1.021,1.049-2.466,1.672-4.025,1.672
		c-1.588,0-3.006-0.623-4.025-1.672c-1.049-1.021-1.673-2.467-1.673-4.025c0-0.51,0.057-0.992,0.198-1.474
		c0.113-0.482,0.312-0.936,0.566-1.39c0.171-0.283,0.539-0.368,0.822-0.198c0.283,0.142,0.369,0.511,0.199,0.794
		c-0.199,0.34-0.34,0.709-0.426,1.105c-0.113,0.369-0.17,0.766-0.17,1.162c0,1.247,0.51,2.353,1.332,3.175
		c0.794,0.822,1.928,1.333,3.176,1.333c1.246,0,2.381-0.511,3.174-1.333c0.822-0.822,1.332-1.928,1.332-3.175
		c0-0.396-0.057-0.793-0.17-1.162C169.263,186.504,169.092,186.135,168.922,185.795L168.922,185.795z"/>
</g>
<g id="Layer_1">
</g>
</svg>
