<?xml version="1.0" encoding="iso-8859-1"?>
<!-- Generator: Adobe Illustrator 29.5.1, SVG Export Plug-In . SVG Version: 9.03 Build 0)  -->
<svg version="1.1" xmlns="http://www.w3.org/2000/svg" xmlns:xlink="http://www.w3.org/1999/xlink" x="0px" y="0px"
	 viewBox="0 0 300 300" style="enable-background:new 0 0 300 300;" xml:space="preserve">
<g id="Skin_2">
	<path style="fill-rule:evenodd;clip-rule:evenodd;fill:#9ED8F6;" d="M130.969,101.069c-4.337,3.346-7.54,7.796-9.864,12.955
		l18.68,3.345c3.912,0.708,7.711-1.899,8.419-5.84l0,0c0.709-3.911-1.927-7.71-5.839-8.419L130.969,101.069z M118.666,120.742
		c-1.304,4.535-2.068,9.383-2.438,14.286l23.556,4.252c3.912,0.709,7.711-1.898,8.419-5.839l0,0c0.709-3.912-1.927-7.71-5.839-8.419
		L118.666,120.742z M115.945,142.569c0.028,2.976,0.17,5.952,0.396,8.843c0.17,2.041,0.397,4.082,0.652,6.123l22.904,4.451
		c3.911,0.764,7.738-1.814,8.504-5.727l0,0c0.765-3.912-1.814-7.739-5.727-8.503L115.945,142.569z M117.76,162.58
		c0.793,4.848,1.785,9.639,2.862,14.4l0.312,1.389l-0.454,0.342l12.246,3.967c3.77,1.219,7.88-0.879,9.127-4.676l0,0
		c1.22-3.799-0.878-7.91-4.677-9.129L117.76,162.58z M116.768,182.084c-2.92,3.033-5.386,6.943-4.422,11.025
		c0.312,1.219,0.878,2.354,1.644,3.402l13.124,4.875c3.742,1.389,7.937-0.539,9.326-4.279l0,0c1.39-3.742-0.538-7.938-4.28-9.326
		L116.768,182.084z M162.943,202.182c7.852-3.545,14.004-9.27,17.49-17.236l-16.98,3.062c-3.94,0.709-6.576,4.508-5.868,8.447l0,0
		C158.125,199.318,160.279,201.5,162.943,202.182L162.943,202.182z M182.475,178.738c0.113-0.566,0.255-1.105,0.34-1.672
		l0.028-0.057v-0.029c1.02-4.479,1.956-9.014,2.722-13.549l-18.057,3.26c-3.94,0.709-6.577,4.506-5.868,8.418l0,0
		c0.709,3.941,4.507,6.576,8.447,5.869L182.475,178.738z M186.414,157.791c0.284-2.127,0.511-4.252,0.681-6.379
		c0.255-2.778,0.368-5.669,0.398-8.56l-17.519,3.175c-3.912,0.708-6.548,4.507-5.84,8.419l0,0c0.709,3.939,4.508,6.549,8.419,5.84
		L186.414,157.791z M187.293,135.68c-0.34-4.904-1.077-9.751-2.324-14.314l-16.299,2.947c-3.912,0.71-6.548,4.479-5.84,8.419l0,0
		c0.709,3.912,4.508,6.548,8.419,5.84L187.293,135.68z M182.786,114.96c-2.183-5.103-5.188-9.609-9.241-13.068l-6.689,1.219
		c-3.94,0.709-6.576,4.508-5.867,8.419l0,0c0.708,3.94,4.507,6.548,8.418,5.84L182.786,114.96z"/>
</g>
<g id="Layer_1">
</g>
</svg>
