<?xml version="1.0" encoding="iso-8859-1"?>
<!-- Generator: Adobe Illustrator 29.5.1, SVG Export Plug-In . SVG Version: 9.03 Build 0)  -->
<svg version="1.1" xmlns="http://www.w3.org/2000/svg" xmlns:xlink="http://www.w3.org/1999/xlink" x="0px" y="0px"
	 viewBox="0 0 300 300" style="enable-background:new 0 0 300 300;" xml:space="preserve">
<g id="Skin_4">
	<path style="fill-rule:evenodd;clip-rule:evenodd;fill:#9ED8F6;" d="M151.719,94.662c-12.104,0-20.409,4.536-25.966,11.594
		c9.752-1.417,19.9-1.956,30.36-1.7c7.002,0.142,14.145,0.68,21.459,1.53C172.016,99.141,163.711,94.662,151.719,94.662
		L151.719,94.662z M121.161,113.853c-1.588,3.515-2.777,7.341-3.6,11.367l69.308,5.981c-0.766-6.293-2.267-12.388-4.762-17.717
		c-8.957-1.219-17.66-1.956-26.107-2.154C143.866,111.046,132.245,111.84,121.161,113.853L121.161,113.853z M116.484,131.937
		c-0.511,4.678-0.624,9.439-0.454,14.117c13.408,3.175,26.816,5.301,40.226,6.577c10.176,0.963,20.381,1.445,30.584,1.559
		c0.086-0.906,0.172-1.842,0.256-2.777c0.369-4.337,0.51-8.844,0.312-13.352L116.484,131.937z M116.484,153.141
		c0.425,4.139,1.021,8.248,1.757,12.359c9.1,4.734,18.511,8.703,28.233,11.791c11,3.488,22.424,5.84,34.301,6.832
		c0.879-2.182,1.559-4.535,2.041-7.059v-0.027l0.027-0.057c1.191-5.301,2.297-10.631,3.119-16.016
		c-10.121-0.113-20.24-0.625-30.359-1.588C142.563,158.129,129.523,156.117,116.484,153.141L116.484,153.141z M119.942,173.947
		c0.227,1.02,0.453,2.012,0.68,3.033l0.312,1.389l-1.105,0.906c-0.596,0.482-1.219,1.021-1.843,1.588
		c5.669,6.52,11.878,12.133,18.652,16.924c4.252,3.004,8.73,5.697,13.436,8.049c1.502-0.197,2.978-0.48,4.394-0.82
		c9.639-2.24,17.633-7.031,22.791-14.4c-11.367-1.162-22.281-3.516-32.826-6.832C136.044,181.119,127.88,177.83,119.942,173.947
		L119.942,173.947z M113.621,186.193c-1.219,2.154-1.843,4.506-1.275,6.916c1.417,5.953,9.241,9.58,14.513,11.168
		c3.232,0.992,6.662,1.615,10.148,1.928c-1.445-0.906-2.863-1.871-4.28-2.863C125.81,198.438,119.433,192.74,113.621,186.193
		L113.621,186.193z"/>
</g>
<g id="Layer_1">
</g>
</svg>
