<?xml version="1.0" encoding="iso-8859-1"?>
<!-- Generator: Adobe Illustrator 29.5.1, SVG Export Plug-In . SVG Version: 9.03 Build 0)  -->
<svg version="1.1" xmlns="http://www.w3.org/2000/svg" xmlns:xlink="http://www.w3.org/1999/xlink" x="0px" y="0px"
	 viewBox="0 0 300 300" style="enable-background:new 0 0 300 300;" xml:space="preserve">
<g id="Skin_5">
	<path style="fill-rule:evenodd;clip-rule:evenodd;fill:#9ED8F6;" d="M132.524,150.025c5.216,0,9.439,2.154,9.439,4.791
		c0,2.636-4.224,4.79-9.439,4.79c-5.244,0-9.468-2.154-9.468-4.79C123.056,152.18,127.28,150.025,132.524,150.025L132.524,150.025z
		 M116.337,143.903c0.057,1.814,0.143,3.628,0.256,5.442c0.34,0.028,0.708,0.028,1.077,0.028c3.033,0,5.499-1.247,5.499-2.778
		c0-1.531-2.466-2.778-5.499-2.778C117.216,143.818,116.763,143.846,116.337,143.903L116.337,143.903z M117.699,159.267
		c0.255,1.758,0.538,3.516,0.85,5.272c0.426,0.057,0.879,0.085,1.333,0.085c3.062,0,5.527-1.247,5.527-2.777
		c0-1.559-2.466-2.807-5.527-2.807C119.116,159.04,118.35,159.125,117.699,159.267L117.699,159.267z M185.644,164.539
		c0.313-1.757,0.596-3.515,0.852-5.272c-0.682-0.142-1.418-0.227-2.211-0.227c-3.033,0-5.5,1.247-5.5,2.807
		c0,1.53,2.467,2.777,5.5,2.777C184.766,164.624,185.221,164.596,185.644,164.539L185.644,164.539z M187.602,149.345
		c0.113-1.814,0.197-3.628,0.226-5.442c-0.426-0.057-0.851-0.085-1.305-0.085c-3.033,0-5.498,1.247-5.498,2.778
		c0,1.531,2.465,2.778,5.498,2.778C186.893,149.374,187.232,149.374,187.602,149.345L187.602,149.345z M171.67,150.025
		c-5.215,0-9.439,2.154-9.439,4.791c0,2.636,4.225,4.79,9.439,4.79c5.217,0,9.469-2.154,9.469-4.79
		C181.139,152.18,176.887,150.025,171.67,150.025L171.67,150.025z M165.406,164.767c1.756,0,3.174-0.709,3.174-1.588
		c0-0.907-1.418-1.615-3.174-1.615c-1.758,0-3.203,0.708-3.203,1.615C162.203,164.058,163.648,164.767,165.406,164.767
		L165.406,164.767z M138.789,164.767c-1.758,0-3.175-0.709-3.175-1.588c0-0.907,1.417-1.615,3.175-1.615
		c1.757,0,3.175,0.708,3.175,1.615C141.963,164.058,140.545,164.767,138.789,164.767L138.789,164.767z"/>
</g>
<g id="Layer_1">
</g>
</svg>
