<?xml version="1.0" encoding="iso-8859-1"?>
<!-- Generator: Adobe Illustrator 29.5.1, SVG Export Plug-In . SVG Version: 9.03 Build 0)  -->
<svg version="1.1" xmlns="http://www.w3.org/2000/svg" xmlns:xlink="http://www.w3.org/1999/xlink" x="0px" y="0px"
	 viewBox="0 0 300 300" style="enable-background:new 0 0 300 300;" xml:space="preserve">
<g id="Skin_9">
	<path style="fill:#9ED8F6;" d="M122.503,144.908c0.538,0,1.049,0.028,1.474,0.113l0,0c0.482,0.113,0.908,0.283,1.275,0.539l0,0
		c0.369,0.283,0.682,0.68,0.852,1.19l0,0c0.17,0.425,0.255,0.936,0.227,1.502c0.028,0.567-0.057,1.134-0.199,1.645
		c-0.17,0.538-0.396,1.02-0.736,1.417c-0.313,0.426-0.766,0.737-1.275,0.964c-0.482,0.198-1.021,0.312-1.616,0.312
		c-0.567,0-1.162-0.113-1.7-0.312c-0.511-0.198-0.992-0.481-1.39-0.879c-0.396-0.396-0.708-0.879-0.907-1.417l0,0
		c-0.227-0.539-0.34-1.134-0.34-1.729c0-0.595,0.142-1.134,0.34-1.587c0.256-0.483,0.624-0.879,1.078-1.162l0,0
		c0.397-0.228,0.878-0.397,1.416-0.482C121.455,144.937,121.993,144.908,122.503,144.908L122.503,144.908z M130.951,158.118
		c0.198-0.113,0.397-0.256,0.538-0.396c0.596-0.426,1.021-0.766,1.787-0.709c0.453,0.028,0.963,0.198,1.445,0.51
		c0.396,0.256,0.793,0.624,1.134,1.105l0,0v0.029l0,0c0.624,0.936,1.02,1.559,0.935,2.664c-0.027,0.51-0.227,1.02-0.538,1.502
		c-0.283,0.426-0.681,0.822-1.162,1.135c-0.511,0.34-1.049,0.566-1.587,0.708c-0.567,0.114-1.135,0.142-1.673,0.028l0,0
		c-1.162-0.227-1.53-0.793-2.126-1.672l-0.085-0.143l-0.057-0.084c-0.624-0.965-1.36-2.041-0.851-3.09
		c0.34-0.709,0.879-0.936,1.502-1.191v-0.027C130.44,158.401,130.724,158.288,130.951,158.118L130.951,158.118z M132.538,159.081
		c-0.197,0.143-0.396,0.312-0.651,0.455c-0.368,0.254-0.708,0.396-1.02,0.537l0,0c-0.312,0.113-0.566,0.227-0.623,0.341
		c-0.086,0.198,0.34,0.851,0.736,1.446l0.057,0.057l0.086,0.17c0.367,0.51,0.566,0.85,1.048,0.936l0,0
		c0.312,0.057,0.624,0.057,0.964-0.029c0.34-0.084,0.681-0.227,1.021-0.453c0.284-0.198,0.538-0.426,0.681-0.652
		c0.17-0.227,0.255-0.481,0.255-0.709c0.057-0.537-0.227-0.963-0.651-1.586l0,0v-0.029l0,0c-0.199-0.283-0.426-0.482-0.624-0.623
		c-0.228-0.143-0.454-0.227-0.652-0.256C133.048,158.685,132.822,158.855,132.538,159.081L132.538,159.081z M125.338,163.107
		c-0.396,0.341-0.794,0.625-1.191,0.852c-0.453,0.254-0.906,0.396-1.359,0.424c-0.482,0.029-0.965-0.084-1.418-0.367
		c-0.396-0.227-0.766-0.596-1.134-1.049l0,0c-0.368-0.426-0.708-0.908-0.907-1.389l0,0c-0.227-0.482-0.368-0.992-0.368-1.531
		c0-0.539,0.113-1.049,0.396-1.531c0.228-0.482,0.595-0.936,1.049-1.304c0.907-0.765,1.587-0.284,2.183,0.425l0,0
		c0.143,0.17,0.227,0.283,0.283,0.369c0.17,0.198,0.312,0.396,0.369,0.453v-0.027c-0.028-0.029-0.028-0.057,0-0.057l0,0
		c0.255-0.058,0.623-0.114,0.992-0.143c1.275-0.085,2.693,0.227,2.834,2.354c0.029,0.537-0.227,1.02-0.623,1.502
		C126.131,162.455,125.735,162.796,125.338,163.107L125.338,163.107z M123.326,162.483c0.283-0.17,0.595-0.396,0.935-0.68
		c0.34-0.284,0.681-0.568,0.907-0.822c0.113-0.143,0.198-0.256,0.198-0.283c-0.057-0.709-0.567-0.822-1.021-0.795
		c-0.283,0.029-0.566,0.086-0.794,0.143l0,0c-0.368,0.084-0.681,0.113-0.964,0c-0.453-0.199-0.736-0.596-1.049-0.992
		c-0.085-0.143-0.198-0.256-0.227-0.312h-0.028c0-0.027,0.397-0.396,0.198-0.227c-0.283,0.227-0.51,0.51-0.652,0.766
		c-0.113,0.256-0.17,0.51-0.17,0.766c0,0.255,0.086,0.539,0.199,0.85l0,0c0.17,0.34,0.396,0.682,0.68,0.992l0.028,0.029
		c0.228,0.283,0.454,0.51,0.681,0.651c0.142,0.085,0.312,0.142,0.426,0.114C122.872,162.683,123.098,162.597,123.326,162.483
		L123.326,162.483z M123.241,158.458c0.028,0.029,0.028,0.029,0.028,0.029c0.142,0.057,0.028,0-0.028-0.057V158.458z
		 M137.584,149.756c0.51,0,1.02,0.028,1.445,0.113c0.51,0.113,0.936,0.283,1.275,0.538l0,0c0.396,0.284,0.68,0.709,0.879,1.219l0,0
		c0.142,0.426,0.227,0.907,0.227,1.503c0,0.538-0.057,1.105-0.227,1.616c-0.143,0.539-0.396,1.02-0.709,1.445
		c-0.34,0.396-0.766,0.736-1.275,0.936c-0.482,0.227-1.049,0.312-1.615,0.312c-0.596,0-1.162-0.086-1.701-0.284
		c-0.539-0.198-1.02-0.511-1.418-0.907c-0.396-0.396-0.68-0.879-0.906-1.418l0,0c-0.199-0.538-0.312-1.134-0.312-1.7
		c0-0.624,0.113-1.134,0.34-1.588c0.228-0.51,0.596-0.907,1.049-1.162l0,0c0.426-0.255,0.908-0.425,1.418-0.51
		C136.536,149.784,137.045,149.756,137.584,149.756L137.584,149.756z M138.69,151.541c-0.312-0.057-0.681-0.085-1.105-0.085
		c-0.454,0-0.879,0.028-1.22,0.085c-0.34,0.057-0.624,0.142-0.85,0.284l0,0c-0.17,0.113-0.312,0.255-0.396,0.453
		c-0.113,0.198-0.17,0.481-0.17,0.851c0,0.368,0.057,0.766,0.198,1.105l0,0c0.113,0.311,0.311,0.595,0.538,0.822
		c0.199,0.227,0.482,0.397,0.795,0.511c0.34,0.113,0.708,0.17,1.105,0.17c0.367,0,0.68-0.057,0.963-0.17
		c0.227-0.086,0.453-0.256,0.596-0.454c0.198-0.227,0.34-0.511,0.425-0.851c0.114-0.34,0.142-0.737,0.142-1.134v-0.028
		c0-0.369-0.027-0.681-0.113-0.907l0,0c-0.085-0.198-0.17-0.34-0.312-0.425l0,0C139.143,151.654,138.944,151.598,138.69,151.541
		L138.69,151.541z M135.43,145.419c0.141,0.538,0.227,1.02,0.254,1.445c0.029,0.51-0.027,0.964-0.197,1.389
		c-0.199,0.426-0.511,0.822-0.936,1.134c-0.369,0.256-0.852,0.454-1.39,0.596c-0.538,0.17-1.105,0.227-1.644,0.227
		c-0.567-0.028-1.105-0.142-1.588-0.34h0.028c-0.511-0.227-0.935-0.539-1.247-0.992c-0.34-0.397-0.566-0.907-0.736-1.475
		c-0.143-0.566-0.199-1.162-0.143-1.729c0.057-0.567,0.227-1.105,0.51-1.588c0.284-0.481,0.682-0.907,1.135-1.247
		c0.481-0.34,1.02-0.595,1.587-0.737c0.596-0.142,1.134-0.17,1.616-0.085c0.538,0.113,1.02,0.369,1.389,0.737
		c0.34,0.34,0.623,0.766,0.851,1.219C135.118,144.427,135.288,144.908,135.43,145.419L135.43,145.419z M133.984,146.949
		c-0.028-0.312-0.085-0.681-0.198-1.077c-0.113-0.425-0.256-0.822-0.396-1.162c-0.143-0.312-0.312-0.567-0.511-0.766
		c-0.113-0.113-0.311-0.227-0.511-0.255c-0.255-0.057-0.538-0.028-0.879,0.057c-0.367,0.085-0.708,0.255-1.02,0.482
		c-0.256,0.199-0.511,0.426-0.652,0.709c-0.17,0.283-0.255,0.596-0.283,0.907c-0.028,0.368,0,0.737,0.085,1.105
		c0.085,0.368,0.255,0.652,0.425,0.907c0.17,0.198,0.369,0.368,0.596,0.453l0,0c0.255,0.113,0.596,0.198,0.936,0.198
		c0.34,0,0.736-0.028,1.105-0.142l0.057-0.028c0.34-0.085,0.623-0.198,0.822-0.34c0.17-0.113,0.283-0.255,0.34-0.396
		C133.984,147.431,133.984,147.232,133.984,146.949L133.984,146.949z M126.5,152.448c0.17-0.17,0.312-0.51,0.397-0.822
		c0.256-0.68,0.453-1.247,1.248-1.389l0,0c0.481-0.057,1.02,0.028,1.502,0.283c0.453,0.199,0.907,0.567,1.304,0.992l0,0
		c0.936,0.879,0.907,1.588,0.879,2.268v0.028c-0.057,0.964-0.624,1.985-1.417,2.778l0,0c-0.426,0.454-0.965,0.822-1.531,1.105
		c-0.596,0.283-1.219,0.426-1.842,0.398c-0.681-0.028-1.333-0.284-1.871-0.822c-0.426-0.425-0.766-0.934-0.936-1.446
		c-0.227-0.537-0.256-1.076-0.113-1.615c0.198-0.794,0.822-1.049,1.53-1.304C125.961,152.76,126.301,152.646,126.5,152.448
		L126.5,152.448z M128.513,152.193c-0.171,0.453-0.368,0.992-0.822,1.474l0,0c-0.425,0.426-0.936,0.624-1.417,0.822
		c-0.283,0.086-0.511,0.113-0.539,0.17c-0.028,0.143,0,0.369,0.086,0.568c0.084,0.283,0.283,0.566,0.566,0.821
		c0.198,0.227,0.481,0.341,0.736,0.341c0.313,0.027,0.681-0.057,1.022-0.227c0.396-0.198,0.765-0.454,1.076-0.765l0,0
		c0.511-0.512,0.879-1.135,0.908-1.674v-0.028l0,0c0-0.312,0.027-0.623-0.369-0.992l-0.028-0.028
		c-0.284-0.283-0.567-0.51-0.822-0.623c-0.198-0.113-0.368-0.142-0.511-0.142l0,0C128.202,151.939,128.57,152.023,128.513,152.193
		L128.513,152.193z M123.637,146.694c-0.34-0.085-0.709-0.113-1.134-0.113s-0.851,0.028-1.219,0.113
		c-0.312,0.057-0.624,0.142-0.851,0.283l0,0c-0.17,0.085-0.283,0.255-0.396,0.425c-0.113,0.227-0.17,0.511-0.17,0.851
		c0,0.397,0.084,0.766,0.198,1.105l0,0c0.142,0.341,0.312,0.624,0.538,0.851c0.227,0.198,0.511,0.368,0.822,0.482
		c0.312,0.142,0.709,0.198,1.077,0.198c0.368,0,0.709-0.057,0.964-0.17c0.256-0.114,0.453-0.256,0.623-0.454
		c0.171-0.227,0.312-0.51,0.426-0.851c0.085-0.34,0.142-0.736,0.113-1.134v-0.057c0.028-0.34-0.028-0.651-0.113-0.879l0,0
		c-0.057-0.198-0.17-0.34-0.283-0.425l0,0C124.09,146.808,123.893,146.723,123.637,146.694L123.637,146.694z M181.69,144.908
		c-0.537,0-1.049,0.028-1.473,0.113l0,0c-0.482,0.113-0.908,0.283-1.275,0.539l0,0c-0.369,0.283-0.682,0.68-0.879,1.19h0.027
		c-0.17,0.425-0.254,0.936-0.227,1.502c-0.027,0.567,0.057,1.134,0.199,1.645c0.17,0.538,0.397,1.02,0.736,1.417
		c0.312,0.426,0.736,0.737,1.275,0.964c0.482,0.198,1.021,0.312,1.615,0.312c0.568,0,1.162-0.113,1.674-0.312
		c0.537-0.198,1.02-0.481,1.416-0.879c0.398-0.396,0.709-0.879,0.908-1.417l0,0c0.227-0.539,0.311-1.134,0.311-1.729
		c0-0.595-0.113-1.134-0.311-1.587c-0.256-0.483-0.625-0.879-1.078-1.162l0,0c-0.396-0.228-0.879-0.397-1.416-0.482
		C182.739,144.937,182.202,144.908,181.69,144.908L181.69,144.908z M173.243,158.118c-0.197-0.113-0.396-0.256-0.537-0.396
		c-0.596-0.426-1.021-0.766-1.787-0.709c-0.453,0.028-0.963,0.198-1.445,0.51c-0.426,0.256-0.793,0.624-1.133,1.105l0,0v0.029l0,0
		c-0.625,0.936-1.049,1.559-0.936,2.664c0.027,0.51,0.227,1.02,0.537,1.502c0.285,0.426,0.682,0.822,1.162,1.135
		c0.512,0.34,1.049,0.566,1.588,0.708c0.539,0.114,1.135,0.142,1.672,0.028l0,0c1.164-0.227,1.531-0.793,2.127-1.672l0.086-0.143
		l0.027-0.084c0.652-0.965,1.361-2.041,0.879-3.09c-0.34-0.709-0.879-0.936-1.502-1.191v-0.027
		C173.755,158.401,173.472,158.288,173.243,158.118L173.243,158.118z M171.657,159.081c0.197,0.143,0.396,0.312,0.65,0.455
		c0.369,0.254,0.709,0.396,1.021,0.537l0,0c0.283,0.113,0.566,0.227,0.623,0.341c0.086,0.198-0.367,0.851-0.736,1.446l-0.057,0.057
		l-0.086,0.17c-0.367,0.51-0.566,0.85-1.049,0.936l0,0c-0.311,0.057-0.623,0.057-0.963-0.029c-0.34-0.084-0.68-0.227-1.021-0.453
		c-0.283-0.198-0.537-0.426-0.68-0.652c-0.17-0.227-0.256-0.481-0.283-0.709c-0.029-0.537,0.256-0.963,0.68-1.586l0,0v-0.029l0,0
		c0.199-0.283,0.426-0.482,0.625-0.623c0.227-0.143,0.453-0.227,0.65-0.256C171.145,158.685,171.374,158.855,171.657,159.081
		L171.657,159.081z M178.856,163.107c0.396,0.341,0.793,0.625,1.191,0.852c0.453,0.254,0.906,0.396,1.359,0.424
		c0.482,0.029,0.936-0.084,1.418-0.367c0.396-0.227,0.766-0.596,1.133-1.049l0,0c0.369-0.426,0.682-0.908,0.908-1.389l0,0
		c0.227-0.482,0.369-0.992,0.369-1.531c0-0.539-0.143-1.049-0.398-1.531c-0.227-0.482-0.594-0.936-1.049-1.304
		c-0.906-0.765-1.586-0.284-2.182,0.425l0,0c-0.143,0.17-0.227,0.283-0.312,0.369c-0.141,0.198-0.283,0.396-0.34,0.453v-0.027
		c0.029-0.029,0.029-0.057,0-0.057l0,0c-0.256-0.058-0.623-0.114-0.992-0.143c-1.275-0.085-2.693,0.227-2.834,2.354
		c-0.029,0.537,0.227,1.02,0.623,1.502C178.063,162.455,178.46,162.796,178.856,163.107L178.856,163.107z M180.868,162.483
		c-0.283-0.17-0.594-0.396-0.934-0.68c-0.342-0.284-0.682-0.568-0.908-0.822c-0.113-0.143-0.197-0.256-0.197-0.283
		c0.057-0.709,0.566-0.822,1.02-0.795c0.283,0.029,0.566,0.086,0.793,0.143l0,0c0.369,0.084,0.682,0.113,0.965,0
		c0.453-0.199,0.736-0.596,1.049-0.992c0.084-0.143,0.197-0.256,0.227-0.312h0.027c0-0.027-0.396-0.396-0.197-0.227
		c0.283,0.227,0.482,0.51,0.623,0.766c0.142,0.256,0.199,0.51,0.199,0.766c0,0.255-0.086,0.539-0.199,0.85l0,0
		c-0.17,0.34-0.397,0.682-0.68,0.992l-0.029,0.029c-0.227,0.283-0.453,0.51-0.68,0.651c-0.17,0.085-0.312,0.142-0.426,0.114
		C181.323,162.683,181.097,162.597,180.868,162.483L180.868,162.483z M180.954,158.458c-0.027,0.029-0.027,0.029-0.027,0.029
		c-0.143,0.057-0.029,0,0.027-0.057V158.458z M166.61,149.756c-0.51,0-1.02,0.028-1.445,0.113c-0.51,0.113-0.936,0.283-1.275,0.538
		l0,0c-0.396,0.284-0.68,0.709-0.879,1.219l0,0c-0.17,0.426-0.227,0.907-0.227,1.503c0,0.538,0.057,1.105,0.227,1.616
		c0.143,0.539,0.396,1.02,0.709,1.445c0.34,0.396,0.766,0.736,1.275,0.936c0.482,0.227,1.049,0.312,1.615,0.312
		c0.596,0,1.162-0.086,1.701-0.284c0.539-0.198,1.021-0.511,1.418-0.907c0.397-0.396,0.68-0.879,0.906-1.418l0,0
		c0.199-0.538,0.312-1.134,0.312-1.7c0-0.624-0.113-1.134-0.34-1.588c-0.227-0.51-0.596-0.907-1.049-1.162l0,0
		c-0.426-0.255-0.908-0.425-1.418-0.51C167.659,149.784,167.122,149.756,166.61,149.756L166.61,149.756z M165.505,151.541
		c0.312-0.057,0.682-0.085,1.105-0.085c0.453,0,0.879,0.028,1.219,0.085c0.34,0.057,0.625,0.142,0.852,0.284l0,0
		c0.17,0.113,0.311,0.255,0.396,0.453c0.113,0.198,0.17,0.481,0.17,0.851c0,0.368-0.057,0.766-0.199,1.105l0,0
		c-0.113,0.311-0.311,0.595-0.537,0.822c-0.199,0.227-0.482,0.397-0.795,0.511c-0.34,0.113-0.709,0.17-1.105,0.17
		c-0.367,0-0.68-0.057-0.963-0.17c-0.227-0.086-0.453-0.256-0.596-0.454c-0.199-0.227-0.34-0.511-0.426-0.851
		c-0.113-0.34-0.141-0.737-0.141-1.134v-0.028c0-0.369,0.027-0.681,0.113-0.907l0,0c0.084-0.198,0.17-0.34,0.311-0.425l0,0
		C165.052,151.654,165.251,151.598,165.505,151.541L165.505,151.541z M168.765,145.419c-0.141,0.538-0.227,1.02-0.254,1.445
		c-0.029,0.51,0.027,0.964,0.197,1.389c0.17,0.426,0.51,0.822,0.936,1.134c0.369,0.256,0.852,0.454,1.389,0.596
		c0.539,0.17,1.105,0.227,1.645,0.227c0.566-0.028,1.105-0.142,1.559-0.34l0,0c0.512-0.227,0.908-0.539,1.248-0.992
		c0.34-0.397,0.566-0.907,0.736-1.475c0.143-0.566,0.199-1.162,0.143-1.729c-0.057-0.567-0.227-1.105-0.51-1.588
		c-0.285-0.481-0.682-0.907-1.135-1.247c-0.482-0.34-1.02-0.595-1.588-0.737c-0.594-0.142-1.133-0.17-1.615-0.085
		c-0.539,0.113-1.02,0.369-1.389,0.737c-0.34,0.34-0.623,0.766-0.85,1.219C169.077,144.427,168.907,144.908,168.765,145.419
		L168.765,145.419z M170.21,146.949c0.029-0.312,0.086-0.681,0.199-1.077c0.113-0.425,0.227-0.822,0.396-1.162
		c0.143-0.312,0.312-0.567,0.482-0.766c0.143-0.113,0.34-0.227,0.539-0.255c0.254-0.057,0.537-0.028,0.879,0.057
		c0.367,0.085,0.707,0.255,0.992,0.482c0.283,0.199,0.537,0.426,0.68,0.709c0.17,0.283,0.256,0.596,0.283,0.907
		c0.029,0.368,0,0.737-0.084,1.105c-0.115,0.368-0.256,0.652-0.426,0.907c-0.17,0.198-0.369,0.368-0.596,0.453l0,0
		c-0.256,0.113-0.596,0.198-0.936,0.198c-0.34,0-0.736-0.028-1.105-0.142l-0.057-0.028c-0.369-0.085-0.623-0.198-0.822-0.34
		c-0.17-0.113-0.283-0.255-0.34-0.396C170.21,147.431,170.183,147.232,170.21,146.949L170.21,146.949z M177.694,152.448
		c-0.17-0.17-0.312-0.51-0.396-0.822c-0.256-0.68-0.453-1.247-1.248-1.389l0,0c-0.482-0.057-1.02,0.028-1.502,0.283
		c-0.453,0.199-0.906,0.567-1.305,0.992l0,0c-0.936,0.879-0.906,1.588-0.879,2.268v0.028c0.059,0.964,0.625,1.985,1.391,2.778l0,0
		c0.453,0.454,0.992,0.822,1.559,1.105c0.596,0.283,1.219,0.426,1.842,0.398c0.682-0.028,1.332-0.284,1.871-0.822
		c0.426-0.425,0.766-0.934,0.936-1.446c0.227-0.537,0.256-1.076,0.113-1.615c-0.197-0.794-0.822-1.049-1.531-1.304
		C178.233,152.76,177.894,152.646,177.694,152.448L177.694,152.448z M175.683,152.193c0.17,0.453,0.367,0.992,0.82,1.474l0,0
		c0.426,0.426,0.936,0.624,1.418,0.822c0.283,0.086,0.51,0.113,0.51,0.17c0.057,0.143,0.029,0.369-0.057,0.568
		c-0.084,0.283-0.283,0.566-0.566,0.821c-0.199,0.227-0.482,0.341-0.736,0.341c-0.34,0.027-0.682-0.057-1.021-0.227
		c-0.396-0.198-0.766-0.454-1.076-0.765l0,0c-0.512-0.512-0.879-1.135-0.908-1.674v-0.028l0,0c-0.027-0.312-0.027-0.623,0.369-0.992
		l0.027-0.028c0.285-0.283,0.539-0.51,0.822-0.623c0.199-0.113,0.369-0.142,0.512-0.142l0,0
		C175.993,151.939,175.626,152.023,175.683,152.193L175.683,152.193z M180.558,146.694c0.34-0.085,0.709-0.113,1.133-0.113
		c0.426,0,0.852,0.028,1.219,0.113c0.312,0.057,0.625,0.142,0.852,0.283l0,0c0.17,0.085,0.283,0.255,0.396,0.425
		c0.086,0.227,0.17,0.511,0.17,0.851c0,0.397-0.084,0.766-0.227,1.105l0,0c-0.113,0.341-0.283,0.624-0.51,0.851
		c-0.227,0.198-0.51,0.368-0.822,0.482c-0.312,0.142-0.709,0.198-1.078,0.198c-0.367,0-0.707-0.057-0.963-0.17
		c-0.256-0.114-0.453-0.256-0.623-0.454c-0.17-0.227-0.312-0.51-0.426-0.851c-0.086-0.34-0.143-0.736-0.143-1.134v-0.057
		c0-0.34,0.057-0.651,0.143-0.879l0,0c0.057-0.198,0.17-0.34,0.283-0.425l0,0C180.104,146.808,180.302,146.723,180.558,146.694
		L180.558,146.694z"/>
</g>
<g id="Layer_1">
</g>
</svg>
