<?xml version="1.0" encoding="iso-8859-1"?>
<!-- Generator: Adobe Illustrator 29.5.1, SVG Export Plug-In . SVG Version: 9.03 Build 0)  -->
<svg version="1.1" xmlns="http://www.w3.org/2000/svg" xmlns:xlink="http://www.w3.org/1999/xlink" x="0px" y="0px"
	 viewBox="0 0 300 300" style="enable-background:new 0 0 300 300;" xml:space="preserve">
<g id="Tail_2">
	<path style="fill-rule:evenodd;clip-rule:evenodd;fill:#1C82AF;" d="M107.503,158.032c0.794-0.198,1.332,1.332,2.013,3.911
		c1.757,6.662,3.544,13.295,5.357,19.956c1.049,3.912,0.822,5.925-3.43,6.577c-4.791,0.708-10.63-0.935-14.315-4.054
		c-1.615-1.36-2.466-2.637-2.296-3.203c0.142-0.567,1.304-0.312,3.147,0.198c2.552,0.709,5.074,1.445,7.625,2.154
		c-4.677-2.977-8.674-7.738-10.487-12.643c-1.021-2.778-1.163-4.876-0.596-5.442c0.596-0.596,1.842,0.481,3.685,2.381
		c2.948,3.005,5.896,5.982,8.845,8.958c-1.758-4.395-2.467-9.412-1.729-13.777C105.802,160.158,106.71,158.259,107.503,158.032
		L107.503,158.032z"/>
</g>
<g id="Layer_1">
</g>
</svg>
