<?xml version="1.0" encoding="iso-8859-1"?>
<!-- Generator: Adobe Illustrator 29.5.1, SVG Export Plug-In . SVG Version: 9.03 Build 0)  -->
<svg version="1.1" xmlns="http://www.w3.org/2000/svg" xmlns:xlink="http://www.w3.org/1999/xlink" x="0px" y="0px"
	 viewBox="0 0 300 300" style="enable-background:new 0 0 300 300;" xml:space="preserve">
<g id="Tail_7">
	<g>
		<path style="fill-rule:evenodd;clip-rule:evenodd;fill:#E5E5E5;" d="M89.782,180.609c-1.105,0-1.984-2.297-1.984-5.103
			c0-2.807,0.879-5.103,1.984-5.103c1.077,0,1.984,2.296,1.984,5.103C91.767,178.312,90.859,180.609,89.782,180.609L89.782,180.609z
			 M97.605,172.474c-1.02-0.396-2.692,1.39-3.713,4.025c-1.049,2.636-1.049,5.074-0.028,5.471c1.021,0.425,2.664-1.389,3.713-4.025
			C98.598,175.337,98.626,172.871,97.605,172.474L97.605,172.474z M103.049,174.232c-1.049-0.312-2.523,1.643-3.317,4.365
			c-0.765,2.722-0.538,5.159,0.511,5.471c1.077,0.283,2.551-1.673,3.316-4.393C104.324,176.98,104.098,174.515,103.049,174.232
			L103.049,174.232z M109.342,175.507c-1.106-0.028-2.041,2.239-2.127,5.074c-0.057,2.806,0.766,5.13,1.871,5.13
			c1.077,0.029,2.041-2.211,2.098-5.045C111.269,177.859,110.418,175.535,109.342,175.507L109.342,175.507z"/>
		<path style="fill:#1C82AF;" d="M85.36,174.373c2.494-1.871,14.371,7.029,32.286,6.718c5.329,0.737,7.966,20.948,0.907,19.984
			C104.268,200.367,79.805,178.568,85.36,174.373L85.36,174.373z"/>
	</g>
</g>
<g id="Layer_1">
</g>
</svg>
