<?xml version="1.0" encoding="iso-8859-1"?>
<!-- Generator: Adobe Illustrator 29.5.1, SVG Export Plug-In . SVG Version: 9.03 Build 0)  -->
<svg version="1.1" xmlns="http://www.w3.org/2000/svg" xmlns:xlink="http://www.w3.org/1999/xlink" x="0px" y="0px"
	 viewBox="0 0 300 300" style="enable-background:new 0 0 300 300;" xml:space="preserve">
<g id="Tail_3">
	<path style="fill:#1C82AF;" d="M112.608,183.482c1.39-0.141,2.637,0.879,2.778,2.297c0.142,1.389-0.879,2.637-2.296,2.777
		c-3.742,0.369-8.561-0.51-12.728-2.465c-2.438-1.135-4.678-2.637-6.406-4.479c-1.843-1.984-3.061-4.367-3.345-7.088
		c-0.199-2.041,0.142-4.223,1.219-6.547c0.538-1.106,1.275-2.354,2.098-3.742c2.692-4.508,6.463-10.801,3.656-14.939
		c-0.368-0.538-0.851-1.049-1.389-1.474l0,0l0,0c-1.758-1.39-4.224-2.239-6.804-2.382c-2.607-0.141-5.272,0.426-7.37,1.843
		c-0.736,0.511-1.417,1.105-1.956,1.814c-0.878,1.105-2.494,1.275-3.571,0.397c-1.105-0.879-1.275-2.467-0.396-3.572
		c0.907-1.134,1.927-2.07,3.062-2.835c3.09-2.098,6.859-2.948,10.488-2.749c3.628,0.227,7.171,1.473,9.723,3.514l0,0
		c0.964,0.766,1.758,1.617,2.409,2.58c4.649,6.804-0.085,14.74-3.486,20.41c-0.766,1.305-1.446,2.438-1.843,3.289
		c-0.681,1.416-0.907,2.721-0.794,3.91c0.171,1.504,0.907,2.893,2.041,4.082c1.247,1.361,2.948,2.496,4.819,3.375
		C105.862,183.059,109.689,183.795,112.608,183.482L112.608,183.482z"/>
</g>
<g id="Layer_1">
</g>
</svg>
