<?xml version="1.0" encoding="iso-8859-1"?>
<!-- Generator: Adobe Illustrator 29.5.1, SVG Export Plug-In . SVG Version: 9.03 Build 0)  -->
<svg version="1.1" xmlns="http://www.w3.org/2000/svg" xmlns:xlink="http://www.w3.org/1999/xlink" x="0px" y="0px"
	 viewBox="0 0 300 300" style="enable-background:new 0 0 300 300;" xml:space="preserve">
<g id="Tail_5">
	<path style="fill-rule:evenodd;clip-rule:evenodd;fill:#1C82AF;" d="M110.284,178.623c0.113,0.057,0.227,0.085,0.34,0.142
		c0.256-1.673,1.134-2.948,2.211-2.948c1.248,0,2.268,1.729,2.268,3.827c0,0.765-0.142,1.474-0.368,2.069
		c0.085,0.085,0.17,0.198,0.255,0.283c1.049-1.332,2.438-1.984,3.374-1.445c1.077,0.623,1.105,2.607,0.057,4.45
		c-0.397,0.651-0.851,1.19-1.361,1.587c0.028,0.143,0.057,0.256,0.057,0.397c1.588-0.652,3.118-0.482,3.657,0.425
		c0.623,1.077-0.34,2.807-2.183,3.855c-0.652,0.396-1.333,0.623-1.956,0.736c-0.028,0.113-0.085,0.256-0.142,0.369
		c1.7,0.227,2.948,1.134,2.948,2.183c0,1.247-1.701,2.268-3.799,2.268c-0.766,0-1.474-0.142-2.069-0.368
		c-0.113,0.085-0.198,0.17-0.311,0.255c1.332,1.049,1.984,2.438,1.445,3.373c-0.623,1.077-2.607,1.105-4.422,0.057
		c-0.652-0.368-1.219-0.85-1.616-1.332c-0.113,0-0.255,0.028-0.368,0.057c0.624,1.559,0.482,3.118-0.453,3.628
		c-1.077,0.624-2.807-0.34-3.855-2.154c-0.368-0.651-0.624-1.332-0.709-1.955c-0.142-0.058-0.255-0.114-0.368-0.143
		c-0.255,1.673-1.134,2.92-2.211,2.92c-1.247,0-2.268-1.701-2.268-3.799c0-0.765,0.142-1.474,0.368-2.068
		c-0.085-0.086-0.17-0.199-0.255-0.312c-1.021,1.361-2.438,1.984-3.373,1.475c-1.077-0.624-1.105-2.608-0.057-4.451
		c0.396-0.651,0.85-1.19,1.36-1.615c-0.028-0.113-0.057-0.256-0.057-0.369c-1.588,0.652-3.118,0.482-3.657-0.425
		c-0.623-1.105,0.341-2.835,2.183-3.884c0.652-0.368,1.333-0.623,1.956-0.708c0.028-0.113,0.085-0.255,0.142-0.368
		c-1.7-0.228-2.947-1.135-2.947-2.212c0-1.247,1.7-2.239,3.826-2.239c0.737,0,1.446,0.113,2.041,0.34
		c0.113-0.084,0.198-0.141,0.312-0.227c-1.332-1.049-1.983-2.466-1.445-3.373c0.624-1.077,2.608-1.105,4.422-0.057
		c0.652,0.369,1.219,0.851,1.616,1.332c0.113-0.028,0.255-0.028,0.396-0.057c-0.651-1.587-0.51-3.118,0.426-3.656
		c1.077-0.624,2.806,0.368,3.854,2.183C109.944,177.318,110.17,177.999,110.284,178.623L110.284,178.623z"/>
</g>
<g id="Layer_1">
</g>
</svg>
