<?xml version="1.0" encoding="iso-8859-1"?>
<!-- Generator: Adobe Illustrator 29.5.1, SVG Export Plug-In . SVG Version: 9.03 Build 0)  -->
<svg version="1.1" xmlns="http://www.w3.org/2000/svg" xmlns:xlink="http://www.w3.org/1999/xlink" x="0px" y="0px"
	 viewBox="0 0 300 300" style="enable-background:new 0 0 300 300;" xml:space="preserve">
<g id="Tail_4">
	<g>
		<path style="fill-rule:evenodd;clip-rule:evenodd;fill:#1C82AF;" d="M162.082,95.705c8.816-27.609-1.559-37.955-13.18-28.488
			c-8.079-2.607-14.712-3.032-18.143,5.5c-9.949-0.17-19.049,8.759-16.752,18.538c-9.354,7.739-10.092,14.059-4.451,23.188
			c-7.88,7.767-4.507,16.413,2.183,21.431c-3.373,3.968-1.049,8.475,2.523,11.423L162.082,95.705z"/>
		<path style="fill-rule:evenodd;clip-rule:evenodd;fill:#1C82AF;" d="M89.714,184.686c-1.22,3.543,2.494,5.867,6.122,5.867
			c-4.592,0.566-10.8,5.357-10.176,10.572c0.708,6.152,6.236,3.316,8.73,0.795c-7.455,8.814,7.966,17.604,7.966-0.795
			c1.19,11.764,8.759-4.875,9.949-8.475C115.594,182.559,92.123,177.484,89.714,184.686L89.714,184.686z"/>
	</g>
</g>
<g id="Layer_1">
</g>
</svg>
