<?xml version="1.0" encoding="iso-8859-1"?>
<!-- Generator: Adobe Illustrator 29.5.1, SVG Export Plug-In . SVG Version: 9.03 Build 0)  -->
<svg version="1.1" xmlns="http://www.w3.org/2000/svg" xmlns:xlink="http://www.w3.org/1999/xlink" x="0px" y="0px"
	 viewBox="0 0 300 300" style="enable-background:new 0 0 300 300;" xml:space="preserve">
<g id="Tail_1">
	<path style="fill:#1C82AF;" d="M111.804,187.433c-19.7-1.956-17.433,17.574-15.505,28.431c0.255,1.361-0.652,2.693-2.041,2.949
		c-1.389,0.283-2.693-0.652-2.948-2.014c-3.062-16.044-2.239-26.078,1.587-31.407c1.275-1.758,2.807-3.033,4.592-3.827
		c4.649-2.154,5.472-2.863-0.68-2.863c-13.125,0.029-12.586,32.542-13.152,39.912c-0.029,1.389-1.191,2.523-2.608,2.467
		c-1.389-0.029-2.494-1.191-2.466-2.608c0.539-18.851,2.098-34.186,7.002-41.697c2.041-3.118,4.506-5.018,7.512-5.556
		c5.896-1.078,2.098-2.693-1.531-2.608c-12.841,0.283-15.902,34.044-17.547,40.45c-0.113,1.389-1.332,2.467-2.721,2.354
		c-1.418-0.086-2.467-1.305-2.381-2.693c1.247-18.113,4.025-30.388,7.965-37.616c2.467-4.507,5.443-7.2,8.844-8.276
		c3.487-1.078,7.229-0.426,11.141,1.785c5.613,3.203,11.735,9.752,18.085,19.077c0.794,1.134,0.511,2.722-0.651,3.515
		C113.533,187.744,112.569,187.773,111.804,187.433L111.804,187.433z"/>
</g>
<g id="Layer_1">
</g>
</svg>
