<?xml version="1.0" encoding="iso-8859-1"?>
<!-- Generator: Adobe Illustrator 29.5.1, SVG Export Plug-In . SVG Version: 9.03 Build 0)  -->
<svg version="1.1" xmlns="http://www.w3.org/2000/svg" xmlns:xlink="http://www.w3.org/1999/xlink" x="0px" y="0px"
	 viewBox="0 0 300 300" style="enable-background:new 0 0 300 300;" xml:space="preserve">
<g id="Tail_6">
	<path style="fill:#1C82AF;" d="M110.458,192.427c0.681-0.624,3.544,0.17,4.167,0.851c5.981,6.35-11.31,6.973-14.655,6.604
		c-1.049,0.623-2.183,0.992-3.373,1.134c-8.334,1.049-12.104-8.306-8.221-15.421c-0.312,3.146-0.538,7.569,2.948,10.602
		c0.681,0.567,1.475,0.992,2.296,1.247c0.113,0.029,0.199,0.057,0.312,0.086c-0.227-0.199-0.454-0.397-0.652-0.624
		c-0.17-0.17-0.312-0.341-0.453-0.511c-2.722-3.43-2.098-6.009-0.085-7.597c0.878-0.708,2.069-1.162,3.316-1.332
		c1.19-0.142,2.466-0.057,3.628,0.283c2.977,0.851,5.244,3.175,4.11,7.087c-0.17,0.596-0.396,1.162-0.652,1.701
		c0.199-0.029,0.398-0.057,0.624-0.086C106.462,196.14,108.56,194.184,110.458,192.427L110.458,192.427z M95.746,194.581
		c0.851,0.907,2.013,1.445,3.346,1.757c0.651-0.623,1.162-1.417,1.474-2.438c0.453-1.588-0.539-2.522-1.814-2.892
		c-0.736-0.227-1.53-0.255-2.268-0.17c-0.652,0.085-1.247,0.284-1.644,0.596c-0.539,0.453-0.539,1.36,0.651,2.835
		C95.576,194.383,95.661,194.496,95.746,194.581L95.746,194.581z"/>
</g>
<g id="Layer_1">
</g>
</svg>
